<svg width="50" height="50" viewBox="0 0 50 50" fill="none" xmlns="http://www.w3.org/2000/svg">
<rect y="0.000488281" width="50" height="50" rx="25" fill="#F3F3F3"/>
<g clip-path="url(#clip0_248_300)">
<path d="M23.9844 15.8597C21.9102 16.1136 19.9961 17.0394 18.5313 18.4965C17.1563 19.8636 16.2852 21.559 15.9336 23.5433C15.8125 24.2113 15.8008 25.6332 15.9102 26.3285C16.0352 27.1254 16.3711 28.266 16.6211 28.7504C16.6875 28.8754 16.6836 28.8988 16.4024 30.3168L16.1172 31.7582L16.1641 32.0785C16.2969 33.0121 17.0195 33.723 17.9492 33.8363L18.3008 33.8754L19.6914 33.598L21.086 33.3207L21.5078 33.4925C22.5781 33.93 23.5195 34.1293 24.6875 34.1683C26.4531 34.2269 28.1016 33.8168 29.582 32.9535C32.0899 31.4886 33.7461 28.9965 34.1211 26.1215C34.1875 25.5902 34.1992 24.5433 34.1367 23.9925C33.9531 22.2738 33.2344 20.559 32.1289 19.1996C31.75 18.7347 31.0117 18.0199 30.543 17.6683C29.3438 16.766 28.0274 16.2035 26.5039 15.93C26.0117 15.8441 24.4805 15.8011 23.9844 15.8597ZM26.0742 17.6019C27.707 17.8363 29.2969 18.6644 30.4336 19.8754C33.2461 22.8715 33.1406 27.5316 30.1914 30.3715C27.9414 32.5355 24.6836 33.0785 21.8242 31.7621C21.6367 31.6761 21.4219 31.5941 21.3438 31.5785C21.2461 31.559 20.7735 31.641 19.668 31.8597L18.1289 32.1683L18.0195 32.0863C17.8125 31.934 17.8164 31.9222 18.1406 30.2894C18.461 28.6879 18.4649 28.6449 18.3125 28.3441C18.2695 28.2582 18.1563 27.9965 18.0625 27.7582C17.4063 26.1332 17.3477 24.3441 17.8945 22.68C18.6367 20.4144 20.4141 18.6371 22.6797 17.8949C23.7852 17.5316 24.9102 17.434 26.0742 17.6019Z" fill="#1D3A70"/>
<path d="M24.6875 20.8635C24 21.1526 23.9687 22.1018 24.6367 22.4377C24.8164 22.5276 25.1992 22.5197 25.3867 22.4221C25.957 22.133 26.0039 21.3322 25.4765 20.9612C25.3359 20.8635 25.2656 20.8401 25.0469 20.8322C24.9023 20.8244 24.7422 20.8401 24.6875 20.8635Z" fill="#1D3A70"/>
<path d="M23.8086 23.3947C23.3672 23.6017 23.1953 24.1095 23.4179 24.5588C23.5351 24.7931 23.7539 24.9572 23.9804 24.9885L24.1367 25.0119L24.1484 26.7931L24.1601 28.5744L24.2578 28.7502C24.3125 28.8439 24.4297 28.9767 24.5234 29.0431L24.6953 29.1603L25.3242 29.172C26.0351 29.1877 26.1797 29.1603 26.3945 28.9728C26.9062 28.5236 26.6718 27.5978 26.0195 27.5119L25.8633 27.4885L25.8515 25.7072L25.8398 23.926L25.7422 23.7502C25.6875 23.6564 25.5703 23.5236 25.4765 23.4572L25.3047 23.34L24.6367 23.3283C24.0468 23.3205 23.9453 23.3283 23.8086 23.3947Z" fill="#1D3A70"/>
</g>
<defs>
<clipPath id="clip0_248_300">
<rect width="20" height="20" fill="white" transform="translate(15 15.0005)"/>
</clipPath>
</defs>
</svg>
