<svg width="34" height="35" viewBox="0 0 34 35" fill="none" xmlns="http://www.w3.org/2000/svg">
<g clip-path="url(#clip0_331_217)">
<path d="M6.47021 17.2961C6.50369 20.0705 7.62068 22.7218 9.5826 24.6838C11.5445 26.6457 14.1958 27.7627 16.9702 27.7961C19.7446 27.7627 22.3959 26.6457 24.3578 24.6838C26.3197 22.7218 27.4367 20.0705 27.4702 17.2961C27.4367 14.5218 26.3197 11.8705 24.3578 9.90853C22.3959 7.94661 19.7446 6.82962 16.9702 6.79614C14.1958 6.82962 11.5445 7.94661 9.5826 9.90853C7.62068 11.8705 6.50369 14.5218 6.47021 17.2961ZM17.7202 11.2961V16.5461H22.9702V18.0461H17.7202V23.2961H16.2202V18.0461H10.9702V16.5461H16.2202V11.2961H17.7202Z" fill="#FFAF00"/>
</g>
<defs>
<clipPath id="clip0_331_217">
<rect width="24" height="24" fill="white" transform="translate(33.9409 17.2961) rotate(135)"/>
</clipPath>
</defs>
</svg>
