<svg width="38" height="39" viewBox="0 0 38 39" fill="none" xmlns="http://www.w3.org/2000/svg">
<g clip-path="url(#clip0_109_345)">
<g clip-path="url(#clip1_109_345)">
<path d="M12.082 8.80869L5.46484 12.1118H19H32.5352L25.8961 8.80322C19.6344 5.68604 19.2406 5.5001 18.9781 5.50557C18.7211 5.51104 18.1305 5.79541 12.082 8.80869Z" fill="#A8A8A8"/>
<path d="M5 13.8398C5 14.0094 5.34453 14.8461 5.58516 15.2617C6.01719 16.0109 6.62969 16.7711 6.93594 16.9406C7.09453 17.0336 7.77266 17.0391 18.9836 17.0391C25.8031 17.0391 30.9164 17.0172 30.9875 16.9898C31.2664 16.8859 31.9664 16.0383 32.4148 15.2617C32.6555 14.8461 33 14.0094 33 13.8398C33 13.7687 31.2883 13.7578 19 13.7578C6.71172 13.7578 5 13.7687 5 13.8398Z" fill="#A8A8A8"/>
<path d="M8.28125 23.6289V28.5781H10.7695H13.2578V23.6289V18.6797H10.7695H8.28125V23.6289Z" fill="#A8A8A8"/>
<path d="M16.5391 23.6289V28.5781H19H21.4609V23.6289V18.6797H19H16.5391V23.6289Z" fill="#A8A8A8"/>
<path d="M24.7422 23.6289V28.5781H27.2305H29.7188V23.6289V18.6797H27.2305H24.7422V23.6289Z" fill="#A8A8A8"/>
<path d="M6.38359 30.3281C6.1375 30.4758 5.55234 31.2852 5.24609 31.8867C5.04375 32.2914 5 32.4336 5 32.6797C5 33.0188 5.10938 33.2266 5.36094 33.3961C5.51406 33.4945 5.88594 33.5 19 33.5C32.1141 33.5 32.4859 33.4945 32.6391 33.3961C32.8906 33.2266 33 33.0188 33 32.6797C33 32.4336 32.9562 32.2914 32.7539 31.8867C32.4586 31.2906 31.8625 30.4758 31.6164 30.3281C31.4414 30.2188 31.3047 30.2188 19 30.2188C6.69531 30.2188 6.55859 30.2188 6.38359 30.3281Z" fill="#A8A8A8"/>
</g>
</g>
<defs>
<clipPath id="clip0_109_345">
<rect y="0.5" width="38" height="38" rx="19" fill="white"/>
</clipPath>
<clipPath id="clip1_109_345">
<rect width="28" height="28" fill="white" transform="translate(5 5.5)"/>
</clipPath>
</defs>
</svg>
