<svg width="21" height="22" viewBox="0 0 21 22" fill="none" xmlns="http://www.w3.org/2000/svg">
<path d="M9.65915 1.98696C8.18669 2.20024 6.86599 2.85239 5.8488 3.87368C4.96286 4.75552 4.38865 5.79321 4.06872 7.08931L3.96618 7.51997L3.93747 10.4526C3.91286 13.3524 3.90466 13.4877 3.76931 13.7379C3.71189 13.8528 2.76443 15.2186 2.53884 15.518C2.30505 15.8297 2.23533 16.0389 2.23943 16.4204C2.23943 16.6993 2.25993 16.7854 2.35837 16.9864C2.49783 17.2653 2.71521 17.4786 3.01052 17.6139L3.2197 17.7124H5.23767H7.25154L7.34177 18.0077C7.6822 19.1233 8.55583 19.96 9.70017 20.2594C10.1554 20.3784 10.8445 20.3784 11.2998 20.2594C12.44 19.96 13.3218 19.1192 13.6582 18.0077L13.7484 17.7124H15.7623H17.7802L17.9894 17.6139C18.2847 17.4745 18.5185 17.253 18.6498 16.9823C18.74 16.7895 18.7605 16.6911 18.7605 16.4204C18.7646 16.0389 18.6949 15.8297 18.4611 15.518C18.2355 15.2186 17.2881 13.8528 17.2306 13.7379C17.0953 13.4877 17.0871 13.3524 17.0625 10.4526L17.0338 7.51997L16.9312 7.08931C16.6113 5.79321 16.0371 4.75552 15.1511 3.87368C14.2652 2.98775 13.2111 2.40532 11.9355 2.09771C11.5623 2.00747 11.3941 1.99517 10.6435 1.98286C10.1718 1.97466 9.72888 1.97876 9.65915 1.98696ZM11.4023 3.3856C11.8166 3.45532 12.4687 3.6645 12.8133 3.83677C14.0724 4.46841 15.0609 5.62915 15.4793 6.95806C15.7172 7.71274 15.7213 7.77427 15.7459 10.8833C15.7705 13.5124 15.7787 13.7708 15.8484 13.9594C15.9715 14.2999 16.1601 14.6198 16.7877 15.518L17.3906 16.3793L13.9453 16.3917C12.0504 16.3958 8.94958 16.3958 7.05466 16.3917L3.60935 16.3793L4.22868 15.4975C4.84802 14.6075 5.01208 14.3327 5.15154 13.9594C5.22126 13.7708 5.22947 13.5329 5.25408 10.8833C5.27458 8.43872 5.28689 7.95884 5.34841 7.64302C5.71345 5.69067 7.05466 4.15259 8.92087 3.54966C9.72478 3.29126 10.5246 3.23794 11.4023 3.3856ZM12.2842 17.8026C12.198 18.0938 11.7961 18.545 11.4433 18.7459C10.8937 19.0659 10.1062 19.0659 9.55661 18.7459C9.20388 18.545 8.80193 18.0938 8.71579 17.8026L8.69119 17.7124H10.5H12.3088L12.2842 17.8026Z" fill="black"/>
</svg>
