<svg width="30" height="31" viewBox="0 0 30 31" fill="none" xmlns="http://www.w3.org/2000/svg">
<g clip-path="url(#clip0_140_2112)">
<g clip-path="url(#clip1_140_2112)">
<path d="M7.22889 1.65861C6.8953 1.87736 1.62342 7.17658 1.55233 7.36799C1.3992 7.77814 1.54139 8.23205 1.88592 8.44533C2.04998 8.54377 2.16483 8.55471 3.09452 8.55471H4.11717V10.6766C4.11717 12.7383 4.12264 12.8039 4.22655 12.9188C4.39608 13.0992 4.72967 13.0828 4.8828 12.8914C4.99217 12.7492 4.99764 12.711 4.98123 10.4906C4.96483 8.30861 4.95936 8.23205 4.84998 8.08439C4.58202 7.72346 4.5328 7.70705 3.41717 7.69064L2.39998 7.67424L5.05233 5.02189C7.13592 2.9383 7.72655 2.37502 7.83592 2.37502C7.9453 2.37502 8.53592 2.9383 10.6195 5.02189L13.2719 7.67424L12.2547 7.69064C11.139 7.70705 11.0898 7.72346 10.8219 8.08439C10.707 8.23205 10.707 8.29221 10.6906 12.3117C10.6797 16.1453 10.6742 16.386 10.5812 16.3586C10.532 16.3422 10.275 16.2547 10.018 16.1617C8.68358 15.6969 6.94998 15.7078 5.58826 16.1891C5.36405 16.2656 5.13983 16.3422 5.09061 16.3586C4.99764 16.386 4.99217 16.3149 4.99217 15.407C4.99217 14.4938 4.98123 14.4117 4.87733 14.275C4.72967 14.0891 4.39608 14.0727 4.22655 14.2531C4.12264 14.368 4.11717 14.4445 4.1117 15.6313V16.8945L3.72889 17.168C2.68983 17.9063 1.76014 19.1914 1.32811 20.4766C0.896078 21.7617 0.88514 23.4899 1.30623 24.775C1.97342 26.8313 3.61952 28.4938 5.64842 29.1719C6.61092 29.4945 8.05467 29.5985 9.04451 29.418C11.1937 29.0188 13.0039 27.668 13.9555 25.7594C14.475 24.7149 14.6719 23.8617 14.6719 22.6641C14.6719 21.2149 14.3164 20.0117 13.5453 18.8524C13.168 18.2836 12.4515 17.5289 11.943 17.168L11.5601 16.8945V12.7219L11.5547 8.55471H12.5828C13.507 8.55471 13.6219 8.54377 13.7859 8.44533C14.1305 8.23205 14.2726 7.77814 14.1195 7.36799C14.0484 7.17658 8.77655 1.87736 8.44295 1.65861C8.23514 1.52189 8.14217 1.50002 7.83592 1.50002C7.52967 1.50002 7.4367 1.52189 7.22889 1.65861ZM8.49217 16.7305C10.6797 16.9 12.7523 18.568 13.5015 20.7719C13.9008 21.9313 13.9008 23.3969 13.5015 24.5563C12.6758 26.9899 10.4117 28.625 7.86327 28.6305C7.15233 28.6305 6.68201 28.5649 6.06952 28.3735C3.95311 27.7008 2.37264 25.9235 1.95702 23.7414C1.85311 23.1836 1.85311 22.1445 1.95702 21.5867C2.11014 20.7664 2.4492 19.9625 2.93045 19.2461C3.2203 18.8195 3.99686 18.043 4.43436 17.7477C4.92108 17.4195 5.70311 17.0586 6.27733 16.8945C6.74217 16.7633 7.63905 16.6485 7.9453 16.6813C8.02186 16.6922 8.26795 16.7141 8.49217 16.7305Z" fill="#FFC727"/>
<path d="M3.32422 20.8867L3.1875 21.018V22.6641V24.3102L3.32422 24.4414C3.45 24.5727 3.48281 24.5781 4.18828 24.5781C4.88828 24.5781 4.9375 24.5727 5.21641 24.425C5.64844 24.2008 5.83984 23.8672 5.83984 23.3477C5.83984 23.0031 5.81797 22.9211 5.66484 22.6695C5.51719 22.4344 5.49531 22.3633 5.53906 22.2484C5.67031 21.9039 5.56094 21.368 5.30391 21.0836C5.06328 20.8266 4.80078 20.75 4.10078 20.75C3.48828 20.75 3.45 20.7555 3.32422 20.8867ZM4.65312 21.6906C4.75156 21.7891 4.72969 21.9969 4.61484 22.0625C4.55469 22.0898 4.40703 22.1172 4.28672 22.1172H4.0625V21.8711V21.625H4.325C4.46719 21.625 4.61484 21.6523 4.65312 21.6906ZM4.88281 23.1016C5.025 23.2437 5.01953 23.4188 4.87187 23.5773C4.77344 23.6813 4.69687 23.7031 4.40703 23.7031H4.0625V23.3477V22.9922H4.41797C4.70234 22.9922 4.79531 23.0141 4.88281 23.1016Z" fill="#FFC727"/>
<path d="M6.425 20.8757C6.31016 21.0015 6.30469 21.0452 6.30469 22.2921C6.30469 23.528 6.31016 23.5827 6.43047 23.8179C6.58359 24.1077 6.99922 24.4358 7.32734 24.5233C7.84687 24.671 8.57422 24.4632 8.90234 24.0749C9.18672 23.7358 9.20312 23.6429 9.20312 22.2538C9.20312 21.0397 9.19766 20.9632 9.09375 20.8593C8.91328 20.6788 8.50859 20.7335 8.40469 20.9522C8.37734 21.0069 8.34453 21.5921 8.32812 22.2538L8.30078 23.4515L8.11484 23.5772C8.01094 23.6483 7.85234 23.703 7.75937 23.703C7.54062 23.703 7.24531 23.5226 7.20703 23.364C7.19609 23.2929 7.17422 22.7241 7.16875 22.1007C7.15234 20.9741 7.15234 20.9577 7.02109 20.8538C6.84609 20.7116 6.57266 20.7171 6.425 20.8757Z" fill="#FFC727"/>
<path d="M9.89763 20.8156C9.77184 20.914 9.70075 21.1328 9.74997 21.2968C9.77184 21.3734 9.99059 21.7398 10.2367 22.1117L10.6797 22.7953V23.5663C10.6797 24.3046 10.6851 24.3484 10.8054 24.4578C10.964 24.6054 11.2265 24.6109 11.3961 24.4742C11.5218 24.3757 11.5273 24.332 11.5547 23.5281L11.582 22.6913L12.0359 22.0132C12.5281 21.264 12.5718 21.1054 12.3476 20.8867C12.2164 20.7499 12.0359 20.7171 11.8554 20.7828C11.8062 20.8046 11.6203 21.0398 11.4398 21.3078C11.2539 21.5757 11.1008 21.789 11.0898 21.7781C11.0789 21.7671 10.9422 21.5648 10.789 21.3242C10.4609 20.8156 10.3898 20.7499 10.1601 20.7499C10.0672 20.7499 9.94684 20.7828 9.89763 20.8156Z" fill="#FFC727"/>
<path d="M20.8242 1.60938C18.7406 2.03047 16.9633 3.38125 16.0391 5.24609C15.5195 6.29609 15.3281 7.13281 15.3281 8.33594C15.3281 9.42969 15.4813 10.1734 15.9023 11.1359C16.3508 12.1586 17.1656 13.1812 18.0297 13.8047L18.4398 14.1055L18.4453 18.2727V22.4453H17.4227C16.493 22.4453 16.3781 22.4563 16.2141 22.5547C15.8695 22.768 15.7273 23.2219 15.8805 23.632C15.9516 23.8234 21.2234 29.1227 21.557 29.3414C21.7648 29.4781 21.8578 29.5 22.1641 29.5C22.4703 29.5 22.5633 29.4781 22.7711 29.3414C23.1047 29.1227 28.3766 23.8234 28.4477 23.632C28.6008 23.2219 28.4586 22.768 28.1141 22.5547C27.95 22.4563 27.8352 22.4453 26.9109 22.4453H25.8828L25.8883 18.2727V14.1055L26.2711 13.832C26.4844 13.6789 26.8617 13.3453 27.1133 13.0828C28.0813 12.0711 28.6664 10.9117 28.918 9.52266C29.0602 8.73516 29.0109 7.3625 28.8195 6.64062C28.5406 5.60703 28.3492 5.27344 28.032 5.27344C27.8242 5.27344 27.5781 5.47578 27.5781 5.63984C27.5781 5.69453 27.6602 5.97344 27.7641 6.26328C27.868 6.55313 27.9937 6.99063 28.0375 7.24219C28.1469 7.81094 28.1469 8.85 28.043 9.41328C27.507 12.2461 25.0516 14.2969 22.1914 14.3023C21.4805 14.3023 21.0102 14.2367 20.3977 14.0453C18.2812 13.3727 16.7008 11.5953 16.2852 9.41328C16.1812 8.85547 16.1812 7.81641 16.2852 7.25859C16.5148 6.03906 17.0617 5.00547 17.9477 4.11953C18.4727 3.6 18.8664 3.31563 19.5117 2.99297C20.3812 2.55547 21.1906 2.36953 22.1914 2.36953C23.7664 2.375 25.1773 2.94922 26.3531 4.08125C26.7414 4.45312 26.8234 4.50781 26.9984 4.50781C27.2555 4.50781 27.4141 4.35469 27.4141 4.09219C27.4141 3.92813 27.3594 3.84063 27.075 3.53984C26.3805 2.81797 25.3031 2.13984 24.3516 1.82266C23.3398 1.48906 21.8578 1.40156 20.8242 1.60938ZM19.9164 14.8109C20.6219 15.0625 21.3109 15.1719 22.1477 15.1719C23.0227 15.1719 23.668 15.0734 24.3461 14.8383C24.6031 14.7453 24.8602 14.6578 24.9094 14.6414C25.0023 14.6141 25.0078 14.8547 25.0188 18.6883C25.0352 22.7078 25.0352 22.768 25.15 22.9156C25.418 23.2766 25.4672 23.293 26.5828 23.3094L27.6 23.3258L24.9477 25.9781C22.8641 28.0617 22.2734 28.625 22.1641 28.625C22.0547 28.625 21.4641 28.0617 19.3805 25.9781L16.7281 23.3258L17.7453 23.3094C18.8609 23.293 18.9102 23.2766 19.1781 22.9156C19.293 22.768 19.293 22.7078 19.3094 18.6883C19.3203 14.8547 19.3258 14.6141 19.4187 14.6414C19.468 14.6578 19.6922 14.7344 19.9164 14.8109Z" fill="#FFC727"/>
<path d="M18.0023 6.49299C17.3516 6.73908 17.0562 7.42267 17.3516 8.00783C17.4883 8.2758 17.6742 8.40705 18.232 8.61486C18.7406 8.80627 18.9922 8.95939 18.9922 9.07424C18.9922 9.11252 18.9266 9.20002 18.85 9.26017C18.6039 9.45705 18.1773 9.39142 17.893 9.12346C17.5648 8.80627 17.0781 8.95392 17.0781 9.36955C17.0781 9.92189 18.1938 10.4086 18.9594 10.1953C19.6539 10.0039 20.0422 9.24377 19.7633 8.63674C19.6156 8.30861 19.3477 8.10627 18.7023 7.84924C18.2539 7.66877 18.1172 7.58674 18.1172 7.51017C18.1172 7.26955 18.5656 7.2258 18.932 7.43361C19.375 7.69064 19.7578 7.56486 19.7578 7.16017C19.7578 6.92502 19.6047 6.76642 19.2219 6.58049C18.9047 6.43283 18.2867 6.38908 18.0023 6.49299Z" fill="#FFC727"/>
<path d="M20.5016 6.53672L20.3594 6.64609V8.33594V10.0258L20.5016 10.1352C20.6328 10.2391 20.7203 10.25 21.4094 10.25C22.1422 10.25 22.175 10.2445 22.3008 10.1133C22.4813 9.93828 22.4867 9.65938 22.3117 9.49531C22.2023 9.39141 22.1203 9.375 21.7102 9.375H21.2344V9.07422V8.77344H21.6609C22.1203 8.76797 22.2352 8.71875 22.3227 8.48359C22.3883 8.31406 22.3227 8.08438 22.175 7.975C22.1203 7.93125 21.918 7.90391 21.6609 7.89844H21.2344V7.59766V7.29688H21.7156C22.1531 7.29688 22.2133 7.28594 22.3172 7.17109C22.4813 6.99609 22.4758 6.72813 22.3008 6.55859C22.175 6.42734 22.1422 6.42188 21.4094 6.42188C20.7203 6.42188 20.6328 6.43281 20.5016 6.53672Z" fill="#FFC727"/>
<path d="M23.0937 6.53135C22.9898 6.63525 22.9844 6.71182 22.9844 8.33603C22.9844 10.4196 22.9023 10.2501 23.9031 10.2501C24.275 10.2501 24.625 10.2282 24.6797 10.1954C24.8164 10.1243 24.9039 9.83994 24.8437 9.68135C24.7617 9.4626 24.5812 9.3751 24.2039 9.3751H23.8594V8.12275C23.8594 6.8376 23.8265 6.5751 23.6406 6.47666C23.4711 6.38916 23.2086 6.4165 23.0937 6.53135Z" fill="#FFC727"/>
<path d="M25.4945 6.52578L25.3633 6.62969V8.33594V10.0422L25.4945 10.1461C25.6039 10.2336 25.7133 10.25 26.3148 10.25C26.9711 10.25 27.0203 10.2445 27.1297 10.1242C27.3047 9.93828 27.2938 9.6375 27.1078 9.48984C26.993 9.39688 26.8836 9.375 26.5883 9.375H26.2109V8.01875C26.2109 6.66797 26.2109 6.65703 26.0852 6.54219C25.9266 6.39453 25.6641 6.38906 25.4945 6.52578Z" fill="#FFC727"/>
</g>
</g>
<defs>
<clipPath id="clip0_140_2112">
<rect width="30" height="30" fill="white" transform="translate(0 0.5)"/>
</clipPath>
<clipPath id="clip1_140_2112">
<rect width="28" height="28" fill="white" transform="translate(1 1.5)"/>
</clipPath>
</defs>
</svg>
