<svg width="38" height="39" viewBox="0 0 38 39" fill="none" xmlns="http://www.w3.org/2000/svg">
<g clip-path="url(#clip0_109_379)">
<path d="M12.4909 3.06038C11.8823 3.18656 11.3925 3.6096 11.1773 4.19593C11.0585 4.50765 10.5984 7.29827 10.6503 7.35765C10.6874 7.38734 37.5101 13.0725 37.5323 13.0502C37.5917 12.9983 37.9999 10.1409 37.9999 9.76976C37.9999 8.98304 37.4952 8.26312 36.7827 8.04046C36.4784 7.94398 13.4855 3.08265 13.0995 3.03812C12.9362 3.01585 12.6616 3.0307 12.4909 3.06038Z" fill="#A8A8A8"/>
<path d="M9.61866 11.3655C9.61124 11.3877 9.35147 12.5752 9.0546 14.0077C8.75772 15.4327 8.47569 16.6424 8.43116 16.6944C8.38663 16.7389 6.76124 17.2139 4.82413 17.7557C2.88702 18.2901 1.15772 18.7948 0.987018 18.8764C0.593658 19.062 0.200299 19.5147 0.088971 19.9006C-0.103998 20.5315 -0.0594666 20.7245 1.96671 28.0499C3.0503 31.9612 3.99288 35.3233 4.05967 35.5311C4.3417 36.4069 5.00225 36.9264 5.82608 36.9338C6.18975 36.9338 8.43858 36.3327 17.9312 33.6905C24.3437 31.9092 29.6726 30.4174 29.7765 30.3803C30.103 30.2542 30.5187 29.8311 30.6968 29.4452C30.964 28.8811 30.9269 28.4581 30.5187 26.9885L30.1624 25.7194L31.5355 26.0088C32.4038 26.1944 33.0421 26.2909 33.2499 26.2686C33.8733 26.2167 34.4968 25.7936 34.7491 25.2444C34.905 24.9178 36.5601 17.1026 36.4858 17.0358C36.4562 17.0061 34.3558 16.5459 31.8175 16.0116L27.2011 15.0319L26.971 14.2155C26.6519 13.0725 26.4144 12.7163 25.7538 12.4194C25.1675 12.1522 24.8112 12.2042 22.3323 12.8944L20.0761 13.5252L15.1405 12.4788C12.4241 11.9073 10.0788 11.41 9.92295 11.3729C9.77452 11.3432 9.6335 11.3358 9.61866 11.3655ZM25.1452 13.8889C25.2269 13.9334 26.0804 16.7909 26.0284 16.8354C26.0136 16.8502 2.84249 23.2776 2.51592 23.3592C2.33038 23.4038 2.33038 23.4038 1.93702 21.9936C1.71436 21.1846 1.56592 20.5092 1.59561 20.4276C1.61788 20.3459 1.71436 20.2643 1.80342 20.2346C1.89249 20.2124 7.11006 18.7651 13.3964 17.0135C19.6827 15.2694 24.878 13.837 24.9374 13.8295C24.9968 13.8295 25.0933 13.8518 25.1452 13.8889ZM32.2405 18.0526C33.005 18.2159 33.6878 18.3792 33.7694 18.4237C33.9772 18.535 34.1405 18.8022 34.1405 19.0323C34.1405 19.1881 33.814 20.8358 33.5839 21.8303C33.5171 22.0975 33.146 22.4315 32.9011 22.4315C32.4706 22.4315 29.962 21.8526 29.769 21.7042C29.4128 21.4444 29.4128 21.3034 29.7542 19.7077C30.0733 18.201 30.1698 17.9413 30.4519 17.8299C30.7042 17.726 30.771 17.7334 32.2405 18.0526ZM28.1585 24.4354C28.7968 26.7436 29.3163 28.6659 29.3163 28.7178C29.3163 28.7698 29.2569 28.844 29.1827 28.8811C28.9304 29.0147 5.98936 35.353 5.84092 35.3307C5.75928 35.3159 5.6628 35.2565 5.63311 35.1971C5.49952 34.9745 3.27295 26.7733 3.32491 26.7288C3.42139 26.6397 26.9042 20.1456 26.9487 20.1975C26.9784 20.2198 27.5202 22.1272 28.1585 24.4354Z" fill="#A8A8A8"/>
<path d="M7.61484 28.8884C5.71484 29.4228 5.79648 29.3931 5.64062 29.6529C5.55898 29.7865 5.49219 29.9646 5.49219 30.0611C5.49219 30.1501 5.67773 30.8849 5.90039 31.6939C6.25664 32.9705 6.33086 33.1783 6.53125 33.3564C6.67969 33.4974 6.83555 33.5642 6.99883 33.5642C7.125 33.5642 7.88203 33.3861 8.67617 33.1634C10.3313 32.7033 10.5094 32.5919 10.4945 32.0576C10.4871 31.8869 10.309 31.115 10.0938 30.3431C9.63359 28.7251 9.54453 28.5916 8.98047 28.599C8.79492 28.599 8.18633 28.7326 7.61484 28.8884Z" fill="#A8A8A8"/>
</g>
<defs>
<clipPath id="clip0_109_379">
<rect width="38" height="38" fill="white" transform="translate(0 0.982178)"/>
</clipPath>
</defs>
</svg>
