<svg width="38" height="39" viewBox="0 0 38 39" fill="none" xmlns="http://www.w3.org/2000/svg">
<g clip-path="url(#clip0_248_413)">
<path d="M25.125 7.03281C23.818 7.28438 22.6039 8.01172 21.8492 8.99063C21.6305 9.26953 21.6086 9.28594 21.4719 9.23672C21.3898 9.20391 21.0781 9.12188 20.7773 9.04531C19.0602 8.62969 16.9328 8.65156 15.2047 9.10547C12.0984 9.92031 9.42969 12.0805 7.96406 14.9734C7.11641 16.6359 6.75 18.2 6.75 20.125C6.75 22.0555 7.11641 23.6141 7.96953 25.293C8.54922 26.4414 9.23281 27.3602 10.2062 28.3063C11.1305 29.2031 11.9289 29.7664 13.0883 30.3461C14.718 31.15 16.2437 31.5 18.125 31.5C20.0062 31.5 21.532 31.15 23.1617 30.3461C26.6234 28.6289 28.9641 25.3313 29.4398 21.4922C29.5273 20.8305 29.5109 19.2664 29.418 18.6047C29.3359 18.0086 29.15 17.1719 29.0297 16.8328L28.9586 16.6305L29.2594 16.4008C30.2055 15.6734 30.9273 14.5031 31.168 13.2945C31.2992 12.6602 31.2555 11.4133 31.0914 10.8336C30.5664 9.03984 29.2102 7.68359 27.4164 7.15859C27.0938 7.06563 26.8367 7.03828 26.1367 7.02734C25.6555 7.01641 25.2016 7.02188 25.125 7.03281ZM26.8203 8.88672C27.4328 9.05078 27.9086 9.33516 28.4062 9.83828C29.1391 10.5766 29.4453 11.3039 29.4453 12.2773C29.4453 13.2727 29.1336 14.0383 28.4609 14.7164C27.7445 15.4328 26.9516 15.7281 25.8469 15.6844C24.6984 15.6406 23.7852 15.1266 23.1289 14.1695C22.757 13.6281 22.593 13.1141 22.5656 12.4086C22.5383 11.7305 22.6203 11.3258 22.9102 10.7461C23.3477 9.84922 24.2555 9.11094 25.1906 8.88125C25.5898 8.78828 26.4539 8.78828 26.8203 8.88672ZM19.957 10.7078C20.2305 10.768 20.5477 10.8445 20.6734 10.8773L20.8977 10.9375L20.8156 11.3039C20.7172 11.7961 20.7555 13.0648 20.8867 13.5625C21.3898 15.4219 22.8281 16.8602 24.6875 17.3633C25.1852 17.4945 26.4539 17.5328 26.9461 17.4344L27.3125 17.3523L27.3672 17.5492C27.6187 18.4461 27.6625 18.8289 27.6625 20.125C27.6625 21.5797 27.6023 22.0008 27.2031 23.193C25.8414 27.2836 21.8164 29.9797 17.4961 29.6898C16.632 29.6297 15.9758 29.5039 15.1445 29.2305C12.268 28.2953 9.99297 26.0367 9.04688 23.193C8.64766 22.0008 8.5875 21.5797 8.5875 20.125C8.5875 18.993 8.59844 18.7688 8.70781 18.2656C9.58281 14.2352 12.6617 11.293 16.6977 10.6367C17.3977 10.5219 19.3008 10.5656 19.957 10.7078Z" fill="#53D633"/>
<path d="M17.8149 23.2845C18.3189 23.2845 18.7589 23.1805 19.1349 22.9725C19.5189 22.7565 19.8189 22.4405 20.0349 22.0245H21.6789C21.3669 22.8245 20.8669 23.4405 20.1789 23.8725C19.4909 24.3045 18.7029 24.5205 17.8149 24.5205C16.8789 24.5205 16.0469 24.2685 15.3189 23.7645C14.5909 23.2525 14.0829 22.5725 13.7949 21.7245H12.6909V20.7885H13.5789C13.5629 20.5645 13.5549 20.3885 13.5549 20.2605C13.5549 20.1325 13.5629 19.9565 13.5789 19.7325H12.6909V18.7965H13.7949C14.0829 17.9485 14.5909 17.2725 15.3189 16.7685C16.0469 16.2565 16.8789 16.0005 17.8149 16.0005C18.6949 16.0005 19.4789 16.2205 20.1669 16.6605C20.8629 17.0925 21.3669 17.7085 21.6789 18.5085H20.0349C19.8189 18.0925 19.5189 17.7805 19.1349 17.5725C18.7589 17.3565 18.3189 17.2485 17.8149 17.2485C17.2309 17.2485 16.7149 17.3845 16.2669 17.6565C15.8269 17.9285 15.4909 18.3085 15.2589 18.7965H17.8149V19.7325H14.9949C14.9709 19.9005 14.9589 20.0765 14.9589 20.2605C14.9589 20.4445 14.9709 20.6205 14.9949 20.7885H17.8149V21.7245H15.2589C15.4909 22.2205 15.8269 22.6045 16.2669 22.8765C16.7149 23.1485 17.2309 23.2845 17.8149 23.2845Z" fill="#53D633"/>
<path d="M25.7047 9.62485C25.6172 9.65219 25.4859 9.72875 25.4148 9.79985C25.1687 10.0295 25.125 10.1827 25.125 10.8006V11.3748H24.5125C23.7797 11.3748 23.5992 11.4514 23.4297 11.8288C23.293 12.1186 23.293 12.3811 23.4297 12.6709C23.5992 13.0483 23.7797 13.1248 24.5125 13.1248H25.125V13.7373C25.125 14.4702 25.2016 14.6506 25.5789 14.8202C25.8852 14.9623 26.1422 14.9569 26.4375 14.8038C26.7984 14.6233 26.8805 14.4373 26.9188 13.7209L26.9461 13.1248H27.5258C28.2148 13.1248 28.4062 13.0428 28.5703 12.6709C28.707 12.3811 28.707 12.1186 28.5703 11.8288C28.4062 11.4569 28.2148 11.3748 27.5203 11.3748H26.9297V10.9483C26.9242 10.2647 26.8203 9.96938 26.4867 9.72329C26.3281 9.60844 25.9234 9.55375 25.7047 9.62485Z" fill="#53D633"/>
</g>
<defs>
<clipPath id="clip0_248_413">
<rect y="0.25" width="38" height="38" rx="19" fill="white"/>
</clipPath>
</defs>
</svg>
