<svg width="37" height="39" viewBox="0 0 37 39" fill="none" xmlns="http://www.w3.org/2000/svg">
<path fill-rule="evenodd" clip-rule="evenodd" d="M18.5284 30.4487C24.6684 30.4487 29.6458 25.4713 29.6458 19.3314C29.6458 13.1915 24.6684 8.21411 18.5284 8.21411C12.3885 8.21411 7.41113 13.1915 7.41113 19.3314C7.41113 25.4713 12.3885 30.4487 18.5284 30.4487ZM20.2788 14.629V11.3947C22.9238 12.0272 27.7651 14.9481 25.9712 21.572L23.1681 20.0626C23.2688 18.5821 22.8318 15.4225 20.2788 14.629ZM24.4556 24.3995L21.6508 22.7888C19.6913 24.6076 16.7339 23.413 15.5001 22.5884L12.7953 24.2675C17.646 29.1219 22.5899 26.3782 24.4556 24.3995ZM14.1237 19.8594L11.3799 21.5719C10.5161 18.9933 10.4306 13.3396 16.9997 11.3543L17.2034 14.5314C15.8941 15.2299 13.4451 17.2735 14.1237 19.8594Z" fill="white"/>
<path fill-rule="evenodd" clip-rule="evenodd" d="M35.1409 6.64111V0.5H0.5V38.1627H35.1409V31.9492H36.5568V25.6607H35.1409V13.009H36.5568V6.64111H35.1409ZM4.51973 3.58081H32.6337V6.48419H31.1337V12.8715H32.6337V25.5978H31.1337V31.6464H32.6337V35.082H4.42297L4.51973 3.58081Z" fill="white"/>
</svg>
