<svg width="51" height="51" viewBox="0 0 51 51" fill="none" xmlns="http://www.w3.org/2000/svg">
<g clip-path="url(#clip0_140_1440)">
<path d="M11.1543 5.01367C8.13672 5.64844 5.72461 7.85547 4.77734 10.873C4.58203 11.5176 4.55273 11.8008 4.55273 13.2168C4.55273 14.6328 4.58203 14.916 4.77734 15.5605C5.64648 18.3145 7.70703 20.375 10.4609 21.2441C11.1055 21.4395 11.3887 21.4688 12.8047 21.4688C14.2207 21.4688 14.5039 21.4395 15.1484 21.2441C17.8926 20.3848 19.9727 18.3047 20.832 15.5605C21.0273 14.916 21.0566 14.6328 21.0566 13.2168C21.0566 11.8008 21.0273 11.5176 20.832 10.873C20.1387 8.67578 18.6543 6.85938 16.7109 5.85352C15.3242 5.14063 14.7383 4.99414 13.0488 4.95508C12.248 4.93555 11.3887 4.96485 11.1543 5.01367Z" fill="#FFC727"/>
<path d="M36.5449 5.01367C33.5273 5.64844 31.1152 7.85547 30.168 10.873C29.9727 11.5176 29.9434 11.8008 29.9434 13.2168C29.9434 14.6328 29.9727 14.916 30.168 15.5605C31.0371 18.3145 33.0977 20.375 35.8516 21.2441C36.4961 21.4395 36.7793 21.4688 38.1953 21.4688C39.6113 21.4688 39.8945 21.4395 40.5391 21.2441C43.2832 20.3848 45.3633 18.3047 46.2227 15.5605C46.418 14.916 46.4473 14.6328 46.4473 13.2168C46.4473 11.8008 46.418 11.5176 46.2227 10.873C45.5293 8.67578 44.0449 6.85938 42.1016 5.85352C40.7148 5.14063 40.1289 4.99414 38.4395 4.95508C37.6387 4.93555 36.7793 4.96485 36.5449 5.01367Z" fill="#FFC727"/>
<path d="M22.502 21.6055C25.1875 24.1934 26.6035 27.2402 26.8672 30.9902C26.916 31.6641 26.9551 35.5215 26.9648 39.5547V46.9082H34.0352H41.1152L41.1445 42.8262C41.1738 38.959 41.1836 38.7344 41.3691 38.4316C41.9355 37.4941 43.2441 37.4941 43.8105 38.4316C43.9961 38.7344 44.0059 38.959 44.0352 42.8262L44.0645 46.9082H46.2813C48.7227 46.9082 48.8301 46.8789 49.2402 46.2637C49.416 45.9902 49.4258 45.707 49.4258 40.8438V35.707L47.8926 35.6484C46.1055 35.5801 45.168 35.375 44.1621 34.8477C42.7754 34.1152 41.7012 33.0117 41.0273 31.625C40.5293 30.5996 40.3438 29.7891 40.3438 28.5977C40.3438 26.9668 40.793 25.6289 41.7891 24.3203C42.0625 23.959 42.2578 23.666 42.209 23.666C42.1699 23.666 41.877 23.7539 41.5742 23.8613C40.1191 24.3594 37.7754 24.5156 36.1934 24.2031C33.9961 23.7832 32.0527 22.7676 30.4219 21.2051L29.7285 20.541H25.5586H21.3887L22.502 21.6055Z" fill="#FFC727"/>
<path d="M18.5176 22.8066C17.9316 23.1777 17.1895 23.5098 16.2813 23.8223C14.2207 24.5254 11.418 24.5449 9.42578 23.8613C9.12305 23.7539 8.83008 23.666 8.79102 23.666C8.74219 23.666 8.92773 23.959 9.20117 24.3105C10.2266 25.668 10.6563 26.9375 10.6563 28.5977C10.6563 31.332 9.17188 33.6953 6.70117 34.8965C5.57813 35.4434 4.81641 35.5996 3.06836 35.6094L1.57422 35.6289V40.8047C1.57422 45.707 1.58398 45.9902 1.75977 46.2637C2.16992 46.8789 2.27734 46.9082 4.71875 46.9082H6.93555L6.96484 42.8262C6.99414 38.959 7.00391 38.7344 7.18945 38.4316C7.75586 37.4941 9.06445 37.4941 9.63086 38.4316C9.81641 38.7344 9.82617 38.959 9.85547 42.8262L9.88477 46.9082H16.9648H24.0449L24.0156 38.334L23.9766 29.7695L23.7129 28.8418C23.2344 27.2012 22.3945 25.6289 21.3008 24.3594C20.6367 23.5781 19.377 22.4941 19.1523 22.4941C19.0742 22.4941 18.791 22.6406 18.5176 22.8066Z" fill="#FFC727"/>
<path d="M2.45312 24.6231C2.18945 24.7207 1.7793 25.0235 1.42773 25.375C0.539062 26.2637 0.5 26.4297 0.5 29.3692C0.5 31.6153 0.509766 31.8203 0.695312 32.1133C1.05664 32.709 1.32031 32.7676 3.18555 32.7285C4.73828 32.6992 4.88477 32.6797 5.41211 32.4356C6.19336 32.0645 7.07227 31.2051 7.46289 30.4141C7.76562 29.7988 7.77539 29.7207 7.77539 28.5977C7.77539 27.4746 7.76562 27.3965 7.46289 26.7813C7.07227 25.9903 6.19336 25.1211 5.41211 24.7696C4.66992 24.4278 3.14648 24.3496 2.45312 24.6231Z" fill="#FFC727"/>
<path d="M45.9297 24.6426C45.6465 24.7403 45.2754 24.916 45.0898 25.0235C44.5625 25.3555 43.7715 26.2637 43.4883 26.8594C43.2539 27.377 43.2246 27.5332 43.2246 28.5977C43.2246 29.7207 43.2344 29.7988 43.5371 30.4141C43.9277 31.2051 44.8066 32.0645 45.5879 32.4356C46.1152 32.6797 46.2617 32.6992 47.8145 32.7285C49.6797 32.7676 49.9434 32.709 50.3047 32.1133C50.4902 31.8203 50.5 31.6153 50.5 29.3692C50.5 26.4297 50.4609 26.2637 49.5723 25.375C49.1621 24.9649 48.8398 24.7305 48.498 24.6133C47.834 24.3887 46.6133 24.3985 45.9297 24.6426Z" fill="#FFC727"/>
</g>
<defs>
<clipPath id="clip0_140_1440">
<rect width="50" height="50" fill="white" transform="translate(0.5 0.912109)"/>
</clipPath>
</defs>
</svg>
