<svg width="18" height="18" viewBox="0 0 18 18" fill="none" xmlns="http://www.w3.org/2000/svg">
<path d="M2.62233 0.776953C2.08796 0.903515 1.61335 1.41328 1.5114 1.97578C1.48679 2.09883 1.47976 3.93047 1.48327 7.18945L1.49382 12.2168L1.58171 12.375C1.63093 12.4594 1.73991 12.5789 1.82077 12.6387C1.9614 12.7336 2.00007 12.7441 2.24968 12.7441C2.49929 12.7441 2.53796 12.7336 2.67858 12.6387C2.75944 12.5789 2.86843 12.4594 2.91765 12.375L3.00554 12.2168L3.02311 7.48125L3.04069 2.74922L3.14616 2.59805C3.20944 2.50664 3.32194 2.41172 3.42741 2.35898L3.59968 2.26758L7.55827 2.25C11.9739 2.22891 11.6188 2.25352 11.8403 1.98281C12.1251 1.63828 12.0512 1.125 11.6786 0.861328L11.5239 0.755859L7.14343 0.748828C4.58405 0.748828 2.70319 0.759375 2.62233 0.776953Z" fill="#707070"/>
<path d="M5.63555 3.7793C5.18555 3.90234 4.8375 4.18711 4.63359 4.59492L4.51758 4.83398V10.4941V16.1543L4.61602 16.3617C4.80937 16.7801 5.1293 17.0613 5.55117 17.1914C5.76562 17.2582 5.88867 17.2617 10.125 17.2617C14.3613 17.2617 14.4844 17.2582 14.7023 17.1914C15.1242 17.0613 15.423 16.8012 15.6234 16.3828L15.7324 16.1543V10.4941V4.83398L15.6164 4.59492C15.4125 4.18008 15.0645 3.89883 14.6004 3.7793C14.3086 3.70195 5.9168 3.70547 5.63555 3.7793ZM13.8023 5.34023C13.9746 5.41758 14.1434 5.61445 14.1996 5.79727C14.2523 5.98008 14.2559 15.0012 14.1996 15.198C14.1539 15.3633 13.9641 15.5812 13.7883 15.6656C13.6652 15.7289 13.493 15.7324 10.125 15.7324C6.75703 15.7324 6.58477 15.7289 6.46172 15.6656C6.28594 15.5812 6.09609 15.3633 6.05039 15.198C5.99414 15.0012 5.99766 5.98008 6.05039 5.79727C6.10664 5.61445 6.26133 5.43867 6.44062 5.34727C6.5918 5.27344 6.59883 5.27344 10.125 5.27344C13.4859 5.27344 13.6652 5.27695 13.8023 5.34023Z" fill="#707070"/>
</svg>
