<svg width="319" height="171" viewBox="0 0 319 171" fill="none" xmlns="http://www.w3.org/2000/svg">
<path d="M1.54663 43.375L10.6369 76.3399C17.0167 99.4758 50.2767 98.1051 54.7311 74.5227L57.6851 58.8845C60.9726 41.4801 84.8574 38.9533 91.7138 55.2846L92.6235 57.4513C97.4791 69.0168 112.962 71.1328 120.743 61.2942V61.2942C128.543 51.4308 144.072 53.5876 148.889 65.2035L160.233 92.5562C165.864 106.134 184.055 108.576 193.068 96.9651L195.209 94.2069C202.156 85.2569 215.823 85.7195 222.149 95.1189V95.1189C230.075 106.896 248.162 103.972 251.973 90.2973L266.478 38.262C269.948 25.8134 287.176 24.7297 292.179 36.6453L296.176 46.1662C300.462 56.3744 315.49 54.3528 316.926 43.375V43.375" stroke="#23B371" stroke-width="3"/>
<path d="M136.303 55.5C136.303 60.401 132.897 64 129.124 64C125.352 64 121.946 60.401 121.946 55.5C121.946 50.599 125.352 47 129.124 47C132.897 47 136.303 50.599 136.303 55.5Z" fill="white" stroke="#23B371" stroke-width="3"/>
</svg>
