<svg width="111" height="16" viewBox="0 0 111 16" fill="none" xmlns="http://www.w3.org/2000/svg">
<g clip-path="url(#clip0_140_521)">
<path d="M6.15987 2.00775C5.16846 2.07338 4.21221 2.4226 3.41768 3.01557C2.3044 3.84525 1.58018 5.05932 1.38096 6.43979C1.35987 6.57807 1.34346 6.74916 1.34346 6.82182V6.95307L1.19112 7.04682C0.919243 7.22025 0.731743 7.47338 0.652056 7.77572C0.600493 7.96557 0.602837 9.58275 0.652056 9.77729C0.705962 9.98119 0.797368 10.1335 0.970806 10.3093C1.30596 10.6492 1.81221 10.7687 2.17549 10.5976C2.32081 10.5273 2.49893 10.3468 2.56924 10.1921C2.62081 10.082 2.62081 10.0679 2.62081 8.76947V7.45697L2.55518 7.32572C2.45206 7.11244 2.22706 6.93432 2.01377 6.89447L1.92471 6.87572L1.94112 6.69291C1.97862 6.24525 2.13799 5.67807 2.35127 5.22572C2.80127 4.27182 3.54659 3.51478 4.49581 3.05072C6.20909 2.21166 8.23877 2.51869 9.64268 3.83119C10.4278 4.56713 10.9646 5.65229 11.0606 6.70463L11.0771 6.87572L10.9856 6.89213C10.7724 6.93432 10.5474 7.11244 10.4442 7.32572L10.3786 7.45697V8.76947C10.3786 10.0656 10.3786 10.0843 10.4302 10.1921C10.5356 10.4195 10.8403 10.6562 11.0302 10.6562H11.0935V10.9773C11.0935 11.3429 11.0583 11.5234 10.9552 11.7296C10.8169 12.0015 10.5731 12.2054 10.2778 12.2968C10.1466 12.3367 10.0599 12.3437 9.61924 12.3437H9.11065L9.08252 12.2687C9.0333 12.1328 8.85518 11.9546 8.68409 11.8703L8.52705 11.7929H7.8708H7.21455L7.05987 11.8679C6.87471 11.9593 6.73174 12.107 6.64502 12.2921C6.59112 12.407 6.58174 12.4562 6.58174 12.6484C6.58409 12.8453 6.59112 12.8874 6.64971 13.0093C6.73174 13.1781 6.87706 13.3281 7.03409 13.4078C7.21455 13.4992 7.43018 13.5226 7.98799 13.5109C8.42627 13.5015 8.49424 13.4945 8.61377 13.4476C8.78018 13.382 8.99112 13.1968 9.06612 13.0445L9.12237 12.9343L9.71534 12.9249C10.2474 12.9156 10.3247 12.9085 10.4606 12.864C10.9271 12.707 11.2927 12.3929 11.4919 11.9804C11.6372 11.6781 11.6583 11.5679 11.6724 11.0359L11.6864 10.5601L11.7825 10.5109C12.0216 10.389 12.2911 10.0304 12.3567 9.74213C12.3966 9.57104 12.3896 7.93041 12.3474 7.77572C12.2677 7.47338 12.0802 7.22025 11.8083 7.04682L11.656 6.95307V6.82416C11.656 6.61791 11.588 6.19135 11.5013 5.8515C11.2786 4.98432 10.8263 4.1851 10.1958 3.5476C9.42237 2.76478 8.48487 2.26791 7.42549 2.07807C7.21221 2.03822 6.52549 1.97729 6.44112 1.989C6.4294 1.989 6.30284 1.99838 6.15987 2.00775ZM1.9294 7.4851C1.9669 7.50619 2.00674 7.54838 2.02081 7.57885C2.05831 7.66088 2.05596 9.88275 2.01846 9.96479C1.98799 10.0304 1.88956 10.0937 1.8169 10.0937C1.61299 10.0937 1.35518 9.91557 1.25909 9.70697C1.20284 9.59213 1.20284 9.58041 1.20284 8.76947C1.20284 7.95619 1.20284 7.94916 1.25909 7.83197C1.30831 7.7265 1.39034 7.6351 1.51456 7.539C1.55909 7.50619 1.74659 7.44994 1.81924 7.4476C1.84502 7.44525 1.89424 7.46166 1.9294 7.4851ZM11.4122 7.50385C11.5294 7.55307 11.6817 7.70541 11.7403 7.83197C11.7966 7.94682 11.7966 7.95854 11.7966 8.76947C11.7966 9.58041 11.7966 9.59213 11.7403 9.70697C11.6442 9.91557 11.3864 10.0937 11.1825 10.0937C11.1099 10.0937 11.0114 10.0304 10.981 9.96479C10.9388 9.87104 10.9435 7.64213 10.9856 7.56479C11.0513 7.44525 11.2153 7.42182 11.4122 7.50385ZM8.44034 12.414C8.48252 12.4398 8.53409 12.496 8.55518 12.5429C8.60674 12.6531 8.56924 12.789 8.46143 12.864C8.39112 12.9156 8.36299 12.9179 7.91768 12.9249C7.37627 12.9343 7.29424 12.9179 7.20752 12.789C7.11377 12.6531 7.17705 12.4538 7.33174 12.3906C7.35752 12.3788 7.60127 12.3695 7.8708 12.3695C8.32315 12.3671 8.37002 12.3718 8.44034 12.414Z" fill="black"/>
<path d="M4.38125 4.76408C4.07187 4.83908 3.77187 5.07111 3.62422 5.35002C3.47891 5.62189 3.47656 5.65471 3.47656 7.13127C3.47656 7.92346 3.48594 8.52111 3.5 8.59611C3.5375 8.79299 3.67812 9.05549 3.82812 9.20549C4.025 9.40471 4.3625 9.55471 4.60625 9.55471H4.69531V9.93439C4.69531 10.2672 4.70234 10.3305 4.74453 10.4219C4.83828 10.6305 5.00469 10.7453 5.23906 10.7664C5.4875 10.7899 5.52734 10.7617 6.17891 10.1242L6.7625 9.55471H7.62266C8.30937 9.55471 8.50859 9.54768 8.61641 9.51955C9.05234 9.40705 9.38516 9.06955 9.48828 8.6383C9.53984 8.41564 9.53984 5.86564 9.48828 5.64299C9.3875 5.21408 9.03594 4.86252 8.60703 4.76174C8.39141 4.71252 4.59219 4.71252 4.38125 4.76408ZM8.52734 5.35236C8.67969 5.40392 8.84609 5.57033 8.89766 5.72268C8.93281 5.82346 8.9375 5.98518 8.9375 7.14064C8.9375 8.57502 8.9375 8.56799 8.79453 8.74143C8.75469 8.7883 8.67266 8.85627 8.61406 8.89377L8.50391 8.95705L7.50781 8.97111C6.95937 8.97814 6.50703 8.98518 6.5 8.98752C6.49531 8.98986 6.21875 9.26408 5.88594 9.59455L5.28125 10.1969V9.71174C5.28125 9.00393 5.27187 8.98986 4.78906 8.96877C4.52187 8.95705 4.48203 8.94768 4.38594 8.89143C4.325 8.85627 4.24531 8.7883 4.20547 8.74143C4.0625 8.56799 4.0625 8.57502 4.0625 7.14064C4.0625 5.65236 4.05781 5.68986 4.25 5.49767C4.44219 5.30549 4.32031 5.31721 6.49062 5.31486C8.22734 5.31252 8.42422 5.31721 8.52734 5.35236Z" fill="black"/>
<path d="M4.925 6.81248C4.77734 6.89217 4.73047 6.98358 4.73047 7.18748C4.73047 7.33514 4.73984 7.37498 4.78437 7.44061C4.96719 7.69608 5.38672 7.65389 5.51797 7.36561C5.60234 7.18045 5.54844 6.96952 5.38672 6.8453C5.26953 6.75623 5.05625 6.74217 4.925 6.81248Z" fill="black"/>
<path d="M6.32386 6.79844C6.28636 6.81719 6.22542 6.85938 6.19027 6.89687C5.93714 7.16875 6.12933 7.60938 6.4973 7.60938C6.86995 7.60938 7.06214 7.16875 6.80902 6.89687C6.68948 6.77031 6.48089 6.72812 6.32386 6.79844Z" fill="black"/>
<path d="M7.68359 6.79844C7.54766 6.85938 7.4375 7.03516 7.4375 7.19219C7.43984 7.30703 7.51484 7.45469 7.61562 7.52969C7.69297 7.58828 7.72344 7.59766 7.85937 7.59766C8.14297 7.59766 8.29531 7.43594 8.27656 7.15469C8.26719 6.98125 8.20391 6.88047 8.07031 6.8125C7.96484 6.75859 7.78906 6.75156 7.68359 6.79844Z" fill="black"/>
</g>
<path d="M17.87 7.76C17.87 7.08 18.0267 6.47 18.34 5.93C18.66 5.39 19.09 4.97 19.63 4.67C20.1767 4.36333 20.7733 4.21 21.42 4.21C22.16 4.21 22.8167 4.39333 23.39 4.76C23.97 5.12 24.39 5.63333 24.65 6.3H23.28C23.1 5.93333 22.85 5.66 22.53 5.48C22.21 5.3 21.84 5.21 21.42 5.21C20.96 5.21 20.55 5.31333 20.19 5.52C19.83 5.72667 19.5467 6.02333 19.34 6.41C19.14 6.79667 19.04 7.24667 19.04 7.76C19.04 8.27333 19.14 8.72333 19.34 9.11C19.5467 9.49667 19.83 9.79667 20.19 10.01C20.55 10.2167 20.96 10.32 21.42 10.32C21.84 10.32 22.21 10.23 22.53 10.05C22.85 9.87 23.1 9.59667 23.28 9.23H24.65C24.39 9.89667 23.97 10.41 23.39 10.77C22.8167 11.13 22.16 11.31 21.42 11.31C20.7667 11.31 20.17 11.16 19.63 10.86C19.09 10.5533 18.66 10.13 18.34 9.59C18.0267 9.05 17.87 8.44 17.87 7.76ZM30.9744 5.74V11.25H29.8344V10.6C29.6544 10.8267 29.4177 11.0067 29.1244 11.14C28.8377 11.2667 28.531 11.33 28.2044 11.33C27.771 11.33 27.381 11.24 27.0344 11.06C26.6944 10.88 26.4244 10.6133 26.2244 10.26C26.031 9.90667 25.9344 9.48 25.9344 8.98V5.74H27.0644V8.81C27.0644 9.30333 27.1877 9.68333 27.4344 9.95C27.681 10.21 28.0177 10.34 28.4444 10.34C28.871 10.34 29.2077 10.21 29.4544 9.95C29.7077 9.68333 29.8344 9.30333 29.8344 8.81V5.74H30.9744ZM34.4785 11.34C34.0452 11.34 33.6552 11.2633 33.3085 11.11C32.9685 10.95 32.6985 10.7367 32.4985 10.47C32.2985 10.1967 32.1918 9.89333 32.1785 9.56H33.3585C33.3785 9.79333 33.4885 9.99 33.6885 10.15C33.8952 10.3033 34.1518 10.38 34.4585 10.38C34.7785 10.38 35.0252 10.32 35.1985 10.2C35.3785 10.0733 35.4685 9.91333 35.4685 9.72C35.4685 9.51333 35.3685 9.36 35.1685 9.26C34.9752 9.16 34.6652 9.05 34.2385 8.93C33.8252 8.81667 33.4885 8.70667 33.2285 8.6C32.9685 8.49333 32.7418 8.33 32.5485 8.11C32.3618 7.89 32.2685 7.6 32.2685 7.24C32.2685 6.94667 32.3552 6.68 32.5285 6.44C32.7018 6.19333 32.9485 6 33.2685 5.86C33.5952 5.72 33.9685 5.65 34.3885 5.65C35.0152 5.65 35.5185 5.81 35.8985 6.13C36.2852 6.44333 36.4918 6.87333 36.5185 7.42H35.3785C35.3585 7.17333 35.2585 6.97667 35.0785 6.83C34.8985 6.68333 34.6552 6.61 34.3485 6.61C34.0485 6.61 33.8185 6.66667 33.6585 6.78C33.4985 6.89333 33.4185 7.04333 33.4185 7.23C33.4185 7.37667 33.4718 7.5 33.5785 7.6C33.6852 7.7 33.8152 7.78 33.9685 7.84C34.1218 7.89333 34.3485 7.96333 34.6485 8.05C35.0485 8.15667 35.3752 8.26667 35.6285 8.38C35.8885 8.48667 36.1118 8.64667 36.2985 8.86C36.4852 9.07333 36.5818 9.35667 36.5885 9.71C36.5885 10.0233 36.5018 10.3033 36.3285 10.55C36.1552 10.7967 35.9085 10.99 35.5885 11.13C35.2752 11.27 34.9052 11.34 34.4785 11.34ZM39.1503 6.67V9.72C39.1503 9.92667 39.197 10.0767 39.2903 10.17C39.3903 10.2567 39.557 10.3 39.7903 10.3H40.4903V11.25H39.5903C39.077 11.25 38.6836 11.13 38.4103 10.89C38.137 10.65 38.0003 10.26 38.0003 9.72V6.67H37.3503V5.74H38.0003V4.37H39.1503V5.74H40.4903V6.67H39.1503ZM43.931 11.34C43.411 11.34 42.941 11.2233 42.521 10.99C42.101 10.75 41.771 10.4167 41.531 9.99C41.291 9.55667 41.171 9.05667 41.171 8.49C41.171 7.93 41.2943 7.43333 41.541 7C41.7877 6.56667 42.1243 6.23333 42.551 6C42.9777 5.76667 43.4543 5.65 43.981 5.65C44.5077 5.65 44.9843 5.76667 45.411 6C45.8377 6.23333 46.1743 6.56667 46.421 7C46.6677 7.43333 46.791 7.93 46.791 8.49C46.791 9.05 46.6643 9.54667 46.411 9.98C46.1577 10.4133 45.811 10.75 45.371 10.99C44.9377 11.2233 44.4577 11.34 43.931 11.34ZM43.931 10.35C44.2243 10.35 44.4977 10.28 44.751 10.14C45.011 10 45.221 9.79 45.381 9.51C45.541 9.23 45.621 8.89 45.621 8.49C45.621 8.09 45.5443 7.75333 45.391 7.48C45.2377 7.2 45.0343 6.99 44.781 6.85C44.5277 6.71 44.2543 6.64 43.961 6.64C43.6677 6.64 43.3943 6.71 43.141 6.85C42.8943 6.99 42.6977 7.2 42.551 7.48C42.4043 7.75333 42.331 8.09 42.331 8.49C42.331 9.08333 42.481 9.54333 42.781 9.87C43.0877 10.19 43.471 10.35 43.931 10.35ZM54.588 5.65C55.0213 5.65 55.408 5.74 55.748 5.92C56.0946 6.1 56.3646 6.36667 56.558 6.72C56.758 7.07333 56.858 7.5 56.858 8V11.25H55.728V8.17C55.728 7.67667 55.6046 7.3 55.358 7.04C55.1113 6.77333 54.7746 6.64 54.348 6.64C53.9213 6.64 53.5813 6.77333 53.328 7.04C53.0813 7.3 52.958 7.67667 52.958 8.17V11.25H51.828V8.17C51.828 7.67667 51.7046 7.3 51.458 7.04C51.2113 6.77333 50.8746 6.64 50.448 6.64C50.0213 6.64 49.6813 6.77333 49.428 7.04C49.1813 7.3 49.058 7.67667 49.058 8.17V11.25H47.918V5.74H49.058V6.37C49.2446 6.14333 49.4813 5.96667 49.768 5.84C50.0546 5.71333 50.3613 5.65 50.688 5.65C51.128 5.65 51.5213 5.74333 51.868 5.93C52.2146 6.11667 52.4813 6.38667 52.668 6.74C52.8346 6.40667 53.0946 6.14333 53.448 5.95C53.8013 5.75 54.1813 5.65 54.588 5.65ZM63.3586 8.36C63.3586 8.56667 63.3453 8.75333 63.3186 8.92H59.1086C59.1419 9.36 59.3053 9.71333 59.5986 9.98C59.8919 10.2467 60.2519 10.38 60.6786 10.38C61.2919 10.38 61.7253 10.1233 61.9786 9.61H63.2086C63.0419 10.1167 62.7386 10.5333 62.2986 10.86C61.8653 11.18 61.3253 11.34 60.6786 11.34C60.1519 11.34 59.6786 11.2233 59.2586 10.99C58.8453 10.75 58.5186 10.4167 58.2786 9.99C58.0453 9.55667 57.9286 9.05667 57.9286 8.49C57.9286 7.92333 58.0419 7.42667 58.2686 7C58.5019 6.56667 58.8253 6.23333 59.2386 6C59.6586 5.76667 60.1386 5.65 60.6786 5.65C61.1986 5.65 61.6619 5.76333 62.0686 5.99C62.4753 6.21667 62.7919 6.53667 63.0186 6.95C63.2453 7.35667 63.3586 7.82667 63.3586 8.36ZM62.1686 8C62.1619 7.58 62.0119 7.24333 61.7186 6.99C61.4253 6.73667 61.0619 6.61 60.6286 6.61C60.2353 6.61 59.8986 6.73667 59.6186 6.99C59.3386 7.23667 59.1719 7.57333 59.1186 8H62.1686ZM65.6205 6.54C65.7871 6.26 66.0071 6.04333 66.2805 5.89C66.5605 5.73 66.8905 5.65 67.2705 5.65V6.83H66.9805C66.5338 6.83 66.1938 6.94333 65.9605 7.17C65.7338 7.39667 65.6205 7.79 65.6205 8.35V11.25H64.4805V5.74H65.6205V6.54ZM73.206 11.32C72.7393 11.32 72.3193 11.24 71.946 11.08C71.5727 10.9133 71.2793 10.68 71.066 10.38C70.8527 10.08 70.746 9.73 70.746 9.33H71.966C71.9927 9.63 72.1093 9.87667 72.316 10.07C72.5293 10.2633 72.826 10.36 73.206 10.36C73.5993 10.36 73.906 10.2667 74.126 10.08C74.346 9.88667 74.456 9.64 74.456 9.34C74.456 9.10667 74.386 8.91667 74.246 8.77C74.1127 8.62333 73.9427 8.51 73.736 8.43C73.536 8.35 73.256 8.26333 72.896 8.17C72.4427 8.05 72.0727 7.93 71.786 7.81C71.506 7.68333 71.266 7.49 71.066 7.23C70.866 6.97 70.766 6.62333 70.766 6.19C70.766 5.79 70.866 5.44 71.066 5.14C71.266 4.84 71.546 4.61 71.906 4.45C72.266 4.29 72.6827 4.21 73.156 4.21C73.8293 4.21 74.3793 4.38 74.806 4.72C75.2393 5.05333 75.4793 5.51333 75.526 6.1H74.266C74.246 5.84667 74.126 5.63 73.906 5.45C73.686 5.27 73.396 5.18 73.036 5.18C72.7093 5.18 72.4427 5.26333 72.236 5.43C72.0293 5.59667 71.926 5.83667 71.926 6.15C71.926 6.36333 71.9893 6.54 72.116 6.68C72.2493 6.81333 72.416 6.92 72.616 7C72.816 7.08 73.0893 7.16667 73.436 7.26C73.896 7.38667 74.2693 7.51333 74.556 7.64C74.8493 7.76667 75.096 7.96333 75.296 8.23C75.5027 8.49 75.606 8.84 75.606 9.28C75.606 9.63333 75.5093 9.96667 75.316 10.28C75.1293 10.5933 74.8527 10.8467 74.486 11.04C74.126 11.2267 73.6993 11.32 73.206 11.32ZM81.9412 5.74V11.25H80.8012V10.6C80.6212 10.8267 80.3845 11.0067 80.0912 11.14C79.8045 11.2667 79.4978 11.33 79.1712 11.33C78.7378 11.33 78.3478 11.24 78.0012 11.06C77.6612 10.88 77.3912 10.6133 77.1912 10.26C76.9978 9.90667 76.9012 9.48 76.9012 8.98V5.74H78.0312V8.81C78.0312 9.30333 78.1545 9.68333 78.4012 9.95C78.6478 10.21 78.9845 10.34 79.4112 10.34C79.8378 10.34 80.1745 10.21 80.4212 9.95C80.6745 9.68333 80.8012 9.30333 80.8012 8.81V5.74H81.9412ZM84.5853 6.55C84.7786 6.29667 85.042 6.08333 85.3753 5.91C85.7086 5.73667 86.0853 5.65 86.5053 5.65C86.9853 5.65 87.422 5.77 87.8153 6.01C88.2153 6.24333 88.5286 6.57333 88.7553 7C88.982 7.42667 89.0953 7.91667 89.0953 8.47C89.0953 9.02333 88.982 9.52 88.7553 9.96C88.5286 10.3933 88.2153 10.7333 87.8153 10.98C87.422 11.22 86.9853 11.34 86.5053 11.34C86.0853 11.34 85.712 11.2567 85.3853 11.09C85.0586 10.9167 84.792 10.7033 84.5853 10.45V13.87H83.4453V5.74H84.5853V6.55ZM87.9353 8.47C87.9353 8.09 87.8553 7.76333 87.6953 7.49C87.542 7.21 87.3353 7 87.0753 6.86C86.822 6.71333 86.5486 6.64 86.2553 6.64C85.9686 6.64 85.6953 6.71333 85.4353 6.86C85.182 7.00667 84.9753 7.22 84.8153 7.5C84.662 7.78 84.5853 8.11 84.5853 8.49C84.5853 8.87 84.662 9.20333 84.8153 9.49C84.9753 9.77 85.182 9.98333 85.4353 10.13C85.6953 10.2767 85.9686 10.35 86.2553 10.35C86.5486 10.35 86.822 10.2767 87.0753 10.13C87.3353 9.97667 87.542 9.75667 87.6953 9.47C87.8553 9.18333 87.9353 8.85 87.9353 8.47ZM91.3627 6.55C91.556 6.29667 91.8193 6.08333 92.1527 5.91C92.486 5.73667 92.8627 5.65 93.2827 5.65C93.7627 5.65 94.1993 5.77 94.5927 6.01C94.9927 6.24333 95.306 6.57333 95.5327 7C95.7593 7.42667 95.8727 7.91667 95.8727 8.47C95.8727 9.02333 95.7593 9.52 95.5327 9.96C95.306 10.3933 94.9927 10.7333 94.5927 10.98C94.1993 11.22 93.7627 11.34 93.2827 11.34C92.8627 11.34 92.4893 11.2567 92.1627 11.09C91.836 10.9167 91.5693 10.7033 91.3627 10.45V13.87H90.2227V5.74H91.3627V6.55ZM94.7127 8.47C94.7127 8.09 94.6327 7.76333 94.4727 7.49C94.3193 7.21 94.1127 7 93.8527 6.86C93.5993 6.71333 93.326 6.64 93.0327 6.64C92.746 6.64 92.4727 6.71333 92.2127 6.86C91.9593 7.00667 91.7527 7.22 91.5927 7.5C91.4393 7.78 91.3627 8.11 91.3627 8.49C91.3627 8.87 91.4393 9.20333 91.5927 9.49C91.7527 9.77 91.9593 9.98333 92.2127 10.13C92.4727 10.2767 92.746 10.35 93.0327 10.35C93.326 10.35 93.5993 10.2767 93.8527 10.13C94.1127 9.97667 94.3193 9.75667 94.4727 9.47C94.6327 9.18333 94.7127 8.85 94.7127 8.47ZM99.39 11.34C98.87 11.34 98.4 11.2233 97.98 10.99C97.56 10.75 97.23 10.4167 96.99 9.99C96.75 9.55667 96.63 9.05667 96.63 8.49C96.63 7.93 96.7533 7.43333 97 7C97.2467 6.56667 97.5833 6.23333 98.01 6C98.4367 5.76667 98.9133 5.65 99.44 5.65C99.9667 5.65 100.443 5.76667 100.87 6C101.297 6.23333 101.633 6.56667 101.88 7C102.127 7.43333 102.25 7.93 102.25 8.49C102.25 9.05 102.123 9.54667 101.87 9.98C101.617 10.4133 101.27 10.75 100.83 10.99C100.397 11.2233 99.9167 11.34 99.39 11.34ZM99.39 10.35C99.6833 10.35 99.9567 10.28 100.21 10.14C100.47 10 100.68 9.79 100.84 9.51C101 9.23 101.08 8.89 101.08 8.49C101.08 8.09 101.003 7.75333 100.85 7.48C100.697 7.2 100.493 6.99 100.24 6.85C99.9867 6.71 99.7133 6.64 99.42 6.64C99.1267 6.64 98.8533 6.71 98.6 6.85C98.3533 6.99 98.1567 7.2 98.01 7.48C97.8633 7.75333 97.79 8.09 97.79 8.49C97.79 9.08333 97.94 9.54333 98.24 9.87C98.5467 10.19 98.93 10.35 99.39 10.35ZM104.517 6.54C104.684 6.26 104.904 6.04333 105.177 5.89C105.457 5.73 105.787 5.65 106.167 5.65V6.83H105.877C105.43 6.83 105.09 6.94333 104.857 7.17C104.63 7.39667 104.517 7.79 104.517 8.35V11.25H103.377V5.74H104.517V6.54ZM108.545 6.67V9.72C108.545 9.92667 108.592 10.0767 108.685 10.17C108.785 10.2567 108.952 10.3 109.185 10.3H109.885V11.25H108.985C108.472 11.25 108.078 11.13 107.805 10.89C107.532 10.65 107.395 10.26 107.395 9.72V6.67H106.745V5.74H107.395V4.37H108.545V5.74H109.885V6.67H108.545Z" fill="black"/>
<defs>
<clipPath id="clip0_140_521">
<rect width="12" height="12" fill="white" transform="translate(0.5 1.75)"/>
</clipPath>
</defs>
</svg>
