<svg width="20" height="20" viewBox="0 0 20 20" fill="none" xmlns="http://www.w3.org/2000/svg">
<g opacity="0.3" clip-path="url(#clip0_252_1047)">
<path d="M17.2656 0.128906C16.8359 0.273438 16.6445 0.417969 15.9375 1.11719L15.2539 1.79688L16.75 3.28906L18.2461 4.78516L18.9375 4.08203C19.6641 3.34766 19.8047 3.14844 19.9375 2.69922C20.0156 2.43359 20.0195 1.85156 19.9414 1.56641C19.7578 0.871094 19.1172 0.238281 18.4375 0.0820312C18.1211 0.0078125 17.5508 0.03125 17.2656 0.128906Z" fill="black"/>
<path d="M11.043 6.00777C9.20311 7.84762 7.6953 9.36715 7.6953 9.37496C7.6953 9.38668 7.55468 10.1015 7.3828 10.957C7.19921 11.8711 7.07811 12.5625 7.08983 12.625C7.12108 12.7578 7.27733 12.914 7.41405 12.9414C7.5078 12.9609 10.3086 12.4336 10.6055 12.3437C10.6836 12.3164 11.8281 11.1992 14.0625 8.9648L17.4023 5.62496L15.918 4.14058C15.1016 3.32418 14.4258 2.65621 14.4141 2.65621C14.4023 2.65621 12.8867 4.16402 11.043 6.00777Z" fill="black"/>
<path d="M1.89451 3.42199C1.20311 3.58996 0.570293 4.10168 0.253887 4.74621C-0.0156447 5.29308 -1.96866e-05 4.82824 -1.96866e-05 11.7111C-1.96866e-05 18.6759 -0.0234572 18.1368 0.285137 18.7306C0.523418 19.1915 0.890605 19.5431 1.3867 19.7892L1.76951 19.9806L8.25779 19.9923C14.7148 20.0001 14.7422 20.0001 14.9844 19.922C15.7812 19.6564 16.4492 18.9103 16.6211 18.0939C16.6679 17.879 16.6797 17.2071 16.6797 14.254V10.6798L16.5781 10.4728C16.4297 10.1798 16.2422 10.0626 15.8789 10.047C15.582 10.0314 15.4258 10.0782 15.2422 10.2501C15.0078 10.4611 15.0195 10.2384 15 14.1407C14.9804 17.5196 14.9765 17.7228 14.9062 17.8595C14.8086 18.0587 14.5664 18.2696 14.3828 18.3204C14.2734 18.3478 12.3906 18.3556 8.25389 18.3517L2.28514 18.34L2.10154 18.2306C1.98045 18.1603 1.87889 18.0587 1.80857 17.9376L1.6992 17.754L1.68748 11.7853C1.67967 7.51574 1.69139 5.76574 1.72264 5.65246C1.78514 5.40637 2.08201 5.13683 2.33982 5.08215C2.48045 5.0509 3.61326 5.03918 5.97264 5.03918H9.40232L9.5742 4.94933C9.66795 4.89855 9.80076 4.78137 9.86326 4.69152C9.96873 4.53918 9.98045 4.49621 9.98045 4.20324C9.98045 3.91027 9.96873 3.8634 9.86717 3.71886C9.79685 3.6173 9.68357 3.51965 9.55857 3.45715L9.35935 3.35949L5.74607 3.3634C2.73045 3.3673 2.08982 3.37511 1.89451 3.42199Z" fill="black"/>
</g>
<defs>
<clipPath id="clip0_252_1047">
<rect width="20" height="20" fill="white"/>
</clipPath>
</defs>
</svg>
