<svg width="24" height="24" viewBox="0 0 24 24" fill="none" xmlns="http://www.w3.org/2000/svg">
<path fill-rule="evenodd" clip-rule="evenodd" d="M4.28069 0.87571C2.76049 1.19926 1.47246 2.26661 0.84847 3.71985C0.44871 4.651 0.461681 4.33885 0.482399 12.5176C0.503357 20.791 0.466065 20.1042 0.948635 21.1096C1.41919 22.0899 2.21439 22.8852 3.19508 23.3562C4.20556 23.8414 3.53749 23.8072 11.9972 23.8072C20.457 23.8072 19.7889 23.8414 20.7994 23.3562C21.78 22.8852 22.575 22.0902 23.046 21.1096C23.5171 20.1287 23.497 20.3814 23.497 15.4195C23.497 11.0446 23.4956 10.9933 23.3732 10.8293C23.138 10.5142 22.946 10.4158 22.5662 10.4158C22.1865 10.4158 21.9946 10.5141 21.7593 10.8292C21.6376 10.9921 21.6349 11.0706 21.604 15.2993C21.569 20.1029 21.5898 19.868 21.1365 20.5694C20.8678 20.9851 20.4321 21.3879 20.0302 21.592C19.3813 21.9216 19.5727 21.914 11.9672 21.9113C5.52422 21.9089 4.90846 21.9001 4.54605 21.8055C3.81535 21.6147 3.19833 21.1407 2.78662 20.4538C2.37521 19.7673 2.38908 20.052 2.38908 12.3074C2.38908 4.56236 2.37515 4.8473 2.78686 4.1611C3.05973 3.70621 3.29759 3.45808 3.73578 3.17098C4.43207 2.71483 4.198 2.73573 9.00538 2.70066C13.2341 2.66979 13.3126 2.66709 13.4755 2.54543C13.7905 2.31009 13.8888 2.11822 13.8888 1.73846C13.8888 1.3587 13.7905 1.16678 13.4754 0.931496C13.3119 0.809353 13.2505 0.807551 9.00532 0.796982C5.39097 0.787975 4.63367 0.800586 4.28069 0.87571ZM19.954 0.86502C19.5478 0.969329 19.2838 1.09135 18.9684 1.32051C18.8228 1.42644 16.357 3.82361 13.489 6.64751C9.28894 10.783 8.26195 11.8243 8.21036 11.9997C8.16959 12.1382 8.15314 12.8215 8.16515 13.8795C8.18292 15.4487 8.19091 15.5509 8.30783 15.7073C8.37593 15.7985 8.50618 15.9288 8.59733 15.9969C8.75377 16.1138 8.85597 16.1218 10.4252 16.1395C11.4871 16.1516 12.1662 16.1352 12.3059 16.0941C12.4824 16.0421 13.5168 15.0218 17.6823 10.7907C20.519 7.90924 22.9216 5.4301 23.0213 5.28147C23.6088 4.40563 23.6867 3.36404 23.2369 2.39902C23.0432 1.98365 22.3422 1.27042 21.9485 1.08817C21.2952 0.785753 20.5758 0.705285 19.954 0.86502ZM20.2699 2.80593C20.1278 2.87144 18.2159 4.70672 15.0636 7.80361L10.0817 12.6978L10.0786 13.4634L10.0756 14.2291L10.8413 14.2261L11.6069 14.2231L16.5011 9.24268C21.6721 3.98047 21.6686 3.98431 21.5832 3.53237C21.5216 3.20605 21.3245 2.94242 21.0487 2.81722C20.7355 2.67502 20.5594 2.6725 20.2699 2.80593Z" fill="#FFAF00"/>
</svg>
