<svg width="149" height="72" viewBox="0 0 149 72" fill="none" xmlns="http://www.w3.org/2000/svg">
<g filter="url(#filter0_d_6_510)">
<rect x="14.5" y="14" width="120" height="44" rx="10" fill="#1877F2" shape-rendering="crispEdges"/>
<path d="M49.0834 27.6666H46.5834C45.4783 27.6666 44.4185 28.1056 43.6371 28.887C42.8557 29.6684 42.4167 30.7282 42.4167 31.8333V34.3333H39.9167V37.6666H42.4167V44.3333H45.75V37.6666H48.25L49.0834 34.3333H45.75V31.8333C45.75 31.6123 45.8378 31.4003 45.9941 31.244C46.1504 31.0878 46.3623 31 46.5834 31H49.0834V27.6666Z" fill="white"/>
<path d="M69.6807 32.52V33.65H66.7707V35.44H69.0007V36.55H66.7707V39.5H65.3707V32.52H69.6807ZM70.3134 36.71C70.3134 36.15 70.4234 35.6533 70.6434 35.22C70.8701 34.7867 71.1734 34.4533 71.5534 34.22C71.9401 33.9867 72.3701 33.87 72.8434 33.87C73.2567 33.87 73.6167 33.9533 73.9234 34.12C74.2367 34.2867 74.4867 34.4967 74.6734 34.75V33.96H76.0834V39.5H74.6734V38.69C74.4934 38.95 74.2434 39.1667 73.9234 39.34C73.6101 39.5067 73.2467 39.59 72.8334 39.59C72.3667 39.59 71.9401 39.47 71.5534 39.23C71.1734 38.99 70.8701 38.6533 70.6434 38.22C70.4234 37.78 70.3134 37.2767 70.3134 36.71ZM74.6734 36.73C74.6734 36.39 74.6067 36.1 74.4734 35.86C74.3401 35.6133 74.1601 35.4267 73.9334 35.3C73.7067 35.1667 73.4634 35.1 73.2034 35.1C72.9434 35.1 72.7034 35.1633 72.4834 35.29C72.2634 35.4167 72.0834 35.6033 71.9434 35.85C71.8101 36.09 71.7434 36.3767 71.7434 36.71C71.7434 37.0433 71.8101 37.3367 71.9434 37.59C72.0834 37.8367 72.2634 38.0267 72.4834 38.16C72.7101 38.2933 72.9501 38.36 73.2034 38.36C73.4634 38.36 73.7067 38.2967 73.9334 38.17C74.1601 38.0367 74.3401 37.85 74.4734 37.61C74.6067 37.3633 74.6734 37.07 74.6734 36.73ZM77.0907 36.73C77.0907 36.1567 77.2074 35.6567 77.4407 35.23C77.6741 34.7967 77.9974 34.4633 78.4107 34.23C78.8241 33.99 79.2974 33.87 79.8307 33.87C80.5174 33.87 81.0841 34.0433 81.5307 34.39C81.9841 34.73 82.2874 35.21 82.4407 35.83H80.9307C80.8507 35.59 80.7141 35.4033 80.5207 35.27C80.3341 35.13 80.1007 35.06 79.8207 35.06C79.4207 35.06 79.1041 35.2067 78.8707 35.5C78.6374 35.7867 78.5207 36.1967 78.5207 36.73C78.5207 37.2567 78.6374 37.6667 78.8707 37.96C79.1041 38.2467 79.4207 38.39 79.8207 38.39C80.3874 38.39 80.7574 38.1367 80.9307 37.63H82.4407C82.2874 38.23 81.9841 38.7067 81.5307 39.06C81.0774 39.4133 80.5107 39.59 79.8307 39.59C79.2974 39.59 78.8241 39.4733 78.4107 39.24C77.9974 39 77.6741 38.6667 77.4407 38.24C77.2074 37.8067 77.0907 37.3033 77.0907 36.73ZM88.6164 36.61C88.6164 36.81 88.603 36.99 88.5764 37.15H84.5264C84.5597 37.55 84.6997 37.8633 84.9464 38.09C85.193 38.3167 85.4964 38.43 85.8564 38.43C86.3764 38.43 86.7464 38.2067 86.9664 37.76H88.4764C88.3164 38.2933 88.0097 38.7333 87.5564 39.08C87.103 39.42 86.5464 39.59 85.8864 39.59C85.353 39.59 84.873 39.4733 84.4464 39.24C84.0264 39 83.6964 38.6633 83.4564 38.23C83.223 37.7967 83.1064 37.2967 83.1064 36.73C83.1064 36.1567 83.223 35.6533 83.4564 35.22C83.6897 34.7867 84.0164 34.4533 84.4364 34.22C84.8564 33.9867 85.3397 33.87 85.8864 33.87C86.413 33.87 86.883 33.9833 87.2964 34.21C87.7164 34.4367 88.0397 34.76 88.2664 35.18C88.4997 35.5933 88.6164 36.07 88.6164 36.61ZM87.1664 36.21C87.1597 35.85 87.0297 35.5633 86.7764 35.35C86.523 35.13 86.213 35.02 85.8464 35.02C85.4997 35.02 85.2064 35.1267 84.9664 35.34C84.733 35.5467 84.5897 35.8367 84.5364 36.21H87.1664ZM91.0382 34.77C91.2182 34.5033 91.4649 34.2867 91.7782 34.12C92.0982 33.9533 92.4616 33.87 92.8682 33.87C93.3416 33.87 93.7682 33.9867 94.1482 34.22C94.5349 34.4533 94.8382 34.7867 95.0582 35.22C95.2849 35.6467 95.3982 36.1433 95.3982 36.71C95.3982 37.2767 95.2849 37.78 95.0582 38.22C94.8382 38.6533 94.5349 38.99 94.1482 39.23C93.7682 39.47 93.3416 39.59 92.8682 39.59C92.4549 39.59 92.0916 39.51 91.7782 39.35C91.4716 39.1833 91.2249 38.97 91.0382 38.71V39.5H89.6382V32.1H91.0382V34.77ZM93.9682 36.71C93.9682 36.3767 93.8982 36.09 93.7582 35.85C93.6249 35.6033 93.4449 35.4167 93.2182 35.29C92.9982 35.1633 92.7582 35.1 92.4982 35.1C92.2449 35.1 92.0049 35.1667 91.7782 35.3C91.5582 35.4267 91.3782 35.6133 91.2382 35.86C91.1049 36.1067 91.0382 36.3967 91.0382 36.73C91.0382 37.0633 91.1049 37.3533 91.2382 37.6C91.3782 37.8467 91.5582 38.0367 91.7782 38.17C92.0049 38.2967 92.2449 38.36 92.4982 38.36C92.7582 38.36 92.9982 38.2933 93.2182 38.16C93.4449 38.0267 93.6249 37.8367 93.7582 37.59C93.8982 37.3433 93.9682 37.05 93.9682 36.71ZM98.8756 39.59C98.3423 39.59 97.8623 39.4733 97.4356 39.24C97.0089 39 96.6723 38.6633 96.4256 38.23C96.1856 37.7967 96.0656 37.2967 96.0656 36.73C96.0656 36.1633 96.1889 35.6633 96.4356 35.23C96.6889 34.7967 97.0323 34.4633 97.4656 34.23C97.8989 33.99 98.3823 33.87 98.9156 33.87C99.4489 33.87 99.9323 33.99 100.366 34.23C100.799 34.4633 101.139 34.7967 101.386 35.23C101.639 35.6633 101.766 36.1633 101.766 36.73C101.766 37.2967 101.636 37.7967 101.376 38.23C101.122 38.6633 100.776 39 100.336 39.24C99.9023 39.4733 99.4156 39.59 98.8756 39.59ZM98.8756 38.37C99.1289 38.37 99.3656 38.31 99.5856 38.19C99.8123 38.0633 99.9923 37.8767 100.126 37.63C100.259 37.3833 100.326 37.0833 100.326 36.73C100.326 36.2033 100.186 35.8 99.9056 35.52C99.6323 35.2333 99.2956 35.09 98.8956 35.09C98.4956 35.09 98.1589 35.2333 97.8856 35.52C97.6189 35.8 97.4856 36.2033 97.4856 36.73C97.4856 37.2567 97.6156 37.6633 97.8756 37.95C98.1423 38.23 98.4756 38.37 98.8756 38.37ZM105.253 39.59C104.719 39.59 104.239 39.4733 103.813 39.24C103.386 39 103.049 38.6633 102.803 38.23C102.563 37.7967 102.443 37.2967 102.443 36.73C102.443 36.1633 102.566 35.6633 102.813 35.23C103.066 34.7967 103.409 34.4633 103.843 34.23C104.276 33.99 104.759 33.87 105.293 33.87C105.826 33.87 106.309 33.99 106.743 34.23C107.176 34.4633 107.516 34.7967 107.763 35.23C108.016 35.6633 108.143 36.1633 108.143 36.73C108.143 37.2967 108.013 37.7967 107.753 38.23C107.499 38.6633 107.153 39 106.713 39.24C106.279 39.4733 105.793 39.59 105.253 39.59ZM105.253 38.37C105.506 38.37 105.743 38.31 105.963 38.19C106.189 38.0633 106.369 37.8767 106.503 37.63C106.636 37.3833 106.703 37.0833 106.703 36.73C106.703 36.2033 106.563 35.8 106.283 35.52C106.009 35.2333 105.673 35.09 105.273 35.09C104.873 35.09 104.536 35.2333 104.263 35.52C103.996 35.8 103.863 36.2033 103.863 36.73C103.863 37.2567 103.993 37.6633 104.253 37.95C104.519 38.23 104.853 38.37 105.253 38.37ZM112.449 39.5L110.569 37.14V39.5H109.169V32.1H110.569V36.31L112.429 33.96H114.249L111.809 36.74L114.269 39.5H112.449Z" fill="white"/>
</g>
<defs>
<filter id="filter0_d_6_510" x="0.5" y="0" width="148" height="72" filterUnits="userSpaceOnUse" color-interpolation-filters="sRGB">
<feFlood flood-opacity="0" result="BackgroundImageFix"/>
<feColorMatrix in="SourceAlpha" type="matrix" values="0 0 0 0 0 0 0 0 0 0 0 0 0 0 0 0 0 0 127 0" result="hardAlpha"/>
<feOffset/>
<feGaussianBlur stdDeviation="7"/>
<feComposite in2="hardAlpha" operator="out"/>
<feColorMatrix type="matrix" values="0 0 0 0 0 0 0 0 0 0 0 0 0 0 0 0 0 0 0.05 0"/>
<feBlend mode="normal" in2="BackgroundImageFix" result="effect1_dropShadow_6_510"/>
<feBlend mode="normal" in="SourceGraphic" in2="effect1_dropShadow_6_510" result="shape"/>
</filter>
</defs>
</svg>
