<svg width="50" height="50" viewBox="0 0 50 50" fill="none" xmlns="http://www.w3.org/2000/svg">
<rect y="0.000488281" width="50" height="50" rx="25" fill="#F3F3F3"/>
<path d="M18.5742 16.1723C17.6914 16.3598 16.9218 16.7778 16.289 17.4223C15.7461 17.9692 15.3554 18.645 15.1289 19.4145L15.0234 19.7856L15.0078 22.5395C14.9922 25.5161 15 25.6567 15.1992 26.27C15.6953 27.8168 17.0508 29.02 18.6172 29.309L18.8867 29.3598L18.9062 31.4692C18.9218 33.145 18.9375 33.5903 18.9765 33.6528C19.1133 33.8559 19.375 33.9458 19.6758 33.8872C19.8086 33.8637 20.0742 33.6137 22.0508 31.6411L24.2773 29.4184L27.6758 29.4028C30.6445 29.3911 31.1093 29.3793 31.3672 29.3247C32.5468 29.0629 33.5234 28.4301 34.1953 27.4887C34.5664 26.9692 34.8633 26.2348 34.9648 25.5903C34.9883 25.4262 35 24.3208 34.9922 22.5786L34.9804 19.8247L34.875 19.4418C34.6601 18.6645 34.2578 17.9692 33.6914 17.4028C33.125 16.8364 32.4336 16.434 31.6523 16.2192L31.2695 16.1137L25.0976 16.1059C19.164 16.0981 18.914 16.102 18.5742 16.1723ZM31.4258 17.4184C32.7851 17.8754 33.6679 18.9614 33.789 20.3325C33.8359 20.8442 33.8359 24.6333 33.789 25.145C33.6601 26.5668 32.6758 27.727 31.289 28.0942C30.957 28.1801 30.9375 28.1801 27.4218 28.1918C25.4765 28.1997 23.8437 28.2153 23.789 28.227C23.7304 28.2387 23.0039 28.934 21.8867 30.0512L20.0781 31.8559V30.2036V28.5512L19.9297 28.395L19.7812 28.2348L19.332 28.184C18.7422 28.1137 18.4453 28.0356 18.0664 27.8481C17.0039 27.3247 16.3164 26.3286 16.2109 25.145C16.164 24.6333 16.164 20.8442 16.2109 20.3325C16.2695 19.6684 16.5039 19.0786 16.914 18.5473C17.3711 17.9653 18.1406 17.4926 18.8711 17.3481C18.9648 17.3286 21.7539 17.3168 25.0976 17.3208L31.1523 17.3247L31.4258 17.4184Z" fill="#1D3A70"/>
<path d="M24.2109 20.0083C24.1328 20.0278 24.0078 20.1021 23.9297 20.1685C23.7969 20.2896 23.7656 20.3755 23.0469 22.7388C22.6406 24.0864 22.3047 25.2271 22.3047 25.2739C22.3047 25.395 22.5664 25.6372 22.7617 25.6958C22.8477 25.7231 23.0078 25.7427 23.1172 25.7427C23.4258 25.7427 23.4883 25.6646 23.6445 25.0786L23.7773 24.5903H24.5938H25.4102L25.5469 25.0903C25.707 25.6841 25.7578 25.7427 26.0742 25.7427C26.4766 25.7427 26.875 25.5044 26.875 25.2661C26.875 25.2075 26.5391 24.063 26.1328 22.7271C25.4141 20.3872 25.3828 20.2896 25.25 20.1724C25.0352 19.9771 24.5898 19.9067 24.2109 20.0083ZM24.8594 22.5708C25 23.0942 25.1172 23.5356 25.1172 23.5591C25.1172 23.6021 24.0625 23.6099 24.0625 23.563C24.0625 23.5239 24.582 21.6021 24.5938 21.6138C24.5977 21.6177 24.7148 22.0474 24.8594 22.5708Z" fill="#1D3A70"/>
<path d="M19.1093 20.0785C19.0077 20.1254 18.9296 20.1918 18.9062 20.2543C18.8827 20.3207 18.8671 21.3129 18.8671 22.9028C18.8671 25.7309 18.8515 25.5746 19.1249 25.6879C19.4023 25.8051 19.9335 25.7309 20.0624 25.5551C20.1015 25.5043 20.1132 25.2426 20.1171 24.4223V23.3598H20.7655C21.1523 23.3598 21.4413 23.3442 21.4921 23.3168C21.6601 23.227 21.7343 22.8364 21.621 22.6176C21.5077 22.3989 21.4491 22.3832 20.7538 22.3832H20.1171V21.7387V21.0942H21.1757C21.8241 21.0942 22.2616 21.0785 22.3085 21.0551C22.5937 20.8989 22.5741 20.1489 22.2812 20.0395C22.2226 20.016 21.5624 20.0004 20.7304 20.0004C19.3788 20.0004 19.2655 20.0082 19.1093 20.0785Z" fill="#1D3A70"/>
<path d="M29.1602 20.0239C28.6836 20.0981 28.3164 20.2778 28.0547 20.563C27.8359 20.8013 27.7227 21.063 27.6562 21.4536C27.6055 21.7739 27.6055 24.0435 27.6562 24.3755C27.7109 24.7271 27.9258 25.1528 28.1484 25.3481C28.3672 25.5396 28.5781 25.645 28.918 25.7271L29.1797 25.7935V26.0903C29.1836 26.2622 29.2031 26.4146 29.2305 26.4497C29.3008 26.5435 29.4336 26.6021 29.5703 26.6021C29.8398 26.6021 29.9609 26.4302 29.9609 26.0396C29.9609 25.7935 29.9648 25.7817 30.0703 25.7583C30.7812 25.6021 31.1758 25.2896 31.3906 24.7075C31.457 24.5317 31.4648 24.3599 31.4766 23.0044C31.4883 21.4185 31.4727 21.2192 31.3008 20.8794C31.1211 20.5278 30.7695 20.2427 30.3438 20.1138C30.1055 20.0356 29.4102 19.9849 29.1602 20.0239ZM29.9492 21.2153C30.0156 21.2583 30.1094 21.3677 30.1523 21.4614C30.2305 21.6177 30.2344 21.6919 30.2344 22.8677C30.2344 24.188 30.2188 24.3442 30.0547 24.4966L29.9609 24.5825V24.3989C29.9609 24.2974 29.9336 24.1646 29.9023 24.106C29.793 23.8911 29.4609 23.8521 29.2695 24.0317C29.1953 24.1021 29.1797 24.1567 29.1797 24.3677V24.6216L29.0977 24.5474C28.9023 24.3755 28.8906 24.2778 28.875 23.0396C28.8594 21.7505 28.8867 21.5161 29.0547 21.3247C29.2656 21.0942 29.668 21.0435 29.9492 21.2153Z" fill="#1D3A70"/>
</svg>
