<svg width="171" height="170" viewBox="0 0 171 170" fill="none" xmlns="http://www.w3.org/2000/svg">
<g clip-path="url(#clip0_6_713)">
<path d="M170.059 129.772H0.94104V129.857H170.059V129.772Z" fill="#EBEBEB"/>
<path d="M107.712 132.076H99.1005V132.16H107.712V132.076Z" fill="#EBEBEB"/>
<path d="M154.987 133.906H134.581V133.99H154.987V133.906Z" fill="#EBEBEB"/>
<path d="M97.2672 132.116H76.185V132.201H97.2672V132.116Z" fill="#EBEBEB"/>
<path d="M62.5135 134.646H58.1029V134.731H62.5135V134.646Z" fill="#EBEBEB"/>
<path d="M86.8834 134.646H66.799V134.731H86.8834V134.646Z" fill="#EBEBEB"/>
<path d="M31.6901 133.219H18.6849V133.304H31.6901V133.219Z" fill="#EBEBEB"/>
<path d="M81.1029 114.687H15.793C15.2813 114.686 14.791 114.482 14.4295 114.12C14.068 113.758 13.865 113.267 13.865 112.756V20.9485C13.8695 20.4398 14.0745 19.9534 14.4354 19.5949C14.7964 19.2365 15.2842 19.0349 15.793 19.0341H81.1029C81.6152 19.0341 82.1064 19.2375 82.4686 19.5997C82.8308 19.9619 83.0343 20.4532 83.0343 20.9654V112.756C83.0343 113.268 82.8308 113.759 82.4686 114.121C82.1064 114.484 81.6152 114.687 81.1029 114.687ZM15.793 19.1017C15.3038 19.1026 14.8349 19.2976 14.4893 19.6438C14.1437 19.99 13.9496 20.4593 13.9496 20.9485V112.756C13.9496 113.245 14.1437 113.714 14.4893 114.06C14.8349 114.407 15.3038 114.602 15.793 114.603H81.1029C81.5924 114.602 82.0617 114.407 82.4078 114.061C82.7539 113.715 82.9488 113.245 82.9497 112.756V20.9485C82.9488 20.459 82.7539 19.9897 82.4078 19.6436C82.0617 19.2975 81.5924 19.1026 81.1029 19.1017H15.793Z" fill="#EBEBEB"/>
<path d="M154.267 114.687H88.9534C88.4414 114.686 87.9507 114.482 87.5887 114.12C87.2267 113.758 87.023 113.268 87.0221 112.756V20.9485C87.0274 20.4395 87.2331 19.9531 87.5947 19.5947C87.9562 19.2364 88.4444 19.0349 88.9534 19.0341H154.267C154.775 19.0358 155.262 19.2378 155.622 19.5961C155.982 19.9545 156.187 20.4404 156.191 20.9485V112.756C156.191 113.267 155.989 113.757 155.628 114.119C155.267 114.481 154.778 114.685 154.267 114.687ZM88.9534 19.1017C88.4639 19.1026 87.9947 19.2975 87.6485 19.6436C87.3024 19.9897 87.1075 20.459 87.1066 20.9485V112.756C87.1075 113.245 87.3024 113.715 87.6485 114.061C87.9947 114.407 88.4639 114.602 88.9534 114.603H154.267C154.756 114.602 155.225 114.407 155.572 114.061C155.918 113.715 156.113 113.245 156.113 112.756V20.9485C156.113 20.459 155.918 19.9897 155.572 19.6436C155.225 19.2975 154.756 19.1026 154.267 19.1017H88.9534Z" fill="#EBEBEB"/>
<path d="M67.2217 100.437H44.7629L43.3998 84.7094H65.8586L67.2217 100.437Z" fill="#E6E6E6"/>
<path d="M68.3853 100.437H45.9264L44.5633 84.7094H67.0222L68.3853 100.437Z" fill="#F0F0F0"/>
<path d="M48.9976 97.0584L48.2467 88.085H63.951L64.7019 97.0584H48.9976Z" fill="white"/>
<path d="M72.2716 100.437H69.6367V129.772H72.2716V100.437Z" fill="#E6E6E6"/>
<path d="M73.1037 100.437H71.2738V129.772H73.1037V100.437Z" fill="#F0F0F0"/>
<path d="M47.5973 103.674H73.1036V100.437H47.5973V103.674Z" fill="#F0F0F0"/>
<path d="M48.497 103.674H45.8622V129.772H48.497V103.674Z" fill="#E6E6E6"/>
<path d="M49.3291 103.674H47.4992V129.772H49.3291V103.674Z" fill="#F0F0F0"/>
<path d="M29.7418 103.674H27.107V129.772H29.7418V103.674Z" fill="#E6E6E6"/>
<path d="M30.5739 103.674H28.744V129.772H30.5739V103.674Z" fill="#F0F0F0"/>
<path d="M55.5966 103.674H52.9617V129.772H55.5966V103.674Z" fill="#E6E6E6"/>
<path d="M56.4253 103.674H54.5954V129.772H56.4253V103.674Z" fill="#F0F0F0"/>
<path d="M47.5973 100.437H27.107V103.674H47.5973V100.437Z" fill="#E6E6E6"/>
<path d="M124.005 27.2904H44.746V71.4166H124.005V27.2904Z" fill="#E0E0E0"/>
<path d="M128.358 27.2904H45.1451V71.4166H128.358V27.2904Z" fill="#F5F5F5"/>
<path d="M126.998 70.057V28.6501L46.5048 28.6501V70.057H126.998Z" fill="white"/>
<path d="M79.0972 70.057L94.2941 28.6501H69.2139L54.017 70.057H79.0972Z" fill="#F5F5F5"/>
<path d="M103.237 70.057L118.434 28.6501H99.5131L84.3162 70.057H103.237Z" fill="#F5F5F5"/>
<path d="M149.126 87.6283H142.388V129.772H149.126V87.6283Z" fill="#E6E6E6"/>
<path d="M147.353 129.772H149.126V126.529H145.496L147.353 129.772Z" fill="#FAFAFA"/>
<path d="M87.0051 87.6283H80.2675V129.772H87.0051V87.6283Z" fill="#E6E6E6"/>
<path d="M149.126 87.6283H85.4594V128.896H149.126V87.6283Z" fill="#FAFAFA"/>
<path d="M147.921 100.945H86.6669V89.2891H147.921V100.945ZM87.0051 100.606H147.583V89.6273H87.0051V100.606Z" fill="#E6E6E6"/>
<path d="M137.138 94.9478H98.6371C96.8512 94.9478 95.1296 93.5069 93.9018 90.9904L93.7868 90.7502H141.985L141.87 90.9904C140.632 93.5069 138.941 94.9478 137.138 94.9478ZM94.3415 91.0783C95.4847 93.3208 97.0474 94.5994 98.6371 94.5994H137.138C138.735 94.5994 140.291 93.3208 141.434 91.0783H94.3415Z" fill="#E6E6E6"/>
<path d="M87.2318 129.772H85.4594V126.529H89.0887L87.2318 129.772Z" fill="#FAFAFA"/>
<path d="M147.921 114.078H86.6669V102.436H147.921V114.078ZM87.0051 113.74H147.583V102.775H87.0051V113.74Z" fill="#E6E6E6"/>
<path d="M137.138 108.095H98.6371C96.8512 108.095 95.1296 106.651 93.9018 104.138L93.7868 103.894H141.985L141.87 104.138C140.632 106.637 138.941 108.095 137.138 108.095ZM94.3415 104.232C95.4847 106.475 97.0474 107.757 98.6371 107.757H137.138C138.735 107.757 140.291 106.475 141.434 104.232H94.3415Z" fill="#E6E6E6"/>
<path d="M147.921 127.236H86.6669V115.58H147.921V127.236ZM87.0051 126.897H147.583V115.918H87.0051V126.897Z" fill="#E6E6E6"/>
<path d="M137.138 121.239H98.6371C96.8512 121.239 95.1296 119.798 93.9018 117.285L93.7868 117.041H141.985L141.87 117.285C140.632 119.798 138.941 121.239 137.138 121.239ZM94.3415 117.379C95.4847 119.622 97.0474 120.901 98.6371 120.901H137.138C138.735 120.901 140.291 119.622 141.434 117.379H94.3415Z" fill="#E6E6E6"/>
<path d="M41.8608 93.2024V94.0209H41.3399L40.907 100.437H34.5346L34.1051 94.0209H33.5808V93.2024H41.8608Z" fill="#E6E6E6"/>
<path d="M39.7637 77.2816C39.2429 73.4595 34.0848 72.3704 27.5399 72.2284C21.313 72.0964 19.3174 69.8945 19.3174 69.8945C19.3174 69.8945 19.3377 78.8138 28.3111 82.0473C36.8312 85.1118 40.288 81.1104 39.7637 77.2816Z" fill="#E6E6E6"/>
<path d="M36.5843 85.9439C36.6926 84.3745 39.2023 81.486 45.2398 82.7983C49.603 83.7488 51.2266 81.486 51.2266 81.486C51.2266 81.486 50.8207 87.8719 44.2589 89.7897C38.0252 91.6127 36.3915 88.7107 36.5843 85.9439Z" fill="#E6E6E6"/>
<path d="M37.961 95.6106C37.995 95.611 38.0286 95.6039 38.0596 95.5898C38.0905 95.5758 38.1181 95.5552 38.1402 95.5294C38.5766 95.0119 38.218 93.774 37.7242 92.0591C37.0883 89.8606 36.2968 87.1209 36.9666 85.1354C37.3378 84.0867 37.7715 83.0611 38.2654 82.0643C39.2124 80.0619 40.031 78.3437 39.3477 76.524C39.3371 76.495 39.3208 76.4685 39.2998 76.4459C39.2788 76.4232 39.2536 76.405 39.2255 76.3922C39.1974 76.3794 39.1671 76.3723 39.1362 76.3713C39.1054 76.3703 39.0747 76.3755 39.0458 76.3864C39.017 76.3974 38.9906 76.4139 38.9682 76.4352C38.9458 76.4564 38.9279 76.4818 38.9154 76.51C38.9029 76.5382 38.8961 76.5686 38.8954 76.5995C38.8947 76.6303 38.9002 76.661 38.9114 76.6897C39.5236 78.3099 38.7829 79.8793 37.8426 81.8681C37.3424 82.881 36.9019 83.9223 36.5235 84.9866C35.8098 87.1107 36.6215 89.9283 37.2743 92.1877C37.6599 93.5406 38.0591 94.8936 37.7851 95.2318C37.7633 95.2551 37.7467 95.2828 37.7362 95.3129C37.7257 95.3431 37.7216 95.375 37.7241 95.4069C37.7267 95.4387 37.7358 95.4696 37.751 95.4977C37.7661 95.5258 37.787 95.5504 37.8121 95.57C37.8553 95.6008 37.9081 95.6152 37.961 95.6106Z" fill="#E6E6E6"/>
<path d="M85.5 145.047C121.719 145.047 151.081 143.333 151.081 141.218C151.081 139.104 121.719 137.39 85.5 137.39C49.2809 137.39 19.9195 139.104 19.9195 141.218C19.9195 143.333 49.2809 145.047 85.5 145.047Z" fill="#F5F5F5"/>
<path d="M85.4865 122.551H37.457L34.8289 45.3081H82.8584L85.4865 122.551Z" fill="#FFC727"/>
<path d="M87.8846 120.153H39.8551L37.2236 42.91H85.2531L87.8846 120.153Z" fill="#FFC727"/>
<path opacity="0.3" d="M87.8846 120.153H39.8551L37.2236 42.91H85.2531L87.8846 120.153Z" fill="white"/>
<path d="M71.7922 74.6953C76.9348 69.464 76.716 60.9099 71.3035 55.5892C65.891 50.2685 57.3344 50.1961 52.1918 55.4274C47.0492 60.6587 47.268 69.2128 52.6805 74.5335C58.093 79.8542 66.6496 79.9267 71.7922 74.6953Z" fill="#FFC727"/>
<path d="M73.1442 65.0645C73.2134 66.9051 72.8118 68.7329 71.9773 70.3748C71.0767 72.1443 69.7009 73.6279 68.0041 74.6591C66.3074 75.6903 64.3569 76.2283 62.3714 76.2128C60.3393 76.2018 58.3458 75.6566 56.5909 74.632C54.8361 73.6073 53.3815 72.1392 52.3732 70.3748C51.433 68.7581 50.9078 66.9337 50.8443 65.0645C50.782 63.6152 51.0149 62.1683 51.5289 60.8118C52.043 59.4553 52.8275 58.2175 53.8348 57.1735C54.842 56.1296 56.051 55.3013 57.3883 54.739C58.7255 54.1768 60.1632 53.8922 61.6138 53.9027C64.6022 53.9239 67.4676 55.0954 69.6148 57.174C71.762 59.2526 73.026 62.0784 73.1442 65.0645Z" fill="white"/>
<path opacity="0.6" d="M71.9706 70.3748C71.07 72.1443 69.6941 73.6279 67.9974 74.6591C66.3006 75.6903 64.3501 76.2283 62.3647 76.2128C60.3326 76.2018 58.3391 75.6566 56.5842 74.632C54.8293 73.6073 53.3748 72.1392 52.3664 70.3748C55.2269 68.4246 58.6117 67.3879 62.0738 67.4017C65.5916 67.4094 69.0309 68.4425 71.9706 70.3748Z" fill="#FFC727"/>
<path opacity="0.6" d="M65.4669 64.7863C67.3579 62.8627 67.2775 59.7173 65.2873 57.7608C63.2971 55.8043 60.1507 55.7777 58.2597 57.7013C56.3687 59.6249 56.4492 62.7704 58.4394 64.7268C60.4296 66.6833 63.576 66.7099 65.4669 64.7863Z" fill="#FFC727"/>
<path d="M78.2347 92.1809H47.5973L47.391 86.0927H78.0284L78.2347 92.1809Z" fill="white"/>
<path d="M78.6068 103.062H47.966L47.7596 96.9736H78.4004L78.6068 103.062Z" fill="white"/>
<path d="M66.782 97.8125L59.3983 98.8272C59.3279 98.8353 59.2599 98.8578 59.1985 98.8934C59.1372 98.929 59.0839 98.9768 59.042 99.034C59 99.0912 58.9704 99.1564 58.9549 99.2256C58.9394 99.2948 58.9384 99.3665 58.9519 99.4361L59.9226 104.384C59.9544 104.53 60.0393 104.658 60.1608 104.744C60.2822 104.829 60.4313 104.866 60.5788 104.848L67.9625 103.833C68.0328 103.824 68.1005 103.801 68.1614 103.765C68.2224 103.729 68.2753 103.681 68.3168 103.623C68.3583 103.566 68.3877 103.5 68.4029 103.431C68.4182 103.362 68.4191 103.29 68.4056 103.221L67.4382 98.2725C67.4064 98.1276 67.3213 97.9998 67.1998 97.9146C67.0783 97.8294 66.9292 97.793 66.782 97.8125ZM64.6613 102.825L63.3084 103.004L63.1764 101.408C63.037 101.348 62.9142 101.255 62.8182 101.137C62.7223 101.019 62.656 100.88 62.6251 100.732C62.6003 100.616 62.5999 100.497 62.6239 100.382C62.648 100.266 62.696 100.157 62.7649 100.062C62.8338 99.9662 62.9219 99.886 63.0237 99.8266C63.1255 99.7672 63.2386 99.7298 63.3557 99.7168C63.5959 99.6859 63.839 99.7462 64.0369 99.8859C64.2348 100.026 64.3732 100.234 64.4245 100.471C64.4538 100.614 64.4449 100.762 64.3986 100.901C64.3522 101.039 64.2702 101.163 64.1607 101.259L64.6613 102.825Z" fill="#FFC727"/>
<path d="M66.0514 97.5453C65.9209 97.5619 65.7889 97.5292 65.6812 97.4534C65.5736 97.3777 65.4981 97.2645 65.4697 97.136L65.375 96.6524C65.2398 95.9923 64.8698 95.4037 64.3337 94.9957C63.7975 94.5876 63.1316 94.3879 62.4594 94.4335C62.1202 94.4529 61.7891 94.545 61.4886 94.7036C61.1882 94.8623 60.9254 95.0837 60.7181 95.3529C60.5108 95.6221 60.3639 95.9328 60.2873 96.2638C60.2108 96.5948 60.2064 96.9385 60.2744 97.2713L60.3826 97.8294C60.3952 97.8913 60.3948 97.9551 60.3813 98.0167C60.3678 98.0784 60.3416 98.1365 60.3044 98.1875C60.2671 98.2384 60.2196 98.281 60.1649 98.3126C60.1103 98.3441 60.0496 98.3639 59.9869 98.3706C59.8561 98.3888 59.7233 98.3567 59.6153 98.2807C59.5073 98.2048 59.4321 98.0906 59.4051 97.9613L59.3138 97.4912C59.2209 97.0518 59.2178 96.5982 59.3047 96.1576C59.3916 95.7169 59.5667 95.2984 59.8195 94.9272C60.0722 94.556 60.3974 94.2397 60.7755 93.9973C61.1536 93.755 61.5768 93.5916 62.0197 93.5169C62.9799 93.3557 63.9653 93.5703 64.7715 94.1164C65.5776 94.6624 66.1426 95.4979 66.3491 96.4494L66.4573 97.0041C66.4699 97.0667 66.4692 97.1313 66.4551 97.1936C66.441 97.2559 66.4139 97.3146 66.3756 97.3657C66.3373 97.4168 66.2886 97.4592 66.2327 97.4901C66.1769 97.5211 66.1151 97.5399 66.0514 97.5453Z" fill="#FFC727"/>
<path d="M73.5501 111.589H53.6044L53.4724 107.625H73.4148L73.5501 111.589Z" fill="#FFC727"/>
<path d="M63.9273 89.1368C63.9333 89.2813 63.9098 89.4256 63.8584 89.5609C63.8069 89.6961 63.7285 89.8195 63.6279 89.9236C63.5273 90.0276 63.4067 90.1102 63.2733 90.1662C63.1399 90.2222 62.9964 90.2506 62.8517 90.2495C62.5535 90.2472 62.2675 90.1305 62.0529 89.9234C61.8383 89.7163 61.7114 89.4347 61.6984 89.1368C61.6924 88.9922 61.7159 88.8479 61.7673 88.7126C61.8188 88.5774 61.8972 88.454 61.9978 88.3499C62.0983 88.2459 62.219 88.1633 62.3524 88.1073C62.4858 88.0513 62.6292 88.0229 62.7739 88.024C63.0724 88.0254 63.3589 88.1419 63.5737 88.3492C63.7885 88.5564 63.9151 88.8385 63.9273 89.1368Z" fill="#263238"/>
<path d="M59.1176 89.1368C59.1241 89.2815 59.1009 89.426 59.0496 89.5614C58.9983 89.6969 58.92 89.8205 58.8193 89.9246C58.7186 90.0288 58.5978 90.1113 58.4641 90.1672C58.3305 90.223 58.1869 90.2511 58.042 90.2495C57.7441 90.2472 57.4585 90.1303 57.2445 89.9232C57.0304 89.716 56.9042 89.4344 56.892 89.1368C56.8861 88.9922 56.9095 88.8479 56.961 88.7126C57.0125 88.5774 57.0909 88.454 57.1914 88.3499C57.292 88.2459 57.4127 88.1633 57.5461 88.1073C57.6795 88.0513 57.8229 88.0229 57.9676 88.024C58.2658 88.0255 58.5518 88.1421 58.7661 88.3494C58.9803 88.5567 59.1063 88.8388 59.1176 89.1368Z" fill="#263238"/>
<path d="M54.3383 89.1368C54.3443 89.2813 54.3208 89.4256 54.2693 89.5609C54.2179 89.6961 54.1395 89.8195 54.0389 89.9236C53.9383 90.0276 53.8177 90.1102 53.6843 90.1662C53.5508 90.2222 53.4074 90.2506 53.2627 90.2495C52.9646 90.248 52.6785 90.1314 52.4643 89.9241C52.25 89.7167 52.1241 89.4347 52.1127 89.1368C52.1068 88.9922 52.1302 88.8479 52.1817 88.7126C52.2332 88.5774 52.3116 88.454 52.4121 88.3499C52.5127 88.2459 52.6334 88.1633 52.7668 88.1073C52.9002 88.0513 53.0436 88.0229 53.1883 88.024C53.4865 88.0255 53.7725 88.1421 53.9868 88.3494C54.2011 88.5567 54.327 88.8388 54.3383 89.1368Z" fill="#263238"/>
<path d="M68.7201 89.1367C68.7261 89.2813 68.7026 89.4256 68.6511 89.5608C68.5997 89.6961 68.5213 89.8194 68.4207 89.9235C68.3201 90.0275 68.1995 90.1101 68.0661 90.1661C67.9326 90.2222 67.7892 90.2505 67.6445 90.2495C67.3464 90.2479 67.0603 90.1313 66.846 89.924C66.6318 89.7167 66.5058 89.4346 66.4945 89.1367C66.4895 88.9925 66.5137 88.8488 66.5659 88.7143C66.618 88.5798 66.6969 88.4573 66.7978 88.3542C66.8987 88.2511 67.0195 88.1696 67.1528 88.1145C67.2861 88.0595 67.4293 88.0321 67.5735 88.034C67.8694 88.0363 68.1531 88.1519 68.3664 88.357C68.5797 88.5621 68.7063 88.8411 68.7201 89.1367Z" fill="#263238"/>
<path d="M73.5129 89.1368C73.5194 89.2815 73.4963 89.426 73.445 89.5614C73.3937 89.6969 73.3153 89.8205 73.2146 89.9246C73.114 90.0288 72.9931 90.1113 72.8595 90.1672C72.7258 90.223 72.5822 90.2511 72.4373 90.2495C72.1394 90.2472 71.8539 90.1303 71.6398 89.9232C71.4257 89.716 71.2995 89.4344 71.2873 89.1368C71.2814 88.9922 71.3049 88.8479 71.3563 88.7126C71.4078 88.5774 71.4862 88.454 71.5868 88.3499C71.6873 88.2459 71.808 88.1633 71.9414 88.1073C72.0748 88.0513 72.2182 88.0229 72.3629 88.024C72.6611 88.0255 72.9471 88.1421 73.1614 88.3494C73.3757 88.5567 73.5016 88.8388 73.5129 89.1368Z" fill="#263238"/>
<path d="M113.881 59.3788C114.331 60.1026 114.707 60.7926 115.092 61.5131C115.478 62.2335 115.826 62.9573 116.168 63.6981C116.865 65.1979 117.442 66.7508 117.893 68.342C117.954 68.5416 117.998 68.7547 118.048 68.961L118.123 69.2756L118.16 69.4312L118.204 69.6882C118.28 70.2714 118.245 70.8637 118.099 71.4335C117.866 72.3182 117.511 73.1663 117.044 73.9534C116.209 75.3837 115.2 76.705 114.04 77.887L112.616 76.8115C113.331 75.4975 113.967 74.1422 114.521 72.7526C114.767 72.1404 114.941 71.5012 115.038 70.8484C115.069 70.649 115.06 70.4454 115.011 70.2497L114.876 69.837C114.822 69.6679 114.771 69.4988 114.707 69.3263C114.192 67.9309 113.597 66.5667 112.924 65.2404C112.248 63.8875 111.52 62.5345 110.793 61.2425L113.881 59.3788Z" fill="#FF8B7B"/>
<path d="M112.978 76.3413L111.422 77.1632L113.208 79.2535C113.208 79.2535 114.324 78.4993 114.375 77.3493L112.978 76.3413Z" fill="#FF8B7B"/>
<path d="M109.335 78.4519L111.246 79.9706L113.208 79.2535L111.422 77.1632L109.335 78.4519Z" fill="#FF8B7B"/>
<path d="M102.801 48.3116C102.764 48.501 102.632 48.633 102.51 48.6093C102.388 48.5856 102.317 48.4097 102.354 48.2237C102.391 48.0377 102.523 47.8855 102.649 47.926C102.774 47.9666 102.838 48.1222 102.801 48.3116Z" fill="#263238"/>
<path d="M102.649 48.6364C102.308 49.1661 101.896 49.6465 101.424 50.0637C101.536 50.1792 101.671 50.2692 101.82 50.3276C101.97 50.386 102.13 50.4113 102.29 50.4019L102.649 48.6364Z" fill="#FF5652"/>
<path d="M102.04 55.2725V53.0537L104.976 53.3919C104.976 53.3919 104.928 55.2996 103.284 55.8611L102.04 55.2725Z" fill="#FF8B7B"/>
<path d="M102.885 51.4573L104.952 52.0526L104.989 53.4089L102.053 53.0537L102.885 51.4573Z" fill="#FF8B7B"/>
<path opacity="0.2" d="M104.952 52.0526L102.885 51.4573L102.483 52.2285C102.505 52.8361 102.695 53.4258 103.031 53.9321C103.368 54.4384 103.839 54.8415 104.39 55.0967C104.746 54.6007 104.953 54.0144 104.989 53.4055L104.952 52.0526Z" fill="black"/>
<path d="M103.7 47.4086C103.722 47.408 103.743 47.4013 103.761 47.3893C103.779 47.3772 103.794 47.3603 103.802 47.3405C103.811 47.3207 103.814 47.2988 103.811 47.2773C103.808 47.2559 103.799 47.2357 103.785 47.2192C103.666 47.085 103.517 46.9812 103.35 46.9165C103.183 46.8518 103.003 46.828 102.824 46.8471C102.795 46.8521 102.769 46.8684 102.752 46.8925C102.735 46.9166 102.728 46.9465 102.733 46.9756C102.738 47.005 102.754 47.0313 102.778 47.0489C102.802 47.0666 102.832 47.0743 102.862 47.0704C103.003 47.0565 103.145 47.0766 103.277 47.129C103.409 47.1813 103.526 47.2644 103.619 47.3714C103.63 47.3827 103.642 47.3918 103.656 47.3982C103.67 47.4046 103.685 47.4081 103.7 47.4086Z" fill="#263238"/>
<path d="M108.023 51.7346C107.685 53.4765 107.475 55.8882 108.7 57.0483C108.7 57.0483 108.226 58.8139 104.979 58.8139C101.424 58.8139 103.271 57.2648 103.271 57.2648C104.749 56.8048 104.735 55.1237 104.397 53.7708L108.023 51.7346Z" fill="#FF8B7B"/>
<path d="M109.359 58.2119C109.677 57.7654 109.664 56.3482 109.325 56.0979C108.781 55.6954 106.444 55.6007 103.301 56.3245C103.64 57.6977 102.912 58.4148 102.912 58.4148L109.359 58.2119Z" fill="#FFC727"/>
<path d="M119.932 138.512C119.836 138.546 119.734 138.561 119.631 138.555C119.529 138.549 119.429 138.523 119.337 138.479C119.302 138.446 119.278 138.404 119.269 138.357C119.259 138.31 119.264 138.262 119.283 138.218C119.294 138.182 119.312 138.148 119.337 138.119C119.362 138.091 119.394 138.068 119.428 138.052C119.75 137.897 120.487 138.198 120.521 138.211C120.531 138.216 120.54 138.223 120.546 138.232C120.552 138.241 120.555 138.251 120.555 138.262C120.555 138.273 120.552 138.284 120.546 138.293C120.541 138.303 120.534 138.311 120.524 138.316C120.334 138.4 120.135 138.466 119.932 138.512ZM119.543 138.13C119.521 138.136 119.5 138.143 119.479 138.154C119.458 138.162 119.439 138.174 119.424 138.191C119.409 138.207 119.397 138.227 119.391 138.249C119.361 138.35 119.391 138.384 119.412 138.394C119.54 138.502 120.014 138.394 120.348 138.269C120.094 138.164 119.819 138.116 119.543 138.13Z" fill="#FFC727"/>
<path d="M120.511 138.32H120.484C120.213 138.242 119.638 137.833 119.631 137.565C119.631 137.523 119.645 137.482 119.672 137.448C119.698 137.415 119.735 137.392 119.777 137.383C119.817 137.368 119.86 137.362 119.903 137.365C119.945 137.369 119.987 137.382 120.024 137.403C120.342 137.565 120.545 138.222 120.551 138.252C120.556 138.26 120.559 138.27 120.559 138.279C120.559 138.289 120.556 138.298 120.551 138.306C120.546 138.311 120.54 138.315 120.533 138.318C120.526 138.32 120.518 138.321 120.511 138.32ZM119.834 137.477H119.807C119.74 137.501 119.74 137.535 119.74 137.552C119.74 137.711 120.125 138.032 120.416 138.161C120.345 137.971 120.189 137.596 119.983 137.484C119.937 137.463 119.885 137.461 119.838 137.477H119.834Z" fill="#FFC727"/>
<path d="M102.364 138.912C102.06 138.912 101.766 138.868 101.668 138.732C101.642 138.696 101.628 138.653 101.628 138.609C101.628 138.565 101.642 138.521 101.668 138.485C101.687 138.452 101.713 138.424 101.744 138.401C101.774 138.378 101.81 138.362 101.847 138.353C102.243 138.245 103.075 138.719 103.109 138.739C103.119 138.744 103.127 138.753 103.132 138.763C103.137 138.774 103.138 138.785 103.136 138.797C103.134 138.808 103.129 138.819 103.121 138.828C103.114 138.836 103.103 138.842 103.092 138.844C102.852 138.888 102.608 138.911 102.364 138.912ZM101.989 138.448C101.953 138.442 101.917 138.442 101.881 138.448C101.858 138.453 101.836 138.462 101.817 138.476C101.798 138.489 101.782 138.506 101.769 138.526C101.729 138.597 101.745 138.631 101.769 138.651C101.881 138.807 102.479 138.81 102.923 138.746C102.633 138.588 102.316 138.487 101.989 138.448Z" fill="#FFC727"/>
<path d="M103.088 138.844H103.065C102.777 138.715 102.209 138.201 102.253 137.931C102.253 137.866 102.307 137.789 102.463 137.775C102.518 137.769 102.574 137.774 102.628 137.79C102.682 137.806 102.731 137.833 102.774 137.87C102.99 138.129 103.121 138.45 103.146 138.786C103.146 138.796 103.143 138.806 103.139 138.814C103.135 138.823 103.129 138.831 103.122 138.837C103.112 138.842 103.1 138.845 103.088 138.844ZM102.506 137.88H102.473C102.371 137.88 102.364 137.927 102.364 137.941C102.337 138.103 102.723 138.509 103.017 138.685C102.991 138.414 102.881 138.157 102.703 137.951C102.647 137.904 102.576 137.878 102.503 137.88H102.506Z" fill="#FFC727"/>
<path d="M105.699 138.79H103.322L103.085 133.28H105.463L105.699 138.79Z" fill="#FF8B7B"/>
<path d="M123.163 137.687L120.839 138.191L118.502 133.06L120.829 132.556L123.163 137.687Z" fill="#FF8B7B"/>
<path d="M120.612 137.958L123.227 137.393C123.272 137.383 123.32 137.389 123.362 137.41C123.404 137.431 123.437 137.465 123.457 137.508L124.363 139.476C124.387 139.524 124.4 139.577 124.4 139.63C124.4 139.684 124.387 139.736 124.362 139.784C124.338 139.831 124.303 139.872 124.259 139.904C124.216 139.935 124.166 139.955 124.113 139.963C123.2 140.143 122.743 140.187 121.597 140.434C120.89 140.589 119.293 140.978 118.316 141.188C117.338 141.398 117.003 140.461 117.385 140.288C119.094 139.507 119.804 138.82 120.267 138.181C120.351 138.067 120.474 137.987 120.612 137.958Z" fill="#263238"/>
<path d="M103.339 138.512H105.936C105.983 138.513 106.029 138.529 106.066 138.558C106.103 138.588 106.128 138.629 106.139 138.675L106.609 140.789C106.623 140.84 106.625 140.893 106.614 140.945C106.603 140.997 106.581 141.046 106.548 141.087C106.515 141.129 106.473 141.162 106.425 141.184C106.377 141.206 106.324 141.217 106.271 141.215C105.334 141.198 103.981 141.144 102.804 141.144C101.424 141.144 100.237 141.218 98.6202 141.218C97.6427 141.218 97.3721 140.231 97.7813 140.139C99.6416 139.733 101.164 139.69 102.77 138.698C102.939 138.585 103.136 138.521 103.339 138.512Z" fill="#263238"/>
<path d="M112.955 57.5928C115.184 58.1036 117.013 63.7961 117.013 63.7961L112.559 67.2021C111.403 65.9659 110.587 64.4509 110.191 62.8051C109.403 59.8218 110.675 57.0652 112.955 57.5928Z" fill="#FFC727"/>
<path opacity="0.4" d="M112.955 57.5928C115.184 58.1036 117.013 63.7961 117.013 63.7961L112.559 67.2021C111.403 65.9659 110.587 64.4509 110.191 62.8051C109.403 59.8218 110.675 57.0652 112.955 57.5928Z" fill="black"/>
<path d="M101.228 64.3813C100.673 64.9799 100.119 65.5143 99.5368 66.0724C99.2493 66.343 98.9584 66.6136 98.6607 66.874L98.2109 67.2698L98.0993 67.3679L97.9065 67.5235C97.708 67.682 97.4883 67.8118 97.2537 67.909C96.9926 68.0199 96.712 68.0774 96.4284 68.0782C96.186 68.0792 95.9455 68.0368 95.7181 67.953C95.4659 67.857 95.2358 67.7108 95.0416 67.5235C94.7938 67.2813 94.6122 66.9797 94.514 66.6474C94.4626 66.4836 94.4297 66.3146 94.4159 66.1435C94.3982 65.9432 94.3982 65.7417 94.4159 65.5414C94.4328 65.379 94.4531 65.237 94.4801 65.1051C94.5727 64.6439 94.7039 64.1913 94.8725 63.7521C95.0247 63.3347 95.1997 62.9259 95.3968 62.5277C95.6132 62.0982 95.8196 61.7836 96.0259 61.4251C96.8639 60.0522 97.8202 58.7553 98.884 57.5489C99.937 56.3496 101.097 55.2492 102.351 54.2612L103.596 55.5431C102.723 56.7134 101.864 57.9683 101.069 59.2029C100.278 60.4304 99.5552 61.7007 98.9043 63.008C98.7588 63.326 98.566 63.6845 98.4747 63.9415C98.3537 64.2402 98.2487 64.545 98.1602 64.8548C98.0749 65.1337 98.0105 65.4186 97.9674 65.7071C97.9651 65.7522 97.9651 65.7974 97.9674 65.8424C97.9674 65.8695 97.9674 65.883 97.9674 65.812C97.9618 65.7361 97.947 65.6611 97.9234 65.5888C97.8503 65.349 97.7162 65.1322 97.5344 64.9596C97.3726 64.811 97.1829 64.696 96.9763 64.6214C96.7947 64.5526 96.6023 64.5171 96.4081 64.5165C96.2213 64.5143 96.0361 64.55 95.8635 64.6214C95.8051 64.6453 95.7486 64.6735 95.6944 64.706L95.8229 64.5876L96.2322 64.2155L97.0406 63.4579C97.575 62.9539 98.1128 62.4161 98.6202 61.9155L101.228 64.3813Z" fill="#FF8B7B"/>
<path opacity="0.2" d="M111.044 61.7734C112.254 62.9708 112.65 65.1558 112.735 67.0499L112.539 67.2021C111.382 65.9659 110.567 64.4509 110.171 62.8051C110.127 62.6292 110.086 62.4668 110.056 62.274L111.044 61.7734Z" fill="black"/>
<path d="M98.8637 59.9606C98.3766 62.5312 98.0722 67.811 99.4827 78.2625H112.221C112.309 76.3109 111.081 66.7794 112.965 57.576C111.557 57.3057 110.134 57.1261 108.703 57.0382C106.901 56.9349 105.094 56.9349 103.291 57.0382C102.696 57.0923 102.107 57.1803 101.6 57.2716C100.925 57.39 100.302 57.7104 99.8137 58.1906C99.3251 58.6708 98.9938 59.288 98.8637 59.9606Z" fill="#FFC727"/>
<path opacity="0.4" d="M98.8637 59.9606C98.3766 62.5312 98.0722 67.811 99.4827 78.2625H112.221C112.309 76.3109 111.081 66.7794 112.965 57.576C111.557 57.3057 110.134 57.1261 108.703 57.0382C106.901 56.9349 105.094 56.9349 103.291 57.0382C102.696 57.0923 102.107 57.1803 101.6 57.2716C100.925 57.39 100.302 57.7104 99.8137 58.1906C99.3251 58.6708 98.9938 59.288 98.8637 59.9606Z" fill="black"/>
<path opacity="0.2" d="M100.812 63.7724L98.5119 63.2211C98.4409 64.6146 98.4341 66.3396 98.5356 68.4739C99.5943 67.2698 100.947 65.3892 100.812 63.7724Z" fill="black"/>
<path opacity="0.2" d="M103.085 133.28L103.207 136.121H105.588L105.466 133.28H103.085Z" fill="black"/>
<path opacity="0.2" d="M120.829 132.556L118.502 133.06L119.706 135.705L122.033 135.201L120.829 132.556Z" fill="black"/>
<path d="M109.153 49.1911C108.544 51.4708 108.3 52.8373 106.893 53.7843C104.779 55.2252 102.141 53.5746 102.074 51.1664C101.999 48.9915 103.01 45.6261 105.456 45.1661C105.993 45.0652 106.548 45.1029 107.066 45.2755C107.585 45.4481 108.051 45.75 108.421 46.1527C108.791 46.5554 109.052 47.0456 109.18 47.5772C109.308 48.1088 109.299 48.6642 109.153 49.1911Z" fill="#FF8B7B"/>
<path d="M103.815 49.2757C103.7 48.9713 103.176 46.6138 103.67 46.0015C104.164 45.3893 109.795 45.8324 110.628 46.651C112.011 48.0039 111.05 49.2216 109.538 50.7876C108.402 51.9646 108.358 53.2905 107.783 53.4935C106.768 53.8317 105.219 53.5138 104.908 52.4416C104.597 51.3694 103.815 49.2757 103.815 49.2757Z" fill="#263238"/>
<path d="M109.944 43.9687C107.955 43.1231 104.225 44.0601 102.209 43.573C102.183 44.3226 102.43 45.0561 102.903 45.6381C103.376 46.22 104.044 46.6111 104.783 46.7389C106.455 47.0576 108.154 47.215 109.856 47.209C112.068 47.1076 111.635 44.6892 109.944 43.9687Z" fill="#263238"/>
<path d="M110.255 46.722C110.982 46.7934 111.714 46.6537 112.363 46.3195C112.735 47.2192 110.688 47.4661 110.255 46.722Z" fill="#263238"/>
<path d="M104.898 49.3704C104.852 49.957 104.614 50.5121 104.221 50.95C103.7 51.5216 103.159 51.163 103.068 50.4697C102.987 49.8405 103.156 48.7785 103.792 48.4741C104.428 48.1697 104.942 48.6635 104.898 49.3704Z" fill="#FF8B7B"/>
<path d="M103.998 78.2726C103.998 78.2726 106.704 96.4528 108.182 103.265C109.802 110.723 118.508 135.397 118.508 135.397L122.767 134.474C122.767 134.474 116.679 114.362 115.326 103.935C114.277 95.9252 112.217 78.2659 112.217 78.2659L103.998 78.2726Z" fill="#FFC727"/>
<path d="M117.487 133.98C117.47 133.98 118.282 135.522 118.282 135.522L123.071 134.484L122.669 133.043L117.487 133.98Z" fill="#263238"/>
<path opacity="0.3" d="M105.706 84.7498C108.828 85.362 108.497 97.0041 108.121 102.994C107.221 98.7595 105.902 90.6148 105.003 84.8343C105.221 84.7267 105.469 84.6969 105.706 84.7498Z" fill="black"/>
<path d="M99.4827 78.2726C99.4827 78.2726 99.1444 96.0604 99.415 103.302C99.6856 110.848 102.32 135.556 102.32 135.556H106.352C106.352 135.556 106.498 111.288 106.69 103.877C106.887 95.7999 107.861 78.259 107.861 78.259L99.4827 78.2726Z" fill="#FFC727"/>
<path d="M101.546 133.967C101.526 133.967 101.773 135.637 101.773 135.637H106.674L106.809 134.146L101.546 133.967Z" fill="#263238"/>
<path d="M103.849 60.752C104.989 63.8265 98.2887 67.449 98.2887 67.449L95.3866 63.7284C95.3866 63.7284 97.3382 59.8658 99.7059 58.1272C102.632 55.9828 102.98 58.4114 103.849 60.752Z" fill="#FFC727"/>
<path opacity="0.4" d="M103.849 60.752C104.989 63.8265 98.2887 67.449 98.2887 67.449L95.3866 63.7284C95.3866 63.7284 97.3382 59.8658 99.7059 58.1272C102.632 55.9828 102.98 58.4114 103.849 60.752Z" fill="black"/>
<path d="M130.103 37.4104C136.845 37.4104 142.31 33.9274 142.31 29.631C142.31 25.3345 136.845 21.8516 130.103 21.8516C123.361 21.8516 117.896 25.3345 117.896 29.631C117.896 33.9274 123.361 37.4104 130.103 37.4104Z" fill="#FFC727"/>
<path d="M125.699 33.5477C124.895 33.5451 124.118 33.2592 123.503 32.7402C122.889 32.2212 122.477 31.5023 122.341 30.7099C122.206 29.8516 122.4 28.974 122.883 28.252C123.366 27.5299 124.104 27.0163 124.948 26.8134C125.642 26.6537 126.368 26.7153 127.024 26.9895C127.681 27.2637 128.235 27.7368 128.608 28.3423L136.445 26.7255C136.746 26.6595 137.061 26.7096 137.327 26.8657C137.593 27.0219 137.79 27.2726 137.879 27.5677C137.92 27.7229 137.929 27.8848 137.905 28.0435C137.882 28.2023 137.826 28.3545 137.741 28.491C137.657 28.6274 137.545 28.7452 137.414 28.8371C137.282 28.929 137.133 28.9931 136.976 29.0255L136.773 29.0661C136.743 29.0715 136.715 29.0838 136.69 29.1019C136.665 29.1201 136.645 29.1437 136.631 29.1709C136.619 29.1986 136.612 29.2286 136.612 29.2589C136.612 29.2892 136.619 29.3192 136.631 29.3468L136.77 29.7054C136.816 29.8216 136.821 29.9503 136.782 30.0695C136.744 30.1887 136.666 30.2907 136.56 30.3582C136.477 30.4095 136.407 30.4792 136.354 30.5618C136.302 30.6445 136.27 30.7379 136.259 30.8351C136.249 30.9466 136.204 31.0521 136.131 31.1365C136.057 31.2209 135.959 31.28 135.85 31.3052L135.691 31.339C135.581 31.3594 135.467 31.3441 135.366 31.2955C135.265 31.2468 135.182 31.1673 135.129 31.0684C135.059 30.9505 134.954 30.8573 134.828 30.802C134.703 30.7468 134.563 30.732 134.428 30.76C134.294 30.7879 134.172 30.8571 134.078 30.9578C133.985 31.0586 133.926 31.1859 133.908 31.3221C133.899 31.4329 133.855 31.5378 133.782 31.6217C133.709 31.7056 133.611 31.7642 133.502 31.7889L133.343 31.8227C133.233 31.8425 133.12 31.827 133.019 31.7785C132.918 31.7299 132.835 31.6506 132.782 31.5521C132.731 31.4682 132.663 31.3964 132.582 31.3415C132.501 31.2866 132.409 31.25 132.312 31.2342C132.182 31.2185 132.062 31.1559 131.975 31.0582C131.888 30.9604 131.839 30.8342 131.838 30.7032V30.3176C131.837 30.2874 131.829 30.2579 131.815 30.231C131.801 30.2042 131.782 30.1807 131.758 30.162C131.734 30.1434 131.707 30.1301 131.678 30.1231C131.648 30.1161 131.618 30.1155 131.588 30.1214L129.088 30.6355C128.987 31.328 128.674 31.9723 128.193 32.4806C127.711 32.989 127.085 33.3368 126.399 33.4767C126.169 33.5238 125.935 33.5476 125.699 33.5477ZM125.023 27.1212C124.256 27.3004 123.585 27.7636 123.146 28.4176C122.706 29.0716 122.531 29.8677 122.655 30.6457C122.788 31.3694 123.176 32.0217 123.748 32.4845C124.32 32.9473 125.039 33.19 125.775 33.1687C126.51 33.1475 127.214 32.8637 127.759 32.3686C128.303 31.8736 128.652 31.2 128.743 30.4698V30.348L131.5 29.7899C131.579 29.7708 131.661 29.7695 131.741 29.7862C131.821 29.8028 131.896 29.837 131.96 29.8862C132.025 29.9355 132.078 29.9985 132.116 30.0708C132.153 30.143 132.174 30.2227 132.177 30.304V30.6896C132.177 30.7355 132.194 30.7798 132.223 30.8149C132.253 30.85 132.294 30.8739 132.339 30.8824C132.487 30.9036 132.628 30.9582 132.752 31.042C132.875 31.1258 132.978 31.2366 133.053 31.3661C133.071 31.4026 133.099 31.4326 133.135 31.452C133.171 31.4714 133.212 31.4792 133.252 31.4743L133.408 31.4405C133.447 31.4304 133.482 31.4078 133.508 31.3761C133.533 31.3444 133.548 31.3053 133.55 31.2646C133.571 31.0541 133.659 30.8557 133.8 30.6983C133.942 30.5409 134.13 30.4325 134.337 30.3888C134.544 30.3451 134.759 30.3684 134.952 30.4553C135.145 30.5422 135.306 30.6883 135.41 30.8723C135.427 30.9085 135.456 30.9384 135.491 30.9578C135.526 30.9772 135.566 30.9851 135.606 30.9805L135.769 30.9467C135.807 30.9359 135.842 30.9131 135.867 30.8814C135.892 30.8498 135.906 30.811 135.907 30.7708C135.924 30.6223 135.974 30.4796 136.055 30.3535C136.135 30.2275 136.243 30.1215 136.371 30.0436C136.408 30.0167 136.435 29.9781 136.448 29.934C136.461 29.8899 136.459 29.8428 136.442 29.8001L136.303 29.4415C136.274 29.3676 136.262 29.2883 136.267 29.2092C136.272 29.1301 136.295 29.0531 136.333 28.9835C136.371 28.9139 136.424 28.8535 136.487 28.8064C136.551 28.7593 136.624 28.7267 136.702 28.7109L136.908 28.667C137.02 28.6432 137.126 28.5971 137.219 28.5315C137.313 28.4659 137.392 28.3821 137.452 28.2851C137.513 28.1882 137.553 28.0801 137.57 27.9673C137.588 27.8545 137.582 27.7393 137.555 27.6286C137.488 27.4157 137.344 27.2357 137.151 27.1247C136.958 27.0136 136.73 26.9798 136.513 27.0299L128.456 28.7042L128.395 28.5993C128.071 28.0231 127.569 27.5678 126.964 27.3024C126.358 27.0369 125.683 26.9757 125.04 27.128L125.023 27.1212ZM125.699 32.2895C125.279 32.2942 124.867 32.1766 124.512 31.9512C124.093 31.6759 123.782 31.2636 123.632 30.7846C123.483 30.3056 123.504 29.7897 123.693 29.3247C123.881 28.8596 124.225 28.4744 124.666 28.2345C125.106 27.9947 125.616 27.9151 126.109 28.0093C126.602 28.1036 127.047 28.3659 127.368 28.7514C127.689 29.137 127.867 29.6219 127.87 30.1237C127.874 30.6254 127.703 31.1128 127.387 31.5028C127.072 31.8928 126.63 32.1613 126.139 32.2624C125.995 32.2885 125.849 32.2998 125.703 32.2962L125.699 32.2895ZM125.699 28.2949C125.573 28.2956 125.448 28.3081 125.324 28.3321C125.088 28.3823 124.865 28.4784 124.666 28.615C124.468 28.7515 124.298 28.9258 124.167 29.1279C124.036 29.33 123.946 29.556 123.902 29.7929C123.858 30.0298 123.862 30.273 123.912 30.5087C123.962 30.7443 124.058 30.9677 124.195 31.1662C124.331 31.3647 124.505 31.5344 124.708 31.6655C124.91 31.7966 125.136 31.8867 125.373 31.9305C125.609 31.9743 125.853 31.971 126.088 31.9208C126.442 31.8472 126.766 31.6704 127.02 31.4129C127.273 31.1554 127.445 30.8286 127.513 30.4738C127.581 30.1189 127.542 29.7518 127.402 29.4189C127.261 29.0859 127.026 28.8019 126.724 28.6027C126.425 28.4036 126.072 28.2987 125.713 28.3017L125.699 28.2949Z" fill="white"/>
<path opacity="0.6" d="M120.169 41.9733C122.385 41.9733 124.181 40.8284 124.181 39.4162C124.181 38.004 122.385 36.8591 120.169 36.8591C117.954 36.8591 116.158 38.004 116.158 39.4162C116.158 40.8284 117.954 41.9733 120.169 41.9733Z" fill="#FFC727"/>
<path opacity="0.3" d="M113.787 43.0217C114.696 43.0217 115.434 42.5523 115.434 41.9732C115.434 41.3941 114.696 40.9247 113.787 40.9247C112.877 40.9247 112.139 41.3941 112.139 41.9732C112.139 42.5523 112.877 43.0217 113.787 43.0217Z" fill="#FFC727"/>
</g>
<defs>
<clipPath id="clip0_6_713">
<rect width="169.118" height="169.118" fill="white" transform="translate(0.94104 0.43103)"/>
</clipPath>
</defs>
</svg>
