<svg width="38" height="39" viewBox="0 0 38 39" fill="none" xmlns="http://www.w3.org/2000/svg">
<g clip-path="url(#clip0_252_489)">
<g clip-path="url(#clip1_252_489)">
<g clip-path="url(#clip2_252_489)">
<path d="M17.6328 5.33203C15.3359 5.72578 13.3508 6.91797 12 8.72266C10.8352 10.2703 10.2555 12.0148 10.25 13.9453C10.25 15.1922 10.4469 16.1656 10.9281 17.2922C11.4531 18.5172 11.7047 18.7906 12.1586 18.6539C12.4156 18.5828 12.6016 18.3422 12.6016 18.0961C12.6016 18.0141 12.4539 17.6477 12.2789 17.2813C11.743 16.182 11.5242 15.3617 11.4695 14.2898C11.3656 12.2172 12.175 10.1773 13.6898 8.67344C15.7953 6.57891 18.8687 5.89531 21.6031 6.92344C24.6438 8.06094 26.6781 11.0852 26.5305 14.257C26.4867 15.3344 26.2625 16.1602 25.7266 17.2648C25.5461 17.6367 25.3984 18.0031 25.3984 18.0852C25.3984 18.4516 25.7648 18.7469 26.1258 18.6813C26.4266 18.6266 26.6234 18.3313 27.0719 17.2922C27.5531 16.1711 27.75 15.1977 27.75 13.9453C27.7445 12.0148 27.1648 10.2703 26 8.72266C24.6328 6.89609 22.6422 5.70938 20.3125 5.32656C19.7383 5.23359 18.2016 5.23906 17.6328 5.33203Z" fill="#D63333"/>
<path d="M13.1484 14V14.6016H13.75H14.3516V14V13.3984H13.75H13.1484V14Z" fill="#D63333"/>
<path d="M23.6484 14V14.6016H24.25H24.8516V14V13.3984H24.25H23.6484V14Z" fill="#D63333"/>
<path d="M30.3914 16.9804C29.6805 17.1773 29.1992 17.5273 27.9961 18.7031C27.318 19.3703 27.2359 19.4304 26.1258 20.0921L24.9719 20.7812L24.7859 20.6773C24.3484 20.4148 24.1297 20.3984 21.2422 20.3984H18.5297L17.6328 20.0921L16.7305 19.7913L14.8711 19.8132C13.1977 19.8351 12.968 19.846 12.5633 19.9499C12.0383 20.0867 11.5461 20.2999 11.0922 20.5898C10.7258 20.8249 9.83984 21.6617 9.725 21.8859C9.50078 22.3124 9.77422 22.7445 10.2609 22.7499C10.5125 22.7499 10.5344 22.739 11.1195 22.1867C11.568 21.7601 11.8141 21.5742 12.1258 21.421C12.8258 21.082 13.0445 21.0492 14.8438 21.0163L16.457 20.9945L17.2773 21.2843L18.0977 21.5742L21.0234 21.6015C23.8891 21.6288 23.9547 21.6288 24.168 21.7492C24.5727 21.9624 24.7969 22.3234 24.7969 22.7499C24.7969 23.1765 24.5727 23.5374 24.168 23.7507C23.9547 23.871 23.8891 23.871 20.9414 23.8984L17.9336 23.9257L17.6602 24.057C17.3211 24.2265 16.982 24.5656 16.8234 24.8937C16.6867 25.1726 16.6156 25.6156 16.6703 25.8398C16.8125 26.3976 17.7039 26.3867 17.8242 25.8288C17.9117 25.4406 17.9937 25.2929 18.1797 25.1999C18.3547 25.1124 18.6117 25.1015 21.1602 25.1015C24.2008 25.1015 24.3375 25.0906 24.8516 24.7898C25.2344 24.5656 25.6062 24.1554 25.7977 23.7453C26.0219 23.264 26.0711 22.5203 25.907 22.0335L25.8031 21.7273L26.9242 21.0546C28.0453 20.382 28.0562 20.3765 28.9805 19.4742C29.4945 18.971 30.0523 18.4843 30.2164 18.3859C30.6211 18.1507 31.0531 18.0578 31.3594 18.1507C31.4852 18.189 31.5781 18.2382 31.5672 18.2601C31.5562 18.282 30.9875 19.2062 30.293 20.3163L29.0352 22.3288L25.9453 24.8609L22.8555 27.3929L18.8195 27.3984C15.9703 27.3984 14.7453 27.4148 14.6633 27.4585C14.5977 27.4913 14.3625 27.6937 14.1438 27.907L13.75 28.3007L10.9719 25.5226L8.19922 22.7499H7.94766C7.75625 22.7499 7.64687 22.7882 7.48281 22.9085C7.23125 23.0945 5.21875 25.1179 5.0875 25.3203C5.03828 25.3913 5 25.5609 5 25.6921C5 26.0312 5.21875 26.2499 5.55781 26.2499C5.68906 26.2499 5.85859 26.2117 5.92969 26.1624C6.00625 26.1132 6.4875 25.6538 6.99609 25.1507L7.92578 24.2265L10.9773 27.2781L14.0234 30.3242L13.1703 31.1718C12.7 31.6367 12.2461 32.1179 12.1586 32.2328C11.6719 32.889 12.3609 33.5781 13.0172 33.0913C13.2688 32.9054 15.2812 30.882 15.4125 30.6796C15.4617 30.6085 15.5 30.439 15.5 30.3078C15.5 30.0781 15.4727 30.0398 15.0625 29.6187L14.625 29.1703L14.9148 28.8859L15.2047 28.6015H19.2406H23.2766L23.4461 28.4812C23.6867 28.3117 29.593 23.4828 29.8172 23.2749C29.9594 23.1437 32.6664 18.9054 32.9344 18.3913C32.9727 18.3257 33 18.1671 33 18.0413C33 17.8281 32.9727 17.7788 32.7211 17.5437C32.568 17.4015 32.2781 17.2046 32.0812 17.1062C31.7641 16.9476 31.6656 16.9257 31.2008 16.9148C30.8617 16.9038 30.5719 16.9257 30.3914 16.9804Z" fill="#D63333"/>
<path d="M19.4547 16.1827C19.8185 16.1827 20.1361 16.1077 20.4075 15.9575C20.6846 15.8016 20.9012 15.5735 21.0571 15.2733H22.2437C22.0185 15.8507 21.6576 16.2953 21.161 16.6071C20.6644 16.9189 20.0957 17.0748 19.4547 17.0748C18.7792 17.0748 18.1786 16.893 17.6532 16.5292C17.1277 16.1596 16.7611 15.6688 16.5532 15.0568H15.7563V14.3812H16.3973C16.3857 14.2195 16.38 14.0925 16.38 14.0001C16.38 13.9077 16.3857 13.7806 16.3973 13.619H15.7563V12.9434H16.5532C16.7611 12.3313 17.1277 11.8434 17.6532 11.4796C18.1786 11.1101 18.7792 10.9253 19.4547 10.9253C20.0899 10.9253 20.6558 11.0841 21.1524 11.4017C21.6547 11.7135 22.0185 12.1581 22.2437 12.7355H21.0571C20.9012 12.4353 20.6846 12.2101 20.4075 12.0599C20.1361 11.904 19.8185 11.8261 19.4547 11.8261C19.0332 11.8261 18.6608 11.9242 18.3374 12.1206C18.0198 12.3169 17.7773 12.5912 17.6099 12.9434H19.4547V13.619H17.4193C17.402 13.7402 17.3933 13.8673 17.3933 14.0001C17.3933 14.1329 17.402 14.2599 17.4193 14.3812H19.4547V15.0568H17.6099C17.7773 15.4148 18.0198 15.6919 18.3374 15.8882C18.6608 16.0846 19.0332 16.1827 19.4547 16.1827Z" fill="#D63333"/>
</g>
</g>
</g>
<defs>
<clipPath id="clip0_252_489">
<rect y="0.25" width="38" height="38" rx="19" fill="white"/>
</clipPath>
<clipPath id="clip1_252_489">
<rect width="28" height="28" fill="white" transform="translate(5 5.25)"/>
</clipPath>
<clipPath id="clip2_252_489">
<rect width="28" height="28" fill="white" transform="translate(5 5.25)"/>
</clipPath>
</defs>
</svg>
