<svg width="50" height="50" viewBox="0 0 50 50" fill="none" xmlns="http://www.w3.org/2000/svg">
<rect y="0.000488281" width="50" height="50" rx="25" fill="#F3F3F3"/>
<g clip-path="url(#clip0_248_287)">
<path d="M20.0586 15.6135C18.7578 15.7815 17.6758 16.2971 16.7461 17.1878C16.0781 17.8245 15.6016 18.5706 15.3008 19.4339C15.0547 20.1409 15.0195 20.387 15.0195 21.3479C15.0234 22.094 15.0312 22.2542 15.1055 22.5628C15.3672 23.637 15.8672 24.5784 16.5586 25.301C16.7656 25.5159 16.7852 25.5471 16.7305 25.594C16.6055 25.6956 16.3633 26.1135 16.2891 26.3596C16.1914 26.676 16.1836 27.2385 16.2734 27.5432C16.4727 28.219 17.0195 28.7659 17.6562 28.9339L17.9297 29.0003V29.18C17.9297 29.6448 18.1523 30.1487 18.5352 30.5315C18.8945 30.8948 19.3906 31.1331 19.793 31.1331C19.8984 31.1331 19.9258 31.1487 19.9414 31.2385C20.0195 31.5979 20.0547 31.7112 20.1641 31.93C20.2344 32.0706 20.3828 32.2659 20.5234 32.4026C20.9648 32.8362 21.4922 33.0315 22.1094 32.9964L22.4414 32.9768L22.5898 33.2854C23 34.1487 23.9961 34.6018 24.9414 34.3557C25.3398 34.2503 25.5391 34.1135 26.0977 33.555C26.5391 33.1175 26.6523 32.9807 26.7695 32.7425C26.8477 32.5862 26.9219 32.3753 26.9336 32.2737C26.9805 31.9143 26.9648 31.9339 27.2539 31.8792C27.5391 31.8284 27.9414 31.637 28.1797 31.4378C28.5273 31.1526 28.8047 30.6487 28.8594 30.1995L28.8867 29.9807L29.1055 29.9534C29.5547 29.8987 30.0547 29.6214 30.3477 29.2737C30.5352 29.0471 30.7422 28.6018 30.7891 28.3167L30.832 28.0589L31.0781 28.0198C31.5703 27.9339 32.0664 27.6292 32.3633 27.2229C32.5703 26.9417 32.6836 26.6526 32.7422 26.2542L32.7852 25.9573L33.2422 25.4885C34.0312 24.676 34.4102 24.0823 34.707 23.1917C34.9414 22.4846 34.9805 22.219 34.9805 21.3284C34.9805 20.4378 34.9414 20.1721 34.707 19.4651C34.2305 18.0276 33.0938 16.7581 31.7148 16.1214C30.9609 15.7698 30.3711 15.6292 29.4922 15.5979C27.8672 15.5393 26.4102 16.0862 25.2656 17.1839L25 17.4339L24.7383 17.1839C23.8711 16.3557 22.7852 15.8245 21.5898 15.6487C21.2188 15.5901 20.3672 15.5745 20.0586 15.6135ZM30.2852 17.0081C31.2539 17.2581 32.1914 17.8909 32.8164 18.719C33.1211 19.1253 33.4492 19.801 33.582 20.2932C33.6758 20.6409 33.6875 20.7542 33.6875 21.3284C33.6914 21.9143 33.6797 22.0081 33.582 22.3635C33.3828 23.0823 32.957 23.8479 32.457 24.3831L32.2305 24.6292L29.8555 22.2542C28.5508 20.9495 27.4648 19.8831 27.4453 19.8831C27.4297 19.8831 27.2656 20.0237 27.0859 20.1956C26.6562 20.5979 26.3633 20.7425 25.9219 20.7698C25.3945 20.801 25.0195 20.637 24.5703 20.176L24.3555 19.9573L25.3516 18.9729C26.3594 17.9768 26.7109 17.6878 27.2656 17.3909C27.625 17.1956 28.1602 17.012 28.5742 16.9339C29.0391 16.8479 29.7969 16.8792 30.2852 17.0081ZM21.8477 17.0432C22.543 17.2268 23.2305 17.6057 23.7812 18.1096L24.0703 18.3714L23.2852 19.1565C22.8516 19.5901 22.5 19.9612 22.5 19.9846C22.5 20.0589 23.9219 21.426 24.1758 21.6018C24.7031 21.9573 25.1367 22.0862 25.8203 22.0862C26.375 22.0862 26.6523 22.0276 27.0938 21.8206L27.3711 21.6878L29.3672 23.6878C31.4922 25.8167 31.4844 25.8089 31.4258 26.1253C31.3477 26.5745 30.8633 26.8401 30.457 26.6643C30.3867 26.6331 29.6836 25.9612 28.8672 25.1409C28.0625 24.3323 27.3867 23.6721 27.3633 23.6721C27.3125 23.6721 26.4453 24.5393 26.4453 24.5901C26.4453 24.6135 27.1055 25.2893 27.9141 26.094C28.7344 26.9104 29.4062 27.6135 29.4375 27.6839C29.6133 28.0901 29.3477 28.5745 28.8984 28.6526C28.5898 28.7112 28.5547 28.6839 26.9414 27.0745L25.4297 25.5667L24.9531 26.0471L24.4727 26.5237L25.9805 28.0354C27.168 29.2268 27.5 29.5823 27.5391 29.6995C27.6719 30.1175 27.3203 30.5862 26.8789 30.5862C26.6641 30.5862 26.5547 30.5354 26.2969 30.3284C25.8398 29.9573 25.4453 29.8284 24.832 29.8479L24.4531 29.8635L24.3906 29.68C24.1953 29.094 23.5117 28.5471 22.832 28.4339C22.5195 28.3792 22.5273 28.387 22.4805 28.1057C22.4688 28.0198 22.3945 27.8245 22.3203 27.6682C22.0742 27.1487 21.543 26.7229 20.9883 26.594L20.7812 26.5432V26.3284C20.7773 25.5003 20.1172 24.6956 19.2578 24.4729C18.8906 24.3753 18.3789 24.4065 18.0469 24.5432L17.793 24.6487L17.6016 24.4612C17.0195 23.8987 16.5742 23.0589 16.3828 22.1526C16.2969 21.7425 16.2969 20.9417 16.3828 20.4964C16.6797 18.969 17.7617 17.6995 19.2188 17.1682C19.7852 16.9612 20.1094 16.9143 20.8203 16.93C21.3594 16.9417 21.5273 16.9612 21.8477 17.0432ZM19.0547 25.7971C19.3047 25.926 19.4531 26.1721 19.4531 26.4534C19.4531 26.6917 19.3633 26.8323 18.9688 27.2229C18.4805 27.6995 18.2852 27.7776 17.9492 27.6214C17.6172 27.4729 17.4492 27.137 17.5391 26.8089C17.582 26.6643 17.6641 26.551 17.9062 26.2932C18.3164 25.8675 18.5078 25.7425 18.7578 25.7425C18.8633 25.7425 18.9961 25.7659 19.0547 25.7971ZM20.8789 27.9729C21.1484 28.1604 21.2656 28.4807 21.1719 28.7737C21.1133 28.9573 20.4844 29.6175 20.2656 29.7307C19.7227 30.0081 19.1055 29.469 19.2969 28.8831C19.3594 28.6956 19.9805 28.0471 20.207 27.93C20.4102 27.8284 20.6914 27.8479 20.8789 27.9729ZM22.7617 29.7854C22.9492 29.8635 23.0391 29.9456 23.1289 30.1253C23.2188 30.301 23.2227 30.5471 23.1406 30.7151C23.0547 30.887 22.4336 31.512 22.2578 31.6057C22.082 31.6956 21.8828 31.6995 21.6914 31.6214C21.4961 31.5393 21.4102 31.4573 21.3242 31.2698C21.1641 30.9221 21.2461 30.6995 21.707 30.2307C22.1797 29.7464 22.4219 29.6448 22.7617 29.7854ZM25.125 31.1721C25.3203 31.2268 25.5039 31.387 25.5898 31.5823C25.7461 31.926 25.6562 32.1526 25.1484 32.6448C24.75 33.0315 24.6602 33.0862 24.3906 33.0862C23.8516 33.0862 23.5312 32.4846 23.8203 32.0276C23.9805 31.7776 24.5625 31.2346 24.7266 31.1839C24.9062 31.1292 24.9531 31.1253 25.125 31.1721Z" fill="#1D3A70"/>
</g>
<defs>
<clipPath id="clip0_248_287">
<rect width="20" height="20" fill="white" transform="translate(15 15.0005)"/>
</clipPath>
</defs>
</svg>
