<svg width="18" height="18" viewBox="0 0 18 18" fill="none" xmlns="http://www.w3.org/2000/svg">
<path d="M7.32046 10.7751C6.88921 10.3446 6.62671 9.75963 6.62671 9.10338C6.62671 7.78863 7.68571 6.72888 8.99971 6.72888C9.64996 6.72888 10.2485 6.99213 10.6722 7.42263" stroke="#D6D6D6" stroke-width="1.2" stroke-linecap="round" stroke-linejoin="round"/>
<path d="M11.3286 9.52417C11.1546 10.4917 10.3926 11.2552 9.42584 11.4307" stroke="#D6D6D6" stroke-width="1.2" stroke-linecap="round" stroke-linejoin="round"/>
<path d="M4.99095 13.1042C3.80069 12.1697 2.79269 10.8047 2.06219 9.10298C2.80019 7.39373 3.81494 6.02123 5.0127 5.07923C6.20295 4.13723 7.5762 3.62573 8.9997 3.62573C10.4314 3.62573 11.8039 4.14473 13.0017 5.09348" stroke="#D6D6D6" stroke-width="1.2" stroke-linecap="round" stroke-linejoin="round"/>
<path d="M14.5857 6.74316C15.1017 7.42866 15.5555 8.21991 15.9372 9.10266C14.462 12.5204 11.855 14.5792 8.99971 14.5792C8.35246 14.5792 7.71421 14.4742 7.10071 14.2694" stroke="#D6D6D6" stroke-width="1.2" stroke-linecap="round" stroke-linejoin="round"/>
<path d="M14.9152 3.18726L3.08472 15.0178" stroke="#D6D6D6" stroke-width="1.2" stroke-linecap="round" stroke-linejoin="round"/>
</svg>
