<svg width="19" height="19" viewBox="0 0 19 19" fill="none" xmlns="http://www.w3.org/2000/svg">
<g clip-path="url(#clip0_248_226)">
<g clip-path="url(#clip1_248_226)">
<path d="M5.98397 0.766973C5.56912 0.918146 5.25623 1.1994 5.05584 1.60721L4.94334 1.83924L4.92577 5.53064L4.90819 9.21854L4.61287 9.26424C4.2578 9.32049 3.69178 9.5033 3.3367 9.6826C1.99373 10.3541 1.01639 11.6584 0.763265 13.1244C0.692953 13.5322 0.689437 14.3267 0.75975 14.7592C1.07967 16.7174 2.70741 18.3381 4.66561 18.6439C4.97147 18.6931 5.74842 18.6967 11.2539 18.6896L17.4941 18.6791L17.7402 18.5596C18.0637 18.4013 18.3414 18.1236 18.4996 17.8002L18.6191 17.5541L18.6297 11.0853C18.6332 7.52752 18.6297 4.57791 18.6191 4.52869C18.5945 4.43729 15.1879 0.988459 14.9312 0.798615L14.7941 0.696661H10.484C6.31795 0.700176 6.16678 0.700176 5.98397 0.766973ZM14.0664 3.34041C14.0664 4.84158 14.0699 4.94002 14.1332 5.03494C14.1683 5.08768 14.2457 5.16502 14.2984 5.20018C14.3933 5.26346 14.4918 5.26697 15.993 5.26697H17.582L17.575 11.2506L17.5644 17.2377L17.4871 17.3607C17.4449 17.4275 17.357 17.5154 17.2937 17.5541C17.1812 17.6244 17.1074 17.6244 12.8289 17.6349L8.48358 17.642L8.76483 17.3713C9.44686 16.7068 9.94256 15.8103 10.1113 14.9279C10.143 14.7662 10.1746 14.601 10.1851 14.5553L10.1992 14.4779H13.0222C15.7258 14.4779 15.8453 14.4744 15.9437 14.4111C16.1055 14.3021 16.1758 14.1685 16.1758 13.9506C16.1758 13.7431 16.109 13.606 15.9613 13.5006C15.884 13.4443 15.6308 13.4408 13.0328 13.4232L10.1851 13.4056L10.1394 13.1244C10.0515 12.59 9.80897 11.9361 9.53123 11.4861L9.42577 11.3138H12.6355C15.7187 11.3138 15.8453 11.3103 15.9437 11.2471C16.1055 11.1381 16.1758 11.0045 16.1758 10.7865C16.1758 10.5685 16.1055 10.4349 15.9437 10.326C15.8453 10.2627 15.7082 10.2592 12.1609 10.2592H8.48006L8.21991 10.0728C7.6785 9.6826 6.90506 9.35916 6.29334 9.26424L5.99803 9.21854V5.68885V2.15565L6.07537 2.0326C6.15975 1.89549 6.2617 1.82166 6.41991 1.78299C6.47967 1.76893 8.22342 1.75838 10.2976 1.75486L14.0664 1.75135V3.34041ZM15.9648 3.38611L16.791 4.21229H15.9543H15.1211V3.38611C15.1211 2.9326 15.1246 2.55994 15.1316 2.55994C15.1351 2.55994 15.5113 2.9326 15.9648 3.38611ZM5.85741 10.3084C6.56053 10.3646 7.35155 10.7232 7.93866 11.2576C8.40975 11.6865 8.83514 12.3967 9.01092 13.0365C9.08123 13.2931 9.09178 13.4197 9.09178 13.9506C9.09178 14.6678 9.03553 14.9385 8.77186 15.4939C8.3992 16.2814 7.80155 16.8826 7.01756 17.2588C5.40389 18.0287 3.50194 17.5224 2.44725 16.0424C2.23631 15.7506 1.99725 15.2338 1.8953 14.8646C1.82498 14.6045 1.81444 14.4849 1.81444 13.9506C1.81444 13.2369 1.87069 12.9662 2.12733 12.4178C2.33475 11.9818 2.53162 11.7006 2.86561 11.3631C3.48787 10.7443 4.28592 10.3681 5.12967 10.2978C5.29842 10.2838 5.4742 10.2767 5.52342 10.2803C5.57264 10.2873 5.72381 10.2978 5.85741 10.3084Z" fill="#FFC727"/>
<path d="M7.61875 7.16201C7.45703 7.271 7.38672 7.40459 7.38672 7.62256C7.38672 7.84053 7.45703 7.97412 7.61875 8.08311C7.71719 8.14639 7.86133 8.1499 11.7812 8.1499C15.7012 8.1499 15.8453 8.14639 15.9437 8.08311C16.1055 7.97412 16.1758 7.84053 16.1758 7.62256C16.1758 7.40459 16.1055 7.271 15.9437 7.16201C15.8453 7.09873 15.7012 7.09521 11.7812 7.09521C7.86133 7.09521 7.71719 7.09873 7.61875 7.16201Z" fill="#FFC727"/>
<path d="M5.15782 11.3805C5.10508 11.4157 5.02774 11.493 4.99258 11.5458C4.9293 11.6407 4.92579 11.7321 4.92579 12.8958C4.92579 14.5938 4.83438 14.4778 6.15626 14.4778C7.14415 14.4778 7.16876 14.4708 7.31993 14.2458C7.41133 14.1087 7.41133 13.7923 7.31993 13.6552C7.1793 13.4442 7.10548 13.4231 6.51837 13.4231H5.98048V12.5337C5.98048 11.7251 5.97344 11.6407 5.91368 11.5458C5.80469 11.3841 5.6711 11.3138 5.45313 11.3138C5.32305 11.3138 5.22813 11.3348 5.15782 11.3805Z" fill="#FFC727"/>
</g>
</g>
<defs>
<clipPath id="clip0_248_226">
<rect width="18" height="18" fill="white" transform="translate(0.645142 0.649902)"/>
</clipPath>
<clipPath id="clip1_248_226">
<rect width="18" height="18" fill="white" transform="translate(0.671875 0.696777)"/>
</clipPath>
</defs>
</svg>
