<svg width="19" height="19" viewBox="0 0 19 19" fill="none" xmlns="http://www.w3.org/2000/svg">
<g clip-path="url(#clip0_115_879)">
<path d="M5.98397 0.267462C5.56912 0.418634 5.25623 0.699884 5.05584 1.1077L4.94334 1.33973L4.92577 5.03113L4.90819 8.71902L4.61287 8.76473C4.2578 8.82098 3.69178 9.00379 3.3367 9.18309C1.99373 9.85457 1.01639 11.1589 0.763265 12.6249C0.692953 13.0327 0.689437 13.8272 0.75975 14.2596C1.07967 16.2179 2.70741 17.8386 4.66561 18.1444C4.97147 18.1936 5.74842 18.1971 11.2539 18.1901L17.4941 18.1796L17.7402 18.06C18.0637 17.9018 18.3414 17.6241 18.4996 17.3007L18.6191 17.0546L18.6297 10.5858C18.6332 7.02801 18.6297 4.0784 18.6191 4.02918C18.5945 3.93777 15.1879 0.488947 14.9312 0.299103L14.7941 0.197149H10.484C6.31795 0.200665 6.16678 0.200665 5.98397 0.267462ZM14.0664 2.8409C14.0664 4.34207 14.0699 4.44051 14.1332 4.53543C14.1683 4.58816 14.2457 4.66551 14.2984 4.70066C14.3933 4.76395 14.4918 4.76746 15.993 4.76746H17.582L17.575 10.7511L17.5644 16.7382L17.4871 16.8612C17.4449 16.928 17.357 17.0159 17.2937 17.0546C17.1812 17.1249 17.1074 17.1249 12.8289 17.1354L8.48358 17.1425L8.76483 16.8718C9.44686 16.2073 9.94256 15.3108 10.1113 14.4284C10.143 14.2667 10.1746 14.1014 10.1851 14.0557L10.1992 13.9784H13.0222C15.7258 13.9784 15.8453 13.9749 15.9437 13.9116C16.1055 13.8026 16.1758 13.669 16.1758 13.4511C16.1758 13.2436 16.109 13.1065 15.9613 13.0011C15.884 12.9448 15.6308 12.9413 13.0328 12.9237L10.1851 12.9061L10.1394 12.6249C10.0515 12.0905 9.80897 11.4366 9.53123 10.9866L9.42577 10.8143H12.6355C15.7187 10.8143 15.8453 10.8108 15.9437 10.7475C16.1055 10.6386 16.1758 10.505 16.1758 10.287C16.1758 10.069 16.1055 9.93543 15.9437 9.82645C15.8453 9.76316 15.7082 9.75965 12.1609 9.75965H8.48006L8.21991 9.57332C7.6785 9.18309 6.90506 8.85965 6.29334 8.76473L5.99803 8.71902V5.18934V1.65613L6.07537 1.53309C6.15975 1.39598 6.2617 1.32215 6.41991 1.28348C6.47967 1.26941 8.22342 1.25887 10.2976 1.25535L14.0664 1.25184V2.8409ZM15.9648 2.8866L16.791 3.71277H15.9543H15.1211V2.8866C15.1211 2.43309 15.1246 2.06043 15.1316 2.06043C15.1351 2.06043 15.5113 2.43309 15.9648 2.8866ZM5.85741 9.80887C6.56053 9.86512 7.35155 10.2237 7.93866 10.7581C8.40975 11.187 8.83514 11.8971 9.01092 12.537C9.08123 12.7936 9.09178 12.9202 9.09178 13.4511C9.09178 14.1682 9.03553 14.4389 8.77186 14.9944C8.3992 15.7819 7.80155 16.3831 7.01756 16.7593C5.40389 17.5292 3.50194 17.0229 2.44725 15.5429C2.23631 15.2511 1.99725 14.7343 1.8953 14.3651C1.82498 14.105 1.81444 13.9854 1.81444 13.4511C1.81444 12.7374 1.87069 12.4667 2.12733 11.9182C2.33475 11.4823 2.53162 11.2011 2.86561 10.8636C3.48787 10.2448 4.28592 9.86863 5.12967 9.79832C5.29842 9.78426 5.4742 9.77723 5.52342 9.78074C5.57264 9.78777 5.72381 9.79832 5.85741 9.80887Z" fill="#C6C6C6"/>
<path d="M7.61875 6.6625C7.45703 6.77148 7.38672 6.90508 7.38672 7.12305C7.38672 7.34102 7.45703 7.47461 7.61875 7.58359C7.71719 7.64688 7.86133 7.65039 11.7812 7.65039C15.7012 7.65039 15.8453 7.64688 15.9437 7.58359C16.1055 7.47461 16.1758 7.34102 16.1758 7.12305C16.1758 6.90508 16.1055 6.77148 15.9437 6.6625C15.8453 6.59922 15.7012 6.5957 11.7812 6.5957C7.86133 6.5957 7.71719 6.59922 7.61875 6.6625Z" fill="#C6C6C6"/>
<path d="M5.15782 10.881C5.10508 10.9162 5.02774 10.9935 4.99258 11.0463C4.9293 11.1412 4.92579 11.2326 4.92579 12.3963C4.92579 14.0943 4.83438 13.9783 6.15626 13.9783C7.14415 13.9783 7.16876 13.9713 7.31993 13.7463C7.41133 13.6092 7.41133 13.2928 7.31993 13.1556C7.1793 12.9447 7.10548 12.9236 6.51837 12.9236H5.98048V12.0342C5.98048 11.2256 5.97344 11.1412 5.91368 11.0463C5.80469 10.8846 5.6711 10.8142 5.45313 10.8142C5.32305 10.8142 5.22813 10.8353 5.15782 10.881Z" fill="#C6C6C6"/>
</g>
<defs>
<clipPath id="clip0_115_879">
<rect width="18" height="18" fill="white" transform="translate(0.671875 0.197266)"/>
</clipPath>
</defs>
</svg>
