<svg width="16" height="16" viewBox="0 0 16 16" fill="none" xmlns="http://www.w3.org/2000/svg">
<path d="M7.65999 0.661979C7.12561 0.739323 6.51741 0.971354 6.09202 1.27018C5.83186 1.45299 1.83811 4.74714 1.59553 4.98268C1.18772 5.3694 0.867798 5.93542 0.720142 6.51901L0.639282 6.8319V9.90807C0.639282 12.71 0.646313 13.0053 0.699048 13.2198C0.955688 14.2217 1.51116 14.9389 2.35842 15.3643C2.86467 15.621 3.03342 15.6456 4.20061 15.6667C5.06545 15.6772 5.26936 15.6702 5.48733 15.621C6.04983 15.4979 6.48225 15.069 6.61233 14.5135C6.65803 14.3307 6.66858 14.0178 6.66858 12.9069C6.66858 12.0315 6.68264 11.462 6.70725 11.3424C6.76702 11.0542 6.90413 10.801 7.12561 10.562C7.71624 9.93268 8.57405 9.93268 9.16467 10.5655C9.38616 10.801 9.52327 11.0542 9.58303 11.3424C9.60764 11.462 9.6217 12.0315 9.6217 12.9069C9.6217 14.0178 9.63225 14.3307 9.67795 14.5135C9.80803 15.069 10.2405 15.4979 10.803 15.621C11.0209 15.6702 11.2248 15.6772 12.0897 15.6667C12.9967 15.6526 13.1514 15.6421 13.3905 15.5753C13.8932 15.4382 14.3432 15.1745 14.7229 14.7983C15.2291 14.2885 15.535 13.6592 15.6334 12.928C15.6615 12.7241 15.6686 11.7116 15.6615 9.71471C15.6475 6.82487 15.6475 6.79323 15.5701 6.49792C15.4155 5.91432 15.0955 5.36237 14.6772 4.9651C14.4205 4.71901 10.469 1.46003 10.1948 1.27018C9.88538 1.05221 9.42834 0.848307 9.0346 0.746354C8.65139 0.651432 8.0221 0.609244 7.65999 0.661979Z" fill="#FFC727"/>
</svg>
