<svg width="18" height="19" viewBox="0 0 18 19" fill="none" xmlns="http://www.w3.org/2000/svg">
<g clip-path="url(#clip0_447_172)">
<path d="M8.51484 2.26159C7.98047 2.33893 7.37227 2.57096 6.94688 2.86979C6.68672 3.0526 2.69297 6.34674 2.45039 6.58229C2.04258 6.96901 1.72266 7.53503 1.575 8.11862L1.49414 8.43151V11.5077C1.49414 14.3096 1.50117 14.6049 1.55391 14.8194C1.81055 15.8214 2.36602 16.5385 3.21328 16.9639C3.71953 17.2206 3.88828 17.2452 5.05547 17.2663C5.92031 17.2768 6.12422 17.2698 6.34219 17.2206C6.90469 17.0975 7.33711 16.6686 7.46719 16.1132C7.51289 15.9303 7.52344 15.6174 7.52344 14.5065C7.52344 13.6311 7.5375 13.0616 7.56211 12.9421C7.62188 12.6538 7.75898 12.4007 7.98047 12.1616C8.57109 11.5323 9.42891 11.5323 10.0195 12.1651C10.241 12.4007 10.3781 12.6538 10.4379 12.9421C10.4625 13.0616 10.4766 13.6311 10.4766 14.5065C10.4766 15.6174 10.4871 15.9303 10.5328 16.1132C10.6629 16.6686 11.0953 17.0975 11.6578 17.2206C11.8758 17.2698 12.0797 17.2768 12.9445 17.2663C13.8516 17.2522 14.0063 17.2417 14.2453 17.1749C14.748 17.0378 15.198 16.7741 15.5777 16.3979C16.084 15.8882 16.3898 15.2589 16.4883 14.5276C16.5164 14.3237 16.5234 13.3112 16.5164 11.3143C16.5023 8.42448 16.5023 8.39284 16.425 8.09753C16.2703 7.51393 15.9504 6.96198 15.532 6.56471C15.2754 6.31862 11.3238 3.05964 11.0496 2.86979C10.7402 2.65182 10.2832 2.44792 9.88945 2.34596C9.50625 2.25104 8.87695 2.20885 8.51484 2.26159Z" fill="#B3B3B3"/>
</g>
<defs>
<clipPath id="clip0_447_172">
<rect width="18" height="18" fill="white" transform="translate(0 0.75)"/>
</clipPath>
</defs>
</svg>
