<svg width="20" height="21" viewBox="0 0 20 21" fill="none" xmlns="http://www.w3.org/2000/svg">
<path d="M8.98439 1.36169C6.91017 1.6156 4.99611 2.54138 3.53126 3.99841C2.15626 5.3656 1.28517 7.06091 0.933608 9.04528C0.812514 9.71325 0.800795 11.1351 0.91017 11.8304C1.03517 12.6273 1.37111 13.7679 1.62111 14.2523C1.68751 14.3773 1.68361 14.4008 1.40236 15.8187L1.1172 17.2601L1.16408 17.5804C1.29689 18.514 2.01955 19.225 2.94923 19.3383L3.3008 19.3773L4.69142 19.1L6.08595 18.8226L6.50783 18.9945C7.57814 19.432 8.51955 19.6312 9.68751 19.6703C11.4531 19.7289 13.1016 19.3187 14.582 18.4554C17.0899 16.9906 18.7461 14.4984 19.1211 11.6234C19.1875 11.0922 19.1992 10.0453 19.1367 9.4945C18.9531 7.77575 18.2344 6.06091 17.1289 4.70153C16.75 4.23669 16.0117 3.52185 15.543 3.17028C14.3438 2.26794 13.0274 1.70544 11.5039 1.432C11.0117 1.34607 9.48048 1.3031 8.98439 1.36169ZM11.0742 3.10388C12.707 3.33825 14.2969 4.16638 15.4336 5.37732C18.2461 8.37341 18.1406 13.0336 15.1914 15.8734C12.9414 18.0375 9.68361 18.5804 6.82423 17.264C6.63673 17.1781 6.42189 17.0961 6.34376 17.0804C6.24611 17.0609 5.77345 17.1429 4.66798 17.3617L3.12892 17.6703L3.01955 17.5883C2.81251 17.4359 2.81642 17.4242 3.14064 15.7914C3.46095 14.1898 3.46486 14.1468 3.31251 13.8461C3.26955 13.7601 3.15626 13.4984 3.06251 13.2601C2.40626 11.6351 2.34767 9.84607 2.89455 8.182C3.63673 5.91638 5.41408 4.13903 7.6797 3.39685C8.78517 3.03357 9.91017 2.93591 11.0742 3.10388Z" fill="#1D3A70"/>
<path d="M9.68754 6.36545C9.00004 6.65451 8.96879 7.60373 9.63676 7.93967C9.81644 8.02951 10.1993 8.0217 10.3868 7.92404C10.9571 7.63498 11.0039 6.8342 10.4766 6.4631C10.336 6.36545 10.2657 6.34201 10.0469 6.3342C9.90238 6.32639 9.74223 6.34201 9.68754 6.36545Z" fill="#1D3A70"/>
<path d="M8.80862 8.89666C8.36722 9.10369 8.19534 9.6115 8.418 10.0607C8.53519 10.2951 8.75394 10.4592 8.9805 10.4904L9.13675 10.5138L9.14847 12.2951L9.16019 14.0763L9.25784 14.2521C9.31253 14.3459 9.42972 14.4787 9.52347 14.5451L9.69534 14.6623L10.3242 14.674C11.0352 14.6896 11.1797 14.6623 11.3946 14.4748C11.9063 14.0256 11.6719 13.0998 11.0196 13.0138L10.8633 12.9904L10.8516 11.2092L10.8399 9.42791L10.7422 9.25212C10.6875 9.15837 10.5703 9.02556 10.4766 8.95916L10.3047 8.84197L9.63675 8.83025C9.0469 8.82244 8.94534 8.83025 8.80862 8.89666Z" fill="#1D3A70"/>
</svg>
