<svg width="19" height="19" viewBox="0 0 19 19" fill="none" xmlns="http://www.w3.org/2000/svg">
<g clip-path="url(#clip0_7_265)">
<g clip-path="url(#clip1_7_265)">
<g clip-path="url(#clip2_7_265)">
<path d="M15.667 0.188119C15.0309 0.36926 14.6392 0.878984 14.6434 1.52351C14.6434 1.72572 14.6686 1.89843 14.715 2.00375L14.7908 2.17225L14.4201 2.54717C14.2179 2.75359 13.6955 3.2591 13.2616 3.67615L12.4781 4.43442L12.2085 4.34174C11.5892 4.13111 10.8689 4.40493 10.5656 4.9652C10.4603 5.15898 10.3634 5.54654 10.376 5.71083C10.3844 5.76981 10.2201 5.84985 9.52085 6.12367L8.65306 6.45646L8.48877 6.3006C8.21495 6.04363 7.91585 5.92989 7.51987 5.92989C7.11125 5.92989 6.81215 6.04784 6.53833 6.33009C6.24345 6.62918 6.17184 6.82296 6.16762 7.32847L6.16341 7.76237L5.32511 8.33528C4.86593 8.65123 4.4194 8.95453 4.33515 9.0093L4.18349 9.10619L3.9181 8.97138C3.23144 8.61753 2.4142 8.86186 2.04349 9.53166C1.92554 9.74229 1.91711 9.79284 1.91711 10.1804C1.91711 10.6691 2.00137 10.8965 2.28782 11.183C2.55322 11.4484 2.86074 11.5706 3.26515 11.5706C3.56424 11.5706 3.64007 11.5537 3.8844 11.4315C4.36463 11.1956 4.64688 10.7575 4.65109 10.2436C4.6553 10.0919 4.64266 9.92343 4.62581 9.86445C4.60054 9.76757 4.65952 9.71701 5.60314 9.0767L6.60574 8.39426L6.88798 8.53749C7.14074 8.67229 7.19971 8.68493 7.51144 8.68493C7.80211 8.68493 7.89479 8.66808 8.10963 8.56276C8.57723 8.34371 8.88054 7.89717 8.9016 7.39166L8.91003 7.18103L9.78203 6.84402L10.654 6.50701L10.7846 6.64182C11.0247 6.89036 11.3112 7.01253 11.6903 7.03359C11.9599 7.04623 12.0737 7.03359 12.2633 6.96198C12.5666 6.84824 12.8404 6.60812 12.9962 6.32166C13.1521 6.0352 13.19 5.55497 13.0847 5.23481C13.0468 5.12107 13.0173 5.01576 13.0173 5.00733C13.0173 4.9989 13.5355 4.48497 14.1716 3.86993L15.3258 2.74516L15.4648 2.82099C15.5575 2.86733 15.7386 2.89682 15.9788 2.90524C16.3284 2.92209 16.3705 2.91367 16.6191 2.7915C16.9477 2.62721 17.192 2.36182 17.3184 2.03324C17.4405 1.70465 17.4195 1.21599 17.2636 0.912685C17.133 0.655717 16.8297 0.365047 16.577 0.25552C16.3368 0.150205 15.9156 0.116505 15.667 0.188119ZM16.2863 0.980087C16.737 1.19493 16.7623 1.80997 16.3368 2.07115C15.9493 2.30705 15.4059 2.00375 15.4059 1.553C15.4059 1.30024 15.528 1.10225 15.7555 0.9843C15.9872 0.87056 16.0588 0.866346 16.2863 0.980087ZM12.0442 5.10422C12.4823 5.32749 12.5034 5.94253 12.0821 6.19949C11.8925 6.31324 11.6356 6.30902 11.4586 6.18686C11.0458 5.90883 11.0585 5.35698 11.4839 5.11686C11.6861 4.9989 11.8378 4.99469 12.0442 5.10422ZM7.79369 6.75556C8.02117 6.87351 8.14333 7.0715 8.14333 7.32426C8.14333 7.77501 7.59991 8.07831 7.21235 7.84241C6.99751 7.71182 6.90062 7.52225 6.92168 7.26949C6.93853 7.01253 7.03963 6.86509 7.26711 6.74713C7.48196 6.63761 7.56621 6.64182 7.79369 6.75556ZM3.51369 9.62855C3.68219 9.70016 3.817 9.86445 3.88018 10.0793C3.92231 10.2183 3.9181 10.2604 3.82963 10.4374C3.64849 10.7997 3.32833 10.9218 3.00396 10.7533C2.29204 10.391 2.77648 9.32103 3.51369 9.62855Z" fill="#C6C6C6"/>
<path d="M14.6181 4.97363L14.4917 5.09579V11.5074V17.9189L14.6181 18.0411L14.7402 18.1675L16.0461 18.1548C17.3436 18.1422 17.3563 18.1422 17.4489 18.0453L17.5458 17.9484V11.5074V5.0663L17.4489 4.96941C17.3563 4.87252 17.3436 4.87252 16.0461 4.85989L14.7402 4.84725L14.6181 4.97363ZM16.8086 11.5074V17.405H16.0293H15.25V11.5074V5.60973H16.0293H16.8086V11.5074Z" fill="#C6C6C6"/>
<path d="M10.3592 8.89134L10.2371 9.01351V13.4662V17.9189L10.3634 18.0411L10.4856 18.1675L11.7999 18.1548L13.1101 18.1422L13.2112 18.0243L13.3123 17.9063V13.462V9.01351L13.1901 8.89134L13.0679 8.76918H11.7747H10.4814L10.3592 8.89134ZM12.554 13.4662V17.405H11.7747H10.9953V13.4662V9.52744H11.7747H12.554V13.4662Z" fill="#C6C6C6"/>
<path d="M6.10447 10.9555L5.9823 11.0777V14.4941V17.9063L6.0834 18.0243L6.1845 18.1422L7.49462 18.1548L8.80895 18.1675L8.93112 18.0411L9.0575 17.9189V14.4983V11.0777L8.93533 10.9555L8.81317 10.8333H7.5199H6.22663L6.10447 10.9555ZM8.29923 14.4983V17.405H7.5199H6.74057V14.4983V11.5916H7.5199H8.29923V14.4983Z" fill="#C6C6C6"/>
<path d="M1.84964 13.9085L1.72327 14.0307L1.7359 15.9896L1.74854 17.9484L1.84543 18.0453C1.93811 18.1422 1.95075 18.1422 3.24823 18.1548L4.55413 18.1675L4.6763 18.0411L4.80268 17.9189V15.9643C4.79846 14.4983 4.78583 13.997 4.74791 13.9465C4.62996 13.7906 4.53728 13.7822 3.24401 13.7822H1.97181L1.84964 13.9085ZM4.04441 15.9727V17.405H3.26508H2.48575V15.9727V14.5404H3.26508H4.04441V15.9727Z" fill="#C6C6C6"/>
</g>
</g>
</g>
<defs>
<clipPath id="clip0_7_265">
<rect width="18" height="18" fill="white" transform="translate(0.645142 0.150146)"/>
</clipPath>
<clipPath id="clip1_7_265">
<rect width="18" height="18" fill="white" transform="translate(0.645142 0.150146)"/>
</clipPath>
<clipPath id="clip2_7_265">
<rect width="18" height="18" fill="white" transform="translate(0.645142 0.150146)"/>
</clipPath>
</defs>
</svg>
