<svg width="19" height="19" viewBox="0 0 19 19" fill="none" xmlns="http://www.w3.org/2000/svg">
<g clip-path="url(#clip0_302_1293)">
<g clip-path="url(#clip1_302_1293)">
<g clip-path="url(#clip2_302_1293)">
<path d="M15.667 0.688363C15.0309 0.869504 14.6392 1.37923 14.6434 2.02376C14.6434 2.22596 14.6686 2.39868 14.715 2.50399L14.7908 2.6725L14.4201 3.04742C14.2179 3.25383 13.6955 3.75935 13.2616 4.17639L12.4781 4.93466L12.2085 4.84198C11.5892 4.63135 10.8689 4.90517 10.5656 5.46545C10.4603 5.65923 10.3634 6.04679 10.376 6.21108C10.3844 6.27005 10.2201 6.35009 9.52085 6.62391L8.65306 6.95671L8.48877 6.80084C8.21495 6.54387 7.91585 6.43013 7.51987 6.43013C7.11125 6.43013 6.81215 6.54809 6.53833 6.83033C6.24345 7.12942 6.17184 7.3232 6.16762 7.82872L6.16341 8.26261L5.32511 8.83553C4.86593 9.15147 4.4194 9.45478 4.33515 9.50954L4.18349 9.60643L3.9181 9.47163C3.23144 9.11777 2.4142 9.3621 2.04349 10.0319C1.92554 10.2425 1.91711 10.2931 1.91711 10.6806C1.91711 11.1693 2.00137 11.3968 2.28782 11.6832C2.55322 11.9486 2.86074 12.0708 3.26515 12.0708C3.56424 12.0708 3.64007 12.054 3.8844 11.9318C4.36463 11.6959 4.64688 11.2578 4.65109 10.7438C4.6553 10.5922 4.64266 10.4237 4.62581 10.3647C4.60054 10.2678 4.65952 10.2173 5.60314 9.57694L6.60574 8.8945L6.88798 9.03773C7.14074 9.17253 7.19971 9.18517 7.51144 9.18517C7.80211 9.18517 7.89479 9.16832 8.10963 9.06301C8.57723 8.84395 8.88054 8.39742 8.9016 7.8919L8.91003 7.68127L9.78203 7.34427L10.654 7.00726L10.7846 7.14206C11.0247 7.3906 11.3112 7.51277 11.6903 7.53383C11.9599 7.54647 12.0737 7.53383 12.2633 7.46222C12.5666 7.34848 12.8404 7.10836 12.9962 6.8219C13.1521 6.53545 13.19 6.05521 13.0847 5.73505C13.0468 5.62131 13.0173 5.516 13.0173 5.50757C13.0173 5.49915 13.5355 4.98521 14.1716 4.37017L15.3258 3.24541L15.4648 3.32124C15.5575 3.36757 15.7386 3.39706 15.9788 3.40549C16.3284 3.42234 16.3705 3.41391 16.6191 3.29175C16.9477 3.12746 17.192 2.86206 17.3184 2.53348C17.4405 2.2049 17.4195 1.71624 17.2636 1.41293C17.133 1.15596 16.8297 0.865292 16.577 0.755764C16.3368 0.650449 15.9156 0.616749 15.667 0.688363ZM16.2863 1.48033C16.737 1.69517 16.7623 2.31021 16.3368 2.57139C15.9493 2.8073 15.4059 2.50399 15.4059 2.05324C15.4059 1.80049 15.528 1.6025 15.7555 1.48454C15.9872 1.3708 16.0588 1.36659 16.2863 1.48033ZM12.0442 5.60446C12.4823 5.82773 12.5034 6.44277 12.0821 6.69974C11.8925 6.81348 11.6356 6.80927 11.4586 6.6871C11.0458 6.40907 11.0585 5.85722 11.4839 5.6171C11.6861 5.49915 11.8378 5.49494 12.0442 5.60446ZM7.79369 7.2558C8.02117 7.37375 8.14333 7.57175 8.14333 7.8245C8.14333 8.27525 7.59991 8.57856 7.21235 8.34265C6.99751 8.21206 6.90062 8.02249 6.92168 7.76974C6.93853 7.51277 7.03963 7.36533 7.26711 7.24738C7.48196 7.13785 7.56621 7.14206 7.79369 7.2558ZM3.51369 10.1288C3.68219 10.2004 3.817 10.3647 3.88018 10.5795C3.92231 10.7186 3.9181 10.7607 3.82963 10.9376C3.64849 11.2999 3.32833 11.4221 3.00396 11.2536C2.29204 10.8913 2.77648 9.82127 3.51369 10.1288Z" fill="#FFC727"/>
<path d="M14.6181 5.47363L14.4917 5.59579V12.0074V18.4189L14.6181 18.5411L14.7402 18.6675L16.0461 18.6548C17.3436 18.6422 17.3563 18.6422 17.4489 18.5453L17.5458 18.4484V12.0074V5.5663L17.4489 5.46941C17.3563 5.37252 17.3436 5.37252 16.0461 5.35989L14.7402 5.34725L14.6181 5.47363ZM16.8086 12.0074V17.905H16.0293H15.25V12.0074V6.10973H16.0293H16.8086V12.0074Z" fill="#FFC727"/>
<path d="M10.3592 9.39134L10.2371 9.51351V13.9662V18.4189L10.3634 18.5411L10.4856 18.6675L11.7999 18.6548L13.1101 18.6422L13.2112 18.5243L13.3123 18.4063V13.962V9.51351L13.1901 9.39134L13.0679 9.26918H11.7747H10.4814L10.3592 9.39134ZM12.554 13.9662V17.905H11.7747H10.9953V13.9662V10.0274H11.7747H12.554V13.9662Z" fill="#FFC727"/>
<path d="M6.10447 11.4555L5.9823 11.5777V14.9941V18.4063L6.0834 18.5243L6.1845 18.6422L7.49462 18.6548L8.80895 18.6675L8.93112 18.5411L9.0575 18.4189V14.9983V11.5777L8.93533 11.4555L8.81317 11.3333H7.5199H6.22663L6.10447 11.4555ZM8.29923 14.9983V17.905H7.5199H6.74057V14.9983V12.0916H7.5199H8.29923V14.9983Z" fill="#FFC727"/>
<path d="M1.84964 14.4085L1.72327 14.5307L1.7359 16.4896L1.74854 18.4484L1.84543 18.5453C1.93811 18.6422 1.95075 18.6422 3.24823 18.6548L4.55413 18.6675L4.6763 18.5411L4.80268 18.4189V16.4643C4.79846 14.9983 4.78583 14.497 4.74791 14.4465C4.62996 14.2906 4.53728 14.2822 3.24401 14.2822H1.97181L1.84964 14.4085ZM4.04441 16.4727V17.905H3.26508H2.48575V16.4727V15.0404H3.26508H4.04441V16.4727Z" fill="#FFC727"/>
</g>
</g>
</g>
<defs>
<clipPath id="clip0_302_1293">
<rect width="18" height="18" fill="white" transform="translate(0.645142 0.649902)"/>
</clipPath>
<clipPath id="clip1_302_1293">
<rect width="18" height="18" fill="white" transform="translate(0.645142 0.649902)"/>
</clipPath>
<clipPath id="clip2_302_1293">
<rect width="18" height="18" fill="white" transform="translate(0.645142 0.649902)"/>
</clipPath>
</defs>
</svg>
