<svg width="31" height="31" viewBox="0 0 31 31" fill="none" xmlns="http://www.w3.org/2000/svg">
<g clip-path="url(#clip0_374_120)">
<path d="M13.8716 0.364258C12.0845 0.657227 10.6137 1.23145 9.18406 2.18652C6.74656 3.81543 5.0532 6.34668 4.43211 9.27637C4.24461 10.1436 4.17429 11.8896 4.28562 12.8037C4.60789 15.4111 5.97898 18.5869 8.24656 21.9678C9.27195 23.4912 10.8891 25.5771 12.1899 27.0596C12.9223 27.8857 14.4516 29.5264 14.8559 29.9189C15.2016 30.2471 15.2602 30.2822 15.4946 30.2822C15.7407 30.2822 15.7583 30.2705 16.52 29.4971C19.3677 26.585 22.063 23.1689 23.7563 20.3271C25.3735 17.6143 26.3286 15.1943 26.6509 12.9971C26.7915 12.001 26.7387 10.2373 26.5337 9.27637C25.5903 4.81738 22.2036 1.43066 17.7387 0.481445C17.1235 0.34668 16.8657 0.323242 15.688 0.311523C14.7622 0.293945 14.1938 0.311523 13.8716 0.364258ZM16.772 6.58105C17.352 6.72754 18.272 7.19629 18.7348 7.58887C21.0317 9.52246 21.2192 12.9209 19.1509 15.0947C17.6391 16.6826 15.0962 17.0986 13.1509 16.0732C11.8091 15.3643 10.8481 14.1396 10.5024 12.7041C10.3442 12.0244 10.3442 11.04 10.5024 10.3604C10.7544 9.31738 11.4106 8.26855 12.2485 7.57129C12.6938 7.20215 13.6313 6.72168 14.1938 6.5752C14.9614 6.37598 15.9868 6.37598 16.772 6.58105Z" fill="#FFC727"/>
</g>
<defs>
<clipPath id="clip0_374_120">
<rect width="30" height="30" fill="white" transform="translate(0.48291 0.282227)"/>
</clipPath>
</defs>
</svg>
