<svg width="13" height="13" viewBox="0 0 13 13" fill="none" xmlns="http://www.w3.org/2000/svg">
<g clip-path="url(#clip0_140_523)">
<g clip-path="url(#clip1_140_523)">
<path d="M5.85565 0.782813C5.14081 0.900001 4.55253 1.12969 3.98065 1.51172C3.00565 2.16328 2.32831 3.17578 2.07987 4.34766C2.00487 4.69453 1.97675 5.39297 2.02128 5.75859C2.15019 6.80156 2.69862 8.07188 3.60565 9.42422C4.01581 10.0336 4.66269 10.868 5.183 11.4609C5.47597 11.7914 6.08769 12.4477 6.2494 12.6047C6.38769 12.7359 6.41112 12.75 6.50487 12.75C6.60331 12.75 6.61034 12.7453 6.91503 12.4359C8.05409 11.2711 9.13222 9.90469 9.80956 8.76797C10.4564 7.68281 10.8385 6.71484 10.9674 5.83594C11.0236 5.4375 11.0025 4.73203 10.9205 4.34766C10.5432 2.56406 9.18847 1.20938 7.40253 0.829688C7.15644 0.775782 7.05331 0.766407 6.58222 0.76172C6.2119 0.754688 5.98456 0.76172 5.85565 0.782813ZM7.01581 3.26953C7.24784 3.32813 7.61581 3.51563 7.80097 3.67266C8.71972 4.44609 8.79472 5.80547 7.96737 6.675C7.36269 7.31016 6.3455 7.47656 5.56737 7.06641C5.03065 6.78281 4.64628 6.29297 4.508 5.71875C4.44472 5.44688 4.44472 5.05313 4.508 4.78125C4.60878 4.36406 4.87128 3.94453 5.20644 3.66563C5.38456 3.51797 5.75956 3.32578 5.98456 3.26719C6.29159 3.1875 6.70175 3.1875 7.01581 3.26953Z" fill="black"/>
</g>
</g>
<defs>
<clipPath id="clip0_140_523">
<rect width="12" height="12" fill="white" transform="translate(0.5 0.75)"/>
</clipPath>
<clipPath id="clip1_140_523">
<rect width="12" height="12" fill="white" transform="translate(0.5 0.75)"/>
</clipPath>
</defs>
</svg>
