<svg width="50" height="50" viewBox="0 0 50 50" fill="none" xmlns="http://www.w3.org/2000/svg">
<rect y="0.000488281" width="50" height="50" rx="25" fill="#F3F3F3"/>
<path d="M21.2695 16.6685C20.5 16.7661 19.8672 17.0786 19.3125 17.6333C18.7852 18.1606 18.4844 18.7271 18.3633 19.4302C18.3398 19.5591 18.3203 20.1567 18.3203 20.7622C18.3203 21.8599 18.3203 21.8599 18.418 22.0591C18.5664 22.3521 18.7656 22.4771 19.1172 22.4927C19.4727 22.5083 19.6875 22.4067 19.875 22.1333L20 21.9458V21.02C20 20.5122 20.0195 19.9692 20.0391 19.813C20.1133 19.2466 20.4453 18.7856 20.9688 18.5278L21.2656 18.3794H25.8164H30.3711L30.5859 18.4653C31.0547 18.6567 31.418 19.0513 31.5625 19.5239C31.6406 19.77 31.6406 19.9028 31.6406 25.0005C31.6406 30.0981 31.6406 30.231 31.5625 30.4771C31.418 30.9497 31.0547 31.3442 30.5859 31.5356L30.3711 31.6216H25.8164H21.2656L20.9688 31.4731C20.4453 31.2153 20.1133 30.7544 20.0391 30.188C20.0195 30.0317 20 29.4888 20 28.981V28.063L19.8867 27.8833C19.8164 27.7778 19.6992 27.6606 19.5938 27.5981C19.4336 27.5044 19.3828 27.4927 19.125 27.5083C18.7656 27.5239 18.5664 27.645 18.418 27.9419C18.3203 28.1411 18.3203 28.1411 18.3203 29.2388C18.3203 29.8442 18.3398 30.4419 18.3633 30.5708C18.4844 31.2739 18.7852 31.8403 19.3125 32.3677C19.7773 32.8325 20.2227 33.0864 20.8984 33.27C21.1367 33.3364 21.4688 33.3403 25.8203 33.3403H30.4883L30.8203 33.2505C32.043 32.9263 32.9258 32.0435 33.25 30.8208L33.3398 30.4888V25.0005V19.5122L33.25 19.1802C32.9297 17.9653 32.0625 17.0942 30.8398 16.7505L30.5273 16.6606L25.957 16.6567C23.4453 16.6528 21.3359 16.6567 21.2695 16.6685Z" fill="#1D3A70"/>
<path d="M23.8984 21.6959C23.543 21.8248 23.3555 22.0631 23.3281 22.4225C23.3008 22.8053 23.3516 22.8873 23.9961 23.5436L24.582 24.1412L20.9141 24.149L17.2461 24.1608L17.0625 24.2701C16.793 24.4264 16.6602 24.6686 16.6602 25.0006C16.6602 25.3326 16.793 25.5748 17.0625 25.7311L17.2461 25.8405L20.9141 25.8522L24.582 25.86L23.9961 26.4576C23.3477 27.1139 23.3008 27.1959 23.3281 27.5826C23.3672 28.11 23.8789 28.4615 24.4062 28.3209C24.5742 28.274 24.7109 28.149 25.9688 26.899C26.7305 26.1451 27.3828 25.4615 27.4258 25.3834C27.5273 25.1881 27.5273 24.8131 27.4258 24.6178C27.3828 24.5397 26.7383 23.8639 25.9883 23.1178C24.8672 22.0006 24.5977 21.7506 24.457 21.6998C24.25 21.6295 24.0898 21.6256 23.8984 21.6959Z" fill="#1D3A70"/>
</svg>
