<svg width="18" height="18" viewBox="0 0 18 18" fill="none" xmlns="http://www.w3.org/2000/svg">
<path d="M8.2617 0.0246906C7.64647 0.123128 7.11209 0.305941 6.70077 0.552034C6.06444 0.931722 5.48436 1.50828 5.10467 2.13407C4.9078 2.4575 4.73202 2.9075 4.63358 3.32235C4.53163 3.7618 4.50702 4.64071 4.58436 5.08367C4.80936 6.37742 5.58631 7.4743 6.75702 8.14578C7.91014 8.80672 9.44647 8.86297 10.7086 8.29344C11.1305 8.1036 11.5277 7.8118 11.939 7.40399C12.8601 6.48289 13.2644 5.43524 13.2082 4.14149C13.1555 2.99188 12.7652 2.08836 11.9637 1.27625C11.3238 0.625862 10.5258 0.207503 9.64334 0.0528154C9.36561 0.00359631 8.49374 -0.0139818 8.2617 0.0246906ZM9.76639 1.19188C10.2937 1.34657 10.7719 1.63836 11.1902 2.06375C11.6086 2.48914 11.8406 2.87938 12.0129 3.43485C12.1008 3.71961 12.1078 3.78992 12.1078 4.34188C12.1043 4.8868 12.0973 4.96766 12.0129 5.24891C11.8512 5.77977 11.6156 6.17352 11.2008 6.60242C10.582 7.24578 9.75936 7.59383 8.88045 7.59383C8.00858 7.59032 7.29139 7.30555 6.66913 6.71492C6.18397 6.25438 5.88866 5.7868 5.72342 5.21375C5.65311 4.97469 5.64256 4.86219 5.64608 4.3243C5.64608 3.75477 5.65311 3.68446 5.74452 3.39266C5.98358 2.61571 6.53553 1.93016 7.27733 1.49071C7.55155 1.32899 7.81874 1.22703 8.19491 1.14266C8.53592 1.06532 9.42889 1.09344 9.76639 1.19188Z" fill="#D6D6D6"/>
<path d="M4.95703 8.70472C4.14492 8.82425 3.52969 9.12659 3.01289 9.65745C2.02852 10.67 1.47656 12.4664 1.47656 14.6637C1.47656 15.5918 1.54336 15.9223 1.83867 16.5059C1.94766 16.7203 2.06016 16.8645 2.30273 17.1071C2.64727 17.4551 2.94609 17.652 3.36445 17.7996C3.94453 18.0106 3.75117 18.0035 9.12656 17.993L14.0449 17.9824L14.3438 17.891C14.7234 17.7715 14.9238 17.6836 15.177 17.5219C15.7641 17.1492 16.1965 16.5586 16.3828 15.8907C16.4953 15.4723 16.527 14.9731 16.4883 14.2032C16.3125 10.7578 15.0047 8.81721 12.7793 8.69417C12.3012 8.66956 12.2941 8.66956 11.475 9.1969C10.8422 9.6012 10.4027 9.80159 9.81914 9.95276C9.37969 10.0688 8.59219 10.0688 8.15625 9.95628C7.53398 9.79456 7.11562 9.6012 6.48281 9.18987C6.25078 9.0387 5.96602 8.86292 5.84297 8.79964C5.63906 8.69417 5.59336 8.68362 5.3332 8.68714C5.175 8.69065 5.00625 8.69768 4.95703 8.70472ZM5.88867 10.1145C6.51797 10.5188 6.98555 10.7473 7.53047 10.9125C8.59219 11.2324 9.59766 11.2114 10.6559 10.8422C11.1375 10.677 11.482 10.4977 12.1043 10.0969L12.6246 9.76643L12.8391 9.78753C14.1363 9.93518 14.9238 10.9969 15.2754 13.0606C15.3809 13.6723 15.4441 14.8149 15.3984 15.2262C15.3035 16.077 14.7727 16.6676 13.9289 16.8645C13.6758 16.9242 13.3699 16.9278 8.96484 16.9278C3.74766 16.9278 4.07812 16.9418 3.5543 16.6922C3.26602 16.5551 2.90391 16.2 2.77031 15.9258C2.60156 15.5742 2.56641 15.3563 2.56641 14.6742C2.56992 12.8215 3.00234 11.2957 3.76875 10.459C4.06406 10.1356 4.4332 9.92815 4.9043 9.8262C5.30156 9.73831 5.31211 9.74183 5.88867 10.1145Z" fill="#D6D6D6"/>
</svg>
