<svg width="50" height="50" viewBox="0 0 50 50" fill="none" xmlns="http://www.w3.org/2000/svg">
<rect y="0.000488281" width="50" height="50" rx="25" fill="#F3F3F3"/>
<g clip-path="url(#clip0_248_327)">
<path d="M24.3242 15.4419C23.6602 16.1138 22.8555 16.6021 21.7188 17.0317C20.2578 17.5864 18.1914 17.9692 16.6914 17.9692C16.332 17.9692 16.1914 18.0161 16.0586 18.188C15.9766 18.2935 15.9766 18.2974 15.9766 22.0278C15.9766 25.9185 15.9844 26.0825 16.1523 26.8755C16.3047 27.6138 16.6094 28.438 16.9766 29.1372C18.1875 31.4302 20.5352 33.3833 23.457 34.5278C24.2227 34.8286 24.7812 35.0005 24.9883 35.0005C25.082 35.0005 25.3867 34.9224 25.6719 34.8286C27.4727 34.2349 29.1719 33.3013 30.4883 32.188C30.9141 31.8286 31.6602 31.0669 31.9766 30.6685C32.8398 29.5903 33.4727 28.3208 33.7656 27.0669C34 26.0786 34.0039 26.02 34.0039 22.0122C34.0039 18.5356 34 18.3325 33.9336 18.231C33.8047 18.0356 33.6484 17.9692 33.2969 17.9692C32.6211 17.9692 31.4492 17.8481 30.625 17.6919C29.3203 17.4419 28.1953 17.0708 27.1875 16.5591C26.5352 16.2271 26.0273 15.8521 25.5664 15.3716L25.2148 15.0005H24.9844H24.7578L24.3242 15.4419ZM25.9648 17.063C27.5273 18.0864 30.1211 18.8442 32.4805 18.9692L32.9727 18.9966L32.957 22.4185C32.9453 26.1724 32.9492 26.0552 32.6953 27.0122C32.3398 28.356 31.6523 29.5396 30.5859 30.6411C29.2422 32.0317 27.5273 33.0942 25.5117 33.7817L24.9883 33.9575L24.6523 33.8481C21.9844 32.9888 19.6523 31.3325 18.332 29.356C17.7227 28.4419 17.3203 27.4497 17.1016 26.3091C17.0234 25.895 17.0195 25.7427 17.0039 22.4302L16.9883 18.9849H17.2148C17.793 18.9849 19.0234 18.8247 19.9219 18.6333C21.8984 18.2153 23.6289 17.4575 24.6914 16.5474L24.9805 16.3013L25.293 16.563C25.4648 16.7075 25.7656 16.9341 25.9648 17.063Z" fill="#1D3A70"/>
<path d="M24.4766 21.0396C23.7891 21.2036 23.2109 21.7817 23.0273 22.481C22.9883 22.645 22.9688 22.9028 22.9688 23.3481V23.9849H22.6484C22.3906 23.9849 22.2969 24.0005 22.1953 24.063C21.9531 24.2114 21.9531 24.1958 21.9531 26.5122C21.9531 28.5396 21.957 28.6177 22.0312 28.7427C22.0742 28.813 22.1641 28.9028 22.2344 28.9458C22.3594 29.02 22.4375 29.0239 24.9805 29.0239C27.4414 29.0239 27.6055 29.02 27.7305 28.9536C27.8047 28.9146 27.8984 28.8208 27.9375 28.7466C28.0039 28.6255 28.0078 28.4731 28.0078 26.5122C28.0078 24.1958 28.0078 24.2114 27.7656 24.063C27.6641 24.0005 27.5703 23.9849 27.3164 23.9849H26.9922V23.3481C26.9922 22.9028 26.9727 22.645 26.9336 22.481C26.6523 21.4146 25.5664 20.7739 24.4766 21.0396ZM25.4922 22.1685C25.707 22.3013 25.9102 22.6021 25.9531 22.8403C25.9648 22.9224 25.9766 23.2114 25.9766 23.4849V23.9849H24.9766H23.9766L23.9883 23.3872C24.0039 22.8325 24.0117 22.7778 24.1133 22.5708C24.2969 22.1958 24.5938 22.0239 25.0234 22.0396C25.2539 22.0513 25.332 22.0708 25.4922 22.1685ZM26.9531 26.4849V27.9692H24.9805H23.0078V26.4849V25.0005H24.9805H26.9531V26.4849Z" fill="#1D3A70"/>
</g>
<defs>
<clipPath id="clip0_248_327">
<rect width="20" height="20" fill="white" transform="translate(15 15.0005)"/>
</clipPath>
</defs>
</svg>
