<svg width="19" height="19" viewBox="0 0 19 19" fill="none" xmlns="http://www.w3.org/2000/svg">
<g clip-path="url(#clip0_248_372)">
<g clip-path="url(#clip1_248_372)">
<g clip-path="url(#clip2_248_372)">
<path d="M9.03444 0.674471C8.41921 0.772908 7.88483 0.955721 7.4735 1.20181C6.83717 1.5815 6.2571 2.15806 5.87741 2.78385C5.68053 3.10728 5.50475 3.55728 5.40631 3.97213C5.30436 4.41158 5.27975 5.29049 5.3571 5.73345C5.5821 7.0272 6.35905 8.12408 7.52975 8.79556C8.68288 9.4565 10.2192 9.51275 11.4813 8.94322C11.9032 8.75338 12.3005 8.46158 12.7118 8.05377C13.6329 7.13267 14.0372 6.08502 13.9809 4.79127C13.9282 3.64166 13.538 2.73814 12.7364 1.92603C12.0965 1.27564 11.2985 0.857283 10.4161 0.702596C10.1383 0.653377 9.26647 0.635799 9.03444 0.674471ZM10.5391 1.84166C11.0665 1.99635 11.5446 2.28814 11.963 2.71353C12.3813 3.13892 12.6133 3.52916 12.7856 4.08463C12.8735 4.36939 12.8805 4.4397 12.8805 4.99166C12.877 5.53658 12.87 5.61744 12.7856 5.89869C12.6239 6.42955 12.3883 6.8233 11.9735 7.2522C11.3548 7.89556 10.5321 8.24361 9.65319 8.24361C8.78131 8.2401 8.06413 7.95533 7.44186 7.3647C6.95671 6.90416 6.66139 6.43658 6.49616 5.86353C6.42585 5.62447 6.4153 5.51197 6.41881 4.97408C6.41881 4.40455 6.42585 4.33424 6.51725 4.04244C6.75631 3.26549 7.30827 2.57994 8.05006 2.14049C8.32428 1.97877 8.59147 1.87681 8.96764 1.79244C9.30866 1.7151 10.2016 1.74322 10.5391 1.84166Z" fill="#FFC727"/>
<path d="M5.72974 9.35498C4.91763 9.47452 4.30239 9.77686 3.7856 10.3077C2.80122 11.3202 2.24927 13.1167 2.24927 15.314C2.24927 16.2421 2.31606 16.5726 2.61138 17.1562C2.72036 17.3706 2.83286 17.5147 3.07544 17.7573C3.41997 18.1054 3.7188 18.3022 4.13716 18.4499C4.71724 18.6608 4.52388 18.6538 9.89927 18.6433L14.8176 18.6327L15.1165 18.5413C15.4961 18.4218 15.6965 18.3339 15.9497 18.1722C16.5368 17.7995 16.9692 17.2089 17.1555 16.5409C17.268 16.1226 17.2997 15.6233 17.261 14.8534C17.0852 11.4081 15.7774 9.46748 13.552 9.34444C13.0739 9.31983 13.0668 9.31983 12.2477 9.84717C11.6149 10.2515 11.1754 10.4519 10.5918 10.603C10.1524 10.719 9.36489 10.719 8.92895 10.6065C8.30669 10.4448 7.88833 10.2515 7.25552 9.84014C7.02349 9.68897 6.73872 9.51319 6.61567 9.44991C6.41177 9.34444 6.36606 9.33389 6.10591 9.33741C5.9477 9.34092 5.77895 9.34795 5.72974 9.35498ZM6.66138 10.7647C7.29067 11.169 7.75825 11.3976 8.30317 11.5628C9.36489 11.8827 10.3704 11.8616 11.4286 11.4925C11.9102 11.3272 12.2547 11.148 12.877 10.7472L13.3973 10.4167L13.6118 10.4378C14.909 10.5855 15.6965 11.6472 16.0481 13.7108C16.1536 14.3226 16.2168 15.4651 16.1711 15.8765C16.0762 16.7272 15.5454 17.3179 14.7016 17.5147C14.4485 17.5745 14.1426 17.578 9.73755 17.578C4.52036 17.578 4.85083 17.5921 4.327 17.3425C4.03872 17.2054 3.67661 16.8503 3.54302 16.5761C3.37427 16.2245 3.33911 16.0065 3.33911 15.3245C3.34263 13.4718 3.77505 11.946 4.54146 11.1093C4.83677 10.7858 5.20591 10.5784 5.677 10.4765C6.07427 10.3886 6.08481 10.3921 6.66138 10.7647Z" fill="#FFC727"/>
</g>
</g>
</g>
<defs>
<clipPath id="clip0_248_372">
<rect width="18" height="18" fill="white" transform="translate(0.772705 0.650391)"/>
</clipPath>
<clipPath id="clip1_248_372">
<rect width="18" height="18" fill="white" transform="translate(0.772705 0.650391)"/>
</clipPath>
<clipPath id="clip2_248_372">
<rect width="18" height="18" fill="white" transform="translate(0.772705 0.650391)"/>
</clipPath>
</defs>
</svg>
