<svg width="19" height="19" viewBox="0 0 19 19" fill="none" xmlns="http://www.w3.org/2000/svg">
<g clip-path="url(#clip0_7_277)">
<g clip-path="url(#clip1_7_277)">
<g clip-path="url(#clip2_7_277)">
<path d="M9.03444 0.174959C8.41921 0.273396 7.88483 0.456209 7.4735 0.702303C6.83717 1.08199 6.2571 1.65855 5.87741 2.28433C5.68053 2.60777 5.50475 3.05777 5.40631 3.47262C5.30436 3.91207 5.27975 4.79097 5.3571 5.23394C5.5821 6.52769 6.35905 7.62457 7.52975 8.29605C8.68288 8.95699 10.2192 9.01324 11.4813 8.44371C11.9032 8.25386 12.3005 7.96207 12.7118 7.55426C13.6329 6.63316 14.0372 5.58551 13.9809 4.29176C13.9282 3.14215 13.538 2.23863 12.7364 1.42652C12.0965 0.776131 11.2985 0.357772 10.4161 0.203084C10.1383 0.153865 9.26647 0.136287 9.03444 0.174959ZM10.5391 1.34215C11.0665 1.49683 11.5446 1.78863 11.963 2.21402C12.3813 2.63941 12.6133 3.02965 12.7856 3.58511C12.8735 3.86988 12.8805 3.94019 12.8805 4.49215C12.877 5.03707 12.87 5.11793 12.7856 5.39918C12.6239 5.93004 12.3883 6.32379 11.9735 6.75269C11.3548 7.39605 10.5321 7.7441 9.65319 7.7441C8.78131 7.74058 8.06413 7.45582 7.44186 6.86519C6.95671 6.40465 6.66139 5.93707 6.49616 5.36402C6.42585 5.12496 6.4153 5.01246 6.41881 4.47457C6.41881 3.90504 6.42585 3.83472 6.51725 3.54293C6.75631 2.76597 7.30827 2.08043 8.05006 1.64097C8.32428 1.47926 8.59147 1.3773 8.96764 1.29293C9.30866 1.21558 10.2016 1.24371 10.5391 1.34215Z" fill="#C6C6C6"/>
<path d="M5.72974 8.85498C4.91763 8.97451 4.30239 9.27686 3.7856 9.80772C2.80122 10.8202 2.24927 12.6167 2.24927 14.814C2.24927 15.7421 2.31606 16.0726 2.61138 16.6562C2.72036 16.8706 2.83286 17.0147 3.07544 17.2573C3.41997 17.6054 3.7188 17.8022 4.13716 17.9499C4.71724 18.1608 4.52388 18.1538 9.89927 18.1433L14.8176 18.1327L15.1165 18.0413C15.4961 17.9218 15.6965 17.8339 15.9497 17.6722C16.5368 17.2995 16.9692 16.7089 17.1555 16.0409C17.268 15.6226 17.2997 15.1233 17.261 14.3534C17.0852 10.9081 15.7774 8.96748 13.552 8.84444C13.0739 8.81983 13.0668 8.81983 12.2477 9.34717C11.6149 9.75147 11.1754 9.95186 10.5918 10.103C10.1524 10.219 9.36489 10.219 8.92896 10.1065C8.30669 9.94483 7.88833 9.75147 7.25552 9.34014C7.02349 9.18897 6.73872 9.01319 6.61567 8.94991C6.41177 8.84444 6.36606 8.83389 6.10591 8.83741C5.94771 8.84092 5.77895 8.84795 5.72974 8.85498ZM6.66138 10.2647C7.29067 10.669 7.75825 10.8976 8.30317 11.0628C9.36489 11.3827 10.3704 11.3616 11.4286 10.9925C11.9102 10.8272 12.2547 10.648 12.877 10.2472L13.3973 9.9167L13.6118 9.9378C14.909 10.0855 15.6965 11.1472 16.0481 13.2108C16.1536 13.8226 16.2168 14.9651 16.1711 15.3765C16.0762 16.2272 15.5454 16.8179 14.7016 17.0147C14.4485 17.0745 14.1426 17.078 9.73755 17.078C4.52036 17.078 4.85083 17.0921 4.327 16.8425C4.03872 16.7054 3.67661 16.3503 3.54302 16.0761C3.37427 15.7245 3.33911 15.5065 3.33911 14.8245C3.34263 12.9718 3.77505 11.446 4.54146 10.6093C4.83677 10.2858 5.20591 10.0784 5.677 9.97647C6.07427 9.88858 6.08481 9.89209 6.66138 10.2647Z" fill="#C6C6C6"/>
</g>
</g>
</g>
<defs>
<clipPath id="clip0_7_277">
<rect width="18" height="18" fill="white" transform="translate(0.772705 0.150146)"/>
</clipPath>
<clipPath id="clip1_7_277">
<rect width="18" height="18" fill="white" transform="translate(0.772705 0.150146)"/>
</clipPath>
<clipPath id="clip2_7_277">
<rect width="18" height="18" fill="white" transform="translate(0.772705 0.150146)"/>
</clipPath>
</defs>
</svg>
