<svg width="30" height="31" viewBox="0 0 30 31" fill="none" xmlns="http://www.w3.org/2000/svg">
<g clip-path="url(#clip0_140_2192)">
<path d="M9.80469 4.25078C7.88516 4.90156 7.2125 7.25859 8.48125 8.86094C8.74375 9.19453 9.27969 9.59922 10.0344 10.0367L10.5977 10.3594H8.32812C5.81797 10.3594 5.56641 10.3867 4.99766 10.6875C4.64219 10.8789 4.17734 11.3164 3.96953 11.65C3.89844 11.7703 3.79453 12.0219 3.73438 12.2133C3.63047 12.5469 3.625 12.7273 3.625 18.6445C3.625 24.4633 3.63047 24.7477 3.72891 25.0648C3.98047 25.8687 4.66953 26.5523 5.47891 26.7875C5.74688 26.8641 6.74219 26.875 15 26.875C23.2578 26.875 24.2531 26.8641 24.5211 26.7875C25.3305 26.5523 26.0195 25.8687 26.2711 25.0648C26.3695 24.7477 26.375 24.4633 26.375 18.6445C26.375 12.7273 26.3695 12.5469 26.2656 12.2133C26.2055 12.0219 26.1016 11.7703 26.0305 11.65C25.8227 11.3164 25.3578 10.8789 25.0023 10.6875C24.4336 10.3867 24.182 10.3594 21.6719 10.3594H19.4078L19.8945 10.0805C20.5781 9.69219 21.207 9.22734 21.4586 8.9375C22.618 7.58672 22.3172 5.51406 20.8297 4.55156C20.3539 4.24531 19.9109 4.125 19.2656 4.125C18.0844 4.125 17.3297 4.59531 16.5312 5.83125C16.1922 6.35625 15.5305 7.625 15.2188 8.34687C15.1148 8.58203 15.0164 8.77344 14.9945 8.77344C14.9727 8.77344 14.9344 8.71875 14.918 8.64766C14.8305 8.35234 13.775 6.29609 13.4742 5.83125C12.8836 4.92891 12.3313 4.45312 11.6203 4.23437C11.1172 4.07578 10.2859 4.08672 9.80469 4.25078ZM11.2211 6.03906C11.6148 6.23594 12.1016 6.91406 12.6703 8.04609C12.8945 8.5 13.4141 9.6375 13.4141 9.68125C13.4141 9.75781 11.232 8.6914 10.718 8.35781C9.88672 7.82187 9.64062 7.51015 9.64062 7.01797C9.64609 6.21406 10.5102 5.67266 11.2211 6.03906ZM19.7469 6.03359C20.4906 6.4164 20.5672 7.36797 19.9055 7.91484C19.5719 8.18828 18.9812 8.55469 18.418 8.85C17.8656 9.13437 16.6187 9.70312 16.5969 9.68125C16.5805 9.65937 17.0398 8.63672 17.3297 8.04609C17.8875 6.93047 18.3797 6.24687 18.768 6.03906C19.0305 5.90234 19.4789 5.89687 19.7469 6.03359ZM11.7352 13.2687C11.1336 13.8812 10.6086 14.4336 10.5758 14.4992C10.4664 14.718 10.4992 15.1828 10.6469 15.3961C10.8766 15.7297 11.3523 15.8664 11.757 15.7133C11.8391 15.6859 12.6047 14.9641 13.4578 14.1164L15 12.5742L16.5477 14.1164C17.3953 14.9641 18.1609 15.6859 18.243 15.7133C18.6477 15.8664 19.1234 15.7297 19.3531 15.3961C19.5008 15.1828 19.5336 14.718 19.4242 14.4992C19.3914 14.4336 18.8664 13.8812 18.2648 13.2687L17.1602 12.1641H20.4688C22.4594 12.1641 23.8539 12.1859 23.9633 12.2187C24.182 12.2789 24.3789 12.4484 24.5047 12.6836C24.5867 12.8312 24.5977 13.2141 24.6141 16.3586L24.6305 19.875H15H5.375V16.5117C5.375 14.3734 5.39688 13.0555 5.43516 12.8859C5.49531 12.5852 5.74141 12.3008 6.00937 12.2187C6.09687 12.1969 7.66641 12.1695 9.50391 12.1695L12.8398 12.1641L11.7352 13.2687ZM24.6141 23.0578C24.5977 24.3266 24.5867 24.4578 24.4883 24.6273C24.3461 24.868 24.1492 25.0102 23.8813 25.0703C23.5969 25.1359 6.40313 25.1359 6.11875 25.0703C5.85078 25.0102 5.65391 24.868 5.51172 24.6273C5.41328 24.4578 5.40234 24.3266 5.38594 23.0578L5.36406 21.6797H15H24.6359L24.6141 23.0578Z" fill="#FFC727"/>
</g>
<defs>
<clipPath id="clip0_140_2192">
<rect width="30" height="30" fill="white" transform="translate(0 0.5)"/>
</clipPath>
</defs>
</svg>
