<svg width="29" height="29" viewBox="0 0 29 29" fill="none" xmlns="http://www.w3.org/2000/svg">
<circle cx="14.0254" cy="14.2695" r="14" fill="#FFC727"/>
<path d="M9.27509 8.89049C8.84054 9.00342 8.59012 9.43552 8.66868 9.93145C8.68341 10.0297 8.92401 10.8644 9.20144 11.79C9.48132 12.7155 9.71946 13.5355 9.73419 13.6116L9.76365 13.754H12.4397C14.2516 13.754 15.1477 13.7639 15.2115 13.781C15.3244 13.813 15.4791 13.9455 15.5331 14.0585C15.5847 14.1665 15.5847 14.3727 15.5331 14.4807C15.4791 14.5937 15.3244 14.7263 15.2115 14.7582C15.1477 14.7754 14.2516 14.7852 12.4397 14.7852H9.76365L9.73419 14.9251C9.71946 15.0037 9.48132 15.8237 9.20144 16.7493C8.92401 17.6748 8.68341 18.5096 8.66868 18.6078C8.59994 19.0374 8.78161 19.4253 9.12778 19.5972C9.23581 19.6512 9.28 19.6585 9.5206 19.6561C9.74156 19.6561 9.81767 19.6463 9.9306 19.5996C10.2449 19.4769 18.8058 15.1804 18.9482 15.0749C19.1274 14.9423 19.233 14.8146 19.3213 14.6207C19.3778 14.5028 19.3876 14.4439 19.3876 14.2696C19.3876 14.0953 19.3778 14.0364 19.3213 13.9185C19.233 13.7246 19.1274 13.5969 18.9482 13.4643C18.8009 13.3563 10.2252 9.05252 9.93306 8.94204C9.78084 8.88312 9.41012 8.85366 9.27509 8.89049Z" fill="white"/>
</svg>
