<svg width="50" height="50" viewBox="0 0 50 50" fill="none" xmlns="http://www.w3.org/2000/svg">
<rect y="0.000488281" width="50" height="50" rx="25" fill="#F3F3F3"/>
<g clip-path="url(#clip0_248_293)">
<path d="M22.8633 15.0552C22.4648 15.1802 22.1016 15.5044 21.9297 15.8755C21.8711 16.0005 21.793 16.3442 21.7148 16.7817C21.6484 17.1646 21.5664 17.5513 21.5273 17.6411C21.3555 18.0278 20.9844 18.2817 20.5469 18.313C20.3086 18.3286 20.2539 18.313 19.5898 18.063C18.9023 17.8052 18.8789 17.7974 18.5156 17.7974C18 17.7974 17.7617 17.895 17.4219 18.2388C17.2031 18.4614 17.0508 18.6997 16.3359 19.9536C15.875 20.7544 15.4688 21.4731 15.4297 21.5552C15.2344 21.9575 15.25 22.5005 15.4688 22.9263C15.6094 23.2036 15.707 23.3013 16.3203 23.8091C16.9727 24.3481 17.1055 24.5474 17.1055 25.0005C17.1055 25.4536 16.9727 25.6528 16.3203 26.1919C15.707 26.6997 15.6094 26.8013 15.4688 27.0747C15.3125 27.3794 15.2578 27.7192 15.3125 28.0396C15.3672 28.3677 15.3516 28.3364 16.3359 30.0474C17.0508 31.3013 17.2031 31.5396 17.4219 31.7622C17.7617 32.106 18 32.2036 18.5156 32.2036C18.8789 32.2036 18.9023 32.1958 19.5898 31.938C20.2539 31.688 20.3086 31.6724 20.5469 31.688C20.9844 31.7192 21.3555 31.9731 21.5273 32.3599C21.5664 32.4497 21.6484 32.8364 21.7148 33.2192C21.793 33.6646 21.8711 34.0005 21.9336 34.1294C22.0586 34.4028 22.3984 34.7427 22.6836 34.8755L22.9102 34.981H25H27.0898L27.3164 34.8755C27.6016 34.7427 27.9414 34.4028 28.0664 34.1294C28.1289 34.0005 28.207 33.6646 28.2852 33.2192C28.3516 32.8364 28.4336 32.4497 28.4727 32.3599C28.6445 31.9731 29.0156 31.7192 29.4531 31.688C29.6914 31.6724 29.7461 31.688 30.4102 31.938C31.0977 32.1958 31.1211 32.2036 31.4844 32.2036C32 32.2036 32.2383 32.106 32.5781 31.7622C32.7969 31.5396 32.9492 31.3013 33.6641 30.0552C34.1211 29.2583 34.5273 28.5356 34.5664 28.4497C34.7617 28.0513 34.7461 27.4966 34.5313 27.0786C34.3906 26.7974 34.293 26.6997 33.6797 26.1919C33.0273 25.6528 32.8945 25.4536 32.8945 25.0005C32.8945 24.5669 33.0352 24.3364 33.5742 23.8989C34.4141 23.2114 34.6055 22.9614 34.6875 22.4419C34.7344 22.145 34.6875 21.8013 34.5664 21.5513C34.5273 21.4653 34.1211 20.7427 33.6641 19.9458C32.9492 18.6997 32.7969 18.4614 32.5781 18.2388C32.2383 17.895 32 17.7974 31.4844 17.7974C31.1211 17.7974 31.0977 17.8052 30.4102 18.063C29.7461 18.313 29.6914 18.3286 29.4531 18.313C29.0156 18.2817 28.6445 18.0278 28.4727 17.6411C28.4336 17.5513 28.3516 17.1646 28.2852 16.7778C28.1914 16.2427 28.1367 16.0161 28.0469 15.8325C27.9063 15.5474 27.6172 15.27 27.3047 15.1216L27.0898 15.02L25.0586 15.0122C23.457 15.0044 22.9922 15.0161 22.8633 15.0552ZM26.7148 17.1372C26.8203 17.8013 26.9375 18.2075 27.1172 18.5278C27.6016 19.3872 28.5195 19.9224 29.5117 19.9224C29.9375 19.9224 30.2461 19.8481 30.9609 19.5825L31.4727 19.3872L32.2852 20.7935C32.957 21.9575 33.0859 22.2036 33.043 22.2427C33.0117 22.27 32.7891 22.4536 32.5508 22.6528C31.9844 23.1177 31.793 23.3364 31.5781 23.77C31.375 24.1802 31.2891 24.5396 31.2891 25.0005C31.2891 25.4614 31.375 25.8208 31.5781 26.231C31.793 26.6646 31.9844 26.8833 32.5508 27.3481C32.7891 27.5474 33.0117 27.731 33.043 27.7583C33.0859 27.7974 32.957 28.0435 32.2852 29.2075L31.4727 30.6138L30.9609 30.4185C30.2461 30.1528 29.9375 30.0786 29.5117 30.0786C28.3047 30.0786 27.2617 30.8403 26.8984 31.9927C26.8477 32.1528 26.7656 32.5435 26.7148 32.8599L26.625 33.438H25H23.375L23.2852 32.8638C23.2344 32.5435 23.1523 32.1528 23.1016 31.9927C22.7383 30.8403 21.6953 30.0786 20.4883 30.0786C20.0625 30.0786 19.7539 30.1528 19.0391 30.4185L18.5273 30.6138L17.7148 29.2075C17.0469 28.0474 16.9141 27.7974 16.957 27.7583C16.9883 27.731 17.2109 27.5474 17.4492 27.3481C18.0156 26.8833 18.207 26.6646 18.4219 26.231C18.625 25.8208 18.7109 25.4614 18.7109 25.0005C18.7109 24.5396 18.625 24.1802 18.4219 23.77C18.207 23.3364 18.0156 23.1177 17.4492 22.6528C17.2109 22.4536 16.9883 22.27 16.957 22.2427C16.9141 22.2036 17.0469 21.9536 17.7148 20.7935L18.5273 19.3911L19.0859 19.5981C19.8711 19.8911 20.0859 19.9341 20.6055 19.9106C21.3633 19.8794 21.9727 19.6021 22.5 19.0396C22.9453 18.5669 23.1289 18.1216 23.2852 17.1372L23.375 16.563H25H26.625L26.7148 17.1372Z" fill="#1D3A70"/>
<path d="M24.2188 21.2114C22.3945 21.602 21.1328 23.1528 21.1328 25.0004C21.1328 26.8872 22.4727 28.4848 24.3242 28.809C26.7031 29.2231 28.8672 27.4106 28.8672 25.0004C28.8672 23.1254 27.5547 21.5434 25.7031 21.1958C25.2773 21.1137 24.6367 21.1215 24.2188 21.2114ZM25.5859 22.8168C25.9844 22.9262 26.2188 23.059 26.5352 23.3559C27.4648 24.2309 27.5117 25.6137 26.6445 26.5356C25.7656 27.4653 24.3867 27.5122 23.4648 26.645C22.4883 25.7231 22.4883 24.2739 23.4648 23.3559C24.0508 22.8051 24.832 22.6059 25.5859 22.8168Z" fill="#1D3A70"/>
</g>
<defs>
<clipPath id="clip0_248_293">
<rect width="20" height="20" fill="white" transform="translate(15 15.0005)"/>
</clipPath>
</defs>
</svg>
