<svg width="91" height="87" viewBox="0 0 91 87" fill="none" xmlns="http://www.w3.org/2000/svg">
<path d="M31.8418 0.40361C30.1543 0.87822 28.7305 1.95049 27.5527 3.67314C26.7441 4.86845 26.2344 5.99345 25.1797 8.91142C24.2305 11.4954 23.6328 12.7259 23.2285 12.9368C22.666 13.2356 21.7168 13.3411 18.2539 13.4993C13.5254 13.7278 11.416 14.3431 9.72852 16.0481C8.49805 17.261 7.86523 18.7903 7.74219 20.7415C7.63672 22.6224 7.84766 23.9759 8.7793 27.2278C9.14844 28.5286 9.53516 30.0931 9.60547 30.6907L9.76367 31.763L8.86719 32.6243C8.375 33.0989 7.10938 34.136 6.07227 34.9446C3.62891 36.8255 1.90625 38.6712 1.16797 40.1829C0.605469 41.3079 0.587891 41.4485 0.587891 43.3821C0.587891 45.3333 0.605469 45.4563 1.18555 46.6341C1.90625 48.1106 4.12109 50.3958 6.65234 52.2942C7.56641 52.9974 8.63867 53.8763 9.00781 54.263C9.69336 54.9661 9.69336 54.9661 9.58789 56.0735C9.51758 56.6888 9.20117 58.095 8.86719 59.2024C7.91797 62.4544 7.6543 63.9837 7.74219 65.8997C7.8125 67.3235 7.91797 67.7806 8.375 68.7474C9.04297 70.2063 10.1328 71.2962 11.5918 71.9993C13.3672 72.8782 14.5273 73.0892 18.3418 73.2649C21.6465 73.4231 22.8594 73.5813 23.334 73.8626C23.6328 74.056 24.3711 75.5852 24.9688 77.2727C26.8496 82.6692 28.2559 84.7435 30.8223 85.9388C32.8789 86.9056 35.1113 86.8001 37.6953 85.5872C38.293 85.306 39.8574 84.3567 41.1582 83.4778C42.4766 82.5813 43.9883 81.6673 44.5156 81.4212L45.5 80.9817L46.4492 81.4036C46.9766 81.6497 48.4883 82.5638 49.8066 83.4427C53.6738 86.0267 54.8867 86.5188 57.3652 86.5364C58.7715 86.5364 59.0703 86.4837 60.1074 85.9915C62.7266 84.7435 63.957 83.0032 65.8203 77.8528C66.6641 75.5149 67.3496 74.0735 67.666 73.8626C68.1406 73.5813 69.3535 73.4231 72.6582 73.2649C74.7676 73.177 76.5957 73.0013 77.2285 72.8255C79.9355 72.1224 81.6758 70.804 82.625 68.7649C83.0645 67.8333 83.1875 67.306 83.2578 66.0227C83.3633 64.1419 83.1523 62.7884 82.2207 59.5364C81.8516 58.2356 81.4648 56.6712 81.3945 56.0735L81.2363 55.0013L82.1328 54.1399C82.625 53.6653 83.8906 52.6282 84.9277 51.8196C87.3711 49.9212 89.0938 48.0755 89.832 46.5813C90.377 45.4563 90.4121 45.2981 90.4121 43.3821C90.4121 41.4661 90.377 41.3079 89.832 40.1829C89.0762 38.636 87.3359 36.8079 84.6641 34.7161C83.4688 33.802 82.2383 32.7649 81.9043 32.4134C81.3242 31.8157 81.3066 31.7806 81.4121 30.6907C81.4824 30.0755 81.7988 28.6692 82.1328 27.5618C83.082 24.3099 83.3457 22.7806 83.2578 20.8645C83.1875 19.4407 83.082 18.9837 82.625 18.0169C81.6758 15.9603 79.9355 14.6419 77.2285 13.9388C76.5957 13.7806 74.7852 13.5872 72.7461 13.4993C69.2832 13.3411 68.334 13.2356 67.7715 12.9368C67.3672 12.7259 66.7695 11.4954 65.8203 8.91142C64.7656 5.99345 64.2559 4.86845 63.4473 3.67314C61.2676 0.509079 58.1035 -0.563187 54.5 0.667282C53.3398 1.07158 50.8613 2.49541 49.1035 3.77861C48.5234 4.20049 47.4688 4.8333 46.7656 5.18486L45.5 5.81767L44.2168 5.18486C43.5312 4.8333 42.4062 4.14775 41.7207 3.65556C39.9453 2.37236 37.8887 1.19463 36.5527 0.702438C35.0938 0.175095 33.1074 0.0344696 31.8418 0.40361ZM61.1094 30.7083C62.9375 31.6575 63.7285 33.6614 62.9199 35.3841C62.4453 36.3685 43.0215 55.7395 42.125 56.1263C41.3516 56.4427 40.5781 56.4602 39.6113 56.1966C39.0312 56.0384 38.0469 55.1419 33.7578 50.888C28.4668 45.6145 27.7461 44.7181 27.7461 43.4876C27.7461 41.4485 29.416 39.7083 31.3496 39.6907C32.7383 39.6907 33.5996 40.306 37.3262 44.0677L40.8418 47.6009L49.1914 39.2513C54.4648 33.9954 57.7695 30.8138 58.1562 30.6556C59.0176 30.2864 60.3184 30.304 61.1094 30.7083Z" fill="#53D633"/>
</svg>
