<svg width="50" height="50" viewBox="0 0 50 50" fill="none" xmlns="http://www.w3.org/2000/svg">
<rect y="0.000488281" width="50" height="50" rx="25" fill="#F3F3F3"/>
<g clip-path="url(#clip0_248_317)">
<path d="M22.6953 15.028C21.5039 15.0944 19.8086 15.2936 19.2188 15.4342C18.6719 15.5631 18.0352 15.8639 17.5 16.2428C16.9336 16.6491 16.2344 17.4225 15.9297 17.9889C15.5508 18.6842 15.4297 19.0788 15.293 20.0202C15.0742 21.5436 15 22.6881 15 24.571C15 25.3561 15.0195 26.278 15.0391 26.6217C15.1211 27.8991 15.2852 29.2858 15.4336 29.9147C15.8086 31.528 17.2422 33.0671 18.875 33.61C19.6289 33.8639 21.5781 34.0866 23.4844 34.1335C24.6406 34.1647 26.4531 34.1335 27.1797 34.0671L27.6172 34.028L27.8633 34.196C28.3516 34.5358 28.7852 34.735 29.3633 34.8874C29.7969 35.0006 30.7852 35.0319 31.2773 34.946C32.5898 34.7194 33.7383 33.903 34.4297 32.7155C34.6523 32.3249 34.8633 31.7467 34.9414 31.3014C35.0156 30.8678 35.0156 30.0202 34.9414 29.6256C34.8242 29.0124 34.5938 28.4538 34.2461 27.9342L34.0273 27.61L34.0664 27.196C34.1758 26.0514 34.1719 23.2741 34.0625 21.9147C33.9531 20.5671 33.7773 19.3756 33.6133 18.8796C33.375 18.1725 32.9688 17.5124 32.4102 16.9303C31.6797 16.1647 30.8086 15.6413 29.9141 15.4303C29.293 15.2858 27.9102 15.1217 26.6211 15.0397C26.0664 15.0046 23.2461 14.9967 22.6953 15.028ZM25.9375 16.5436C27.6836 16.5905 29.4258 16.8171 30.0352 17.0827C30.9961 17.4967 31.8438 18.4108 32.1641 19.3756C32.3164 19.8366 32.4844 21.1217 32.582 22.5592C32.6289 23.2897 32.6445 25.9225 32.5977 26.2389L32.5703 26.4381L32.2773 26.3014C32.1133 26.2272 31.8125 26.1178 31.6055 26.0631C31.2617 25.9694 31.168 25.9616 30.4688 25.9616C29.7578 25.9616 29.6797 25.9694 29.3164 26.071C28.2891 26.3522 27.3516 27.0046 26.7461 27.8561C26.4883 28.2194 26.1875 28.8678 26.0664 29.3249C25.9727 29.6725 25.9609 29.7741 25.9609 30.4499C25.957 31.2897 26.0156 31.6139 26.2734 32.2194C26.3516 32.3991 26.4023 32.5553 26.3906 32.571C26.332 32.6256 24.6484 32.653 23.5547 32.6178C21.5898 32.5514 19.875 32.3561 19.2695 32.1296C18.3086 31.7663 17.3945 30.8678 17.0391 29.9264C16.8711 29.4889 16.7344 28.6296 16.5938 27.0905C16.5234 26.3405 16.5234 22.8913 16.5938 22.071C16.6602 21.2936 16.8164 20.0631 16.8945 19.6921C17.0703 18.8444 17.7148 17.946 18.5312 17.403C19.1133 17.0163 19.4766 16.8991 20.5273 16.7624C21.832 16.5905 23.7734 16.4772 24.8242 16.5124C25.0195 16.5163 25.5195 16.5319 25.9375 16.5436ZM31.3984 27.5983C32.3867 27.9303 33.1445 28.7428 33.3984 29.7428C33.5039 30.1608 33.5039 30.7741 33.3984 31.196C32.8594 33.3327 30.3125 34.1921 28.5859 32.821C28.1328 32.4577 27.7852 31.9616 27.5977 31.3991C27.4531 30.9616 27.418 30.3131 27.5195 29.86C27.7734 28.7077 28.6211 27.8288 29.7656 27.5358C30.2109 27.4225 30.957 27.4499 31.3984 27.5983Z" fill="#1D3A70"/>
<path d="M19.5157 20.02C18.9141 20.2349 18.8555 21.1255 19.4219 21.4028L19.5938 21.4849H24.5625C28.6485 21.4849 29.5547 21.4771 29.6602 21.4302C29.8985 21.3325 30.1172 20.9966 30.1172 20.7271C30.1172 20.4185 29.8594 20.0825 29.5586 20.0083C29.2735 19.9341 19.7188 19.9458 19.5157 20.02Z" fill="#1D3A70"/>
<path d="M19.4219 24.692C18.832 24.9849 18.9336 25.9224 19.5664 26.0943C19.6719 26.1216 20.6836 26.1334 22.7031 26.1256C25.6015 26.1138 25.6875 26.1099 25.8164 26.0357C25.8906 25.9927 26.0039 25.8912 26.0703 25.8091C26.1797 25.6724 26.1914 25.6334 26.1914 25.3756C26.1914 25.1334 26.1758 25.0709 26.0859 24.9341C26.0234 24.8404 25.914 24.7427 25.8125 24.692C25.6406 24.6099 25.6172 24.6099 22.6133 24.6099C19.6015 24.6099 19.5898 24.6099 19.4219 24.692Z" fill="#1D3A70"/>
<path d="M30.3711 28.114C30.3281 28.1218 30.2539 28.1374 30.207 28.1492C30.0781 28.1726 29.8398 28.3953 29.7812 28.5437C29.7422 28.6374 29.7266 28.8913 29.7266 29.4929C29.7266 30.2429 29.7344 30.3288 29.8047 30.4695C30.0391 30.9265 30.7539 30.989 31.0664 30.5788C31.2227 30.3757 31.2578 30.1179 31.2422 29.3445C31.2266 28.5749 31.207 28.5085 30.957 28.2898C30.8828 28.2195 30.7734 28.157 30.7227 28.1453C30.5273 28.1062 30.4492 28.0984 30.3711 28.114Z" fill="#1D3A70"/>
<path d="M30.0547 31.325C29.7734 31.3953 29.7109 31.532 29.7109 32.0789C29.7109 32.5398 29.7578 32.6609 29.9766 32.7664C30.1328 32.8445 30.8789 32.8367 31 32.7547C31.1953 32.6297 31.2305 32.5164 31.2305 32.0476C31.2305 31.5476 31.1797 31.4265 30.9336 31.3406C30.7891 31.2898 30.2461 31.282 30.0547 31.325Z" fill="#1D3A70"/>
</g>
<defs>
<clipPath id="clip0_248_317">
<rect width="20" height="20" fill="white" transform="translate(15 15.0005)"/>
</clipPath>
</defs>
</svg>
