<svg width="72" height="73" viewBox="0 0 72 73" fill="none" xmlns="http://www.w3.org/2000/svg">
<g filter="url(#filter0_d_331_233)">
<rect x="12" y="6.79663" width="48" height="48" rx="24" fill="white"/>
<path d="M44.4431 29.8521L44.4927 30.2966H44.94H46C46.2739 30.2966 46.5 30.5228 46.5 30.7966C46.5 31.0705 46.2739 31.2966 46 31.2966H44.94H44.4927L44.4431 31.7411C44.2292 33.6563 43.3704 35.4418 42.0078 36.8044C40.6451 38.167 38.8596 39.0258 36.9445 39.2397L36.5 39.2894V39.7366V40.7966C36.5 41.0705 36.2739 41.2966 36 41.2966C35.7261 41.2966 35.5 41.0705 35.5 40.7966V39.7366V39.2894L35.0555 39.2397C33.1404 39.0258 31.3549 38.167 29.9922 36.8044C28.6296 35.4418 27.7708 33.6563 27.5569 31.7411L27.5073 31.2966H27.06H26C25.7261 31.2966 25.5 31.0705 25.5 30.7966C25.5 30.5228 25.7261 30.2966 26 30.2966H27.06H27.5073L27.5569 29.8521C27.7708 27.937 28.6296 26.1515 29.9922 24.7889C31.3549 23.4262 33.1404 22.5675 35.0555 22.3535L35.5 22.3039V21.8566V20.7966C35.5 20.5228 35.7261 20.2966 36 20.2966C36.2739 20.2966 36.5 20.5228 36.5 20.7966V21.8566V22.3039L36.9445 22.3535C38.8596 22.5675 40.6451 23.4262 42.0078 24.7889C43.3704 26.1515 44.2292 27.937 44.4431 29.8521ZM32.5 30.7966C32.5 28.8628 34.0661 27.2966 36 27.2966C37.9339 27.2966 39.5 28.8628 39.5 30.7966C39.5 32.7305 37.9339 34.2966 36 34.2966C34.0661 34.2966 32.5 32.7305 32.5 30.7966ZM28.5 30.7966C28.5 34.9428 31.8539 38.2966 36 38.2966C40.1461 38.2966 43.5 34.9428 43.5 30.7966C43.5 26.6505 40.1461 23.2966 36 23.2966C31.8539 23.2966 28.5 26.6505 28.5 30.7966Z" fill="#FFC727" stroke="#FFC727"/>
</g>
<defs>
<filter id="filter0_d_331_233" x="0" y="0.796631" width="72" height="72" filterUnits="userSpaceOnUse" color-interpolation-filters="sRGB">
<feFlood flood-opacity="0" result="BackgroundImageFix"/>
<feColorMatrix in="SourceAlpha" type="matrix" values="0 0 0 0 0 0 0 0 0 0 0 0 0 0 0 0 0 0 127 0" result="hardAlpha"/>
<feOffset dy="6"/>
<feGaussianBlur stdDeviation="6"/>
<feColorMatrix type="matrix" values="0 0 0 0 0.0823529 0 0 0 0 0.403922 0 0 0 0 0.470588 0 0 0 0.26 0"/>
<feBlend mode="normal" in2="BackgroundImageFix" result="effect1_dropShadow_331_233"/>
<feBlend mode="normal" in="SourceGraphic" in2="effect1_dropShadow_331_233" result="shape"/>
</filter>
</defs>
</svg>
