<svg width="30" height="31" viewBox="0 0 30 31" fill="none" xmlns="http://www.w3.org/2000/svg">
<g clip-path="url(#clip0_140_2156)">
<g clip-path="url(#clip1_140_2156)">
<path d="M13.4141 1.56017C10.3352 1.91017 7.37659 3.34298 5.15628 5.54688C2.89769 7.79454 1.49769 10.6219 1.08206 13.7664C0.983623 14.5156 0.972685 16.1781 1.06019 16.9656C1.32269 19.4156 2.3344 21.9969 3.77269 23.8836C3.90394 24.0641 4.00237 24.2172 3.98597 24.2336C3.97503 24.25 3.83284 24.2336 3.67972 24.2008C3.26409 24.1133 2.96331 24.1242 2.76097 24.25C2.23597 24.5727 2.2305 25.4313 2.75003 25.6992C3.00706 25.8305 6.55628 26.5031 6.76409 26.4594C7.02659 26.4047 7.26722 26.1914 7.37112 25.9289C7.45862 25.6992 7.45316 25.6445 7.20706 23.9164C7.02112 22.5984 6.92815 22.1117 6.85706 22.0078C6.41956 21.4008 5.51722 21.543 5.33128 22.243C5.293 22.3797 5.28753 22.5602 5.32034 22.7625C5.34769 22.9266 5.36409 23.0797 5.35315 23.0906C5.34222 23.1016 5.23284 22.9758 5.10706 22.8117C3.81644 21.0617 3.00159 18.9563 2.74456 16.7031C2.66253 15.9703 2.71175 14.2859 2.83206 13.5859C3.06175 12.2899 3.41175 11.218 3.98597 10.0695C5.52815 6.97423 8.32269 4.62267 11.6094 3.66017C12.7961 3.31563 13.4961 3.22267 14.9453 3.22267C16.05 3.22267 16.3289 3.24454 16.9414 3.35392C17.3352 3.41954 17.7453 3.46876 17.8547 3.45235C18.2485 3.39767 18.5547 3.04766 18.5547 2.64298C18.5547 2.39141 18.3688 2.03595 18.1774 1.9211C17.6305 1.59845 14.8961 1.39063 13.4141 1.56017Z" fill="#FFC727"/>
<path d="M23.2305 4.56251C22.8313 4.65001 22.6016 4.95626 22.6016 5.39376C22.6016 5.51954 22.7055 6.35079 22.8313 7.23126C23.0774 8.94845 23.1102 9.06876 23.4328 9.26564C23.6735 9.41329 24.1 9.41329 24.3407 9.26564C24.6086 9.10157 24.7563 8.73517 24.7071 8.34142C24.6907 8.17189 24.6578 7.98595 24.6414 7.92579C24.5922 7.76173 24.8274 8.05704 25.2539 8.69689C25.7625 9.45704 26.3641 10.693 26.6703 11.6063C27.1625 13.0938 27.3375 14.3133 27.2883 15.9102C27.2282 17.7641 26.8617 19.2352 26.025 20.9414C24.8219 23.3914 22.9242 25.3055 20.4961 26.5086C19.3094 27.0992 18.2157 27.4547 16.8867 27.6789C15.9571 27.832 13.961 27.8156 13.0094 27.6461C12.2055 27.5039 12.0141 27.5203 11.7461 27.7555C11.4016 28.0617 11.3688 28.5813 11.6696 28.9258C11.8774 29.1609 11.9977 29.2047 12.8125 29.3414C13.6821 29.4836 15.4867 29.5438 16.3672 29.4508C19.2 29.1555 21.6883 28.1383 23.8594 26.3883C26.1016 24.5781 27.8297 21.8984 28.5625 19.0766C28.8633 17.9172 28.9563 17.2281 28.9836 15.8938C29.0219 14.2149 28.8852 13.0609 28.4805 11.6445C28.0375 10.1078 27.2117 8.41798 26.2985 7.18751C26.1344 6.96876 26.0032 6.77188 26.0141 6.76642C26.025 6.75548 26.1399 6.77188 26.2711 6.79923C26.6758 6.8922 27.0914 6.87032 27.2938 6.75001C27.8024 6.43829 27.7805 5.57423 27.25 5.30079C27.1407 5.24063 24.5703 4.7211 23.5039 4.54064C23.4438 4.5297 23.318 4.54064 23.2305 4.56251Z" fill="#FFC727"/>
<path d="M14.0704 7.02881C10.6797 7.41709 7.89613 9.70303 6.85707 12.9515C6.55082 13.9085 6.45238 14.6632 6.4852 15.8007C6.51801 16.878 6.60551 17.403 6.90082 18.2835C7.75942 20.8374 9.79926 22.8608 12.3477 23.6921C13.6985 24.1351 15.3446 24.228 16.7282 23.9491C18.325 23.621 20.0258 22.6858 21.1414 21.521C24.1219 18.3983 24.3844 13.6569 21.7539 10.2772C19.9383 7.94209 16.9852 6.69521 14.0704 7.02881ZM15.7383 8.71865C18.4125 9.0249 20.693 10.8897 21.5243 13.4491C21.9727 14.8272 21.9563 16.4679 21.475 17.8077C20.4907 20.564 17.9094 22.4015 15.0274 22.396C14.2125 22.396 13.5508 22.2921 12.8563 22.0624C11.1829 21.4991 9.71176 20.2304 8.90238 18.639C7.4641 15.8226 8.18051 12.328 10.6032 10.3101C12.0907 9.06865 13.8954 8.51084 15.7383 8.71865Z" fill="#FFC727"/>
<path d="M15.5065 17.9313C15.9117 17.9313 16.2654 17.8477 16.5677 17.6805C16.8765 17.5068 17.1176 17.2527 17.2913 16.9183H18.613C18.3622 17.5615 17.9602 18.0567 17.4071 18.404C16.8539 18.7513 16.2204 18.925 15.5065 18.925C14.754 18.925 14.0851 18.7224 13.4998 18.3172C12.9145 17.9056 12.5061 17.3589 12.2745 16.6771H11.387V15.9246H12.1009C12.088 15.7445 12.0816 15.603 12.0816 15.5001C12.0816 15.3972 12.088 15.2557 12.1009 15.0756H11.387V14.3231H12.2745C12.5061 13.6413 12.9145 13.0978 13.4998 12.6926C14.0851 12.281 14.754 12.0752 15.5065 12.0752C16.214 12.0752 16.8443 12.2521 17.3974 12.6058C17.957 12.9531 18.3622 13.4484 18.613 14.0915H17.2913C17.1176 13.7571 16.8765 13.5063 16.5677 13.339C16.2654 13.1654 15.9117 13.0785 15.5065 13.0785C15.037 13.0785 14.6221 13.1879 14.262 13.4066C13.9082 13.6252 13.6381 13.9308 13.4516 14.3231H15.5065V15.0756H13.2393C13.22 15.2107 13.2104 15.3522 13.2104 15.5001C13.2104 15.648 13.22 15.7895 13.2393 15.9246H15.5065V16.6771H13.4516C13.6381 17.0759 13.9082 17.3846 14.262 17.6033C14.6221 17.822 15.037 17.9313 15.5065 17.9313Z" fill="#FFC727"/>
</g>
</g>
<defs>
<clipPath id="clip0_140_2156">
<rect width="30" height="30" fill="white" transform="translate(0 0.5)"/>
</clipPath>
<clipPath id="clip1_140_2156">
<rect width="28" height="28" fill="white" transform="translate(1 1.5)"/>
</clipPath>
</defs>
</svg>
